<svg width="340" height="224" viewBox="0 0 340 224" fill="none" xmlns="http://www.w3.org/2000/svg">
<path d="M10.2125 14.644V13.636H15.6725V14.644H13.5053V19.6H12.3797V14.644H10.2125ZM17.6692 15.2404C18.9124 15.2404 19.7608 16.156 19.7608 17.4748C19.7608 18.7768 18.9124 19.7092 17.6692 19.7092C16.4344 19.7092 15.586 18.7768 15.586 17.4748C15.586 16.156 16.4344 15.2404 17.6692 15.2404ZM17.6692 18.7684C18.3244 18.7684 18.6688 18.2056 18.6688 17.4748C18.6688 16.744 18.3244 16.1812 17.6692 16.1812C17.014 16.1812 16.6696 16.744 16.6696 17.4748C16.6696 18.1888 17.014 18.7684 17.6692 18.7684ZM23.7667 18.6424V19.6H22.7083C21.7339 19.6 21.2803 19.138 21.2803 18.2392V16.2652H20.2303V15.3496H21.2803V13.636H22.3555V15.3496H23.7667V16.2652H22.3555V17.92C22.3555 18.4156 22.5151 18.6424 23.0779 18.6424H23.7667ZM27.4479 19.6V18.9784C27.3639 19.1716 27.0111 19.6924 26.2383 19.6924C25.2219 19.6924 24.4575 18.8608 24.4575 17.4748C24.4575 16.0888 25.2219 15.2572 26.2383 15.2572C27.0279 15.2572 27.3471 15.7864 27.4395 15.9628V15.3496H28.5063V19.6H27.4479ZM27.4563 17.4748C27.4563 16.7272 27.1119 16.198 26.5071 16.198C25.8939 16.198 25.5495 16.7272 25.5495 17.4748C25.5495 18.2392 25.8939 18.76 26.5071 18.76C27.1119 18.76 27.4563 18.2392 27.4563 17.4748ZM29.7357 19.6V13.4176H30.8109V19.6H29.7357ZM37.6574 16.7104H36.6242C36.557 16.5676 36.3638 16.1812 35.8094 16.1812C35.2382 16.1812 34.8854 16.7356 34.8854 17.4748C34.8854 18.214 35.2466 18.7684 35.8178 18.7684C36.389 18.7684 36.5654 18.3736 36.6326 18.2392H37.6574C37.6154 18.6844 37.1702 19.7092 35.7926 19.7092C34.6502 19.7092 33.7934 18.7936 33.7934 17.4748C33.7934 16.156 34.6418 15.2404 35.7842 15.2404C37.145 15.2404 37.6154 16.24 37.6574 16.7104ZM40.3286 15.2404C41.5718 15.2404 42.4202 16.156 42.4202 17.4748C42.4202 18.7768 41.5718 19.7092 40.3286 19.7092C39.0938 19.7092 38.2454 18.7768 38.2454 17.4748C38.2454 16.156 39.0938 15.2404 40.3286 15.2404ZM40.3286 18.7684C40.9838 18.7684 41.3282 18.2056 41.3282 17.4748C41.3282 16.744 40.9838 16.1812 40.3286 16.1812C39.6734 16.1812 39.329 16.744 39.329 17.4748C39.329 18.1888 39.6734 18.7684 40.3286 18.7684ZM45.2491 17.9368L44.7031 17.878C43.8043 17.7856 43.1491 17.3824 43.1491 16.5508C43.1491 15.736 43.8547 15.232 44.9047 15.232C46.3579 15.232 46.7527 16.0216 46.8367 16.4164H45.7783C45.7363 16.3324 45.4675 16.0468 44.9131 16.0468C44.4427 16.0468 44.2075 16.2316 44.2075 16.492C44.2075 16.7524 44.4091 16.8952 44.8123 16.9372L45.3163 16.9876C46.4335 17.0968 46.9207 17.5252 46.9207 18.3652C46.9207 19.1716 46.3075 19.7176 45.1063 19.7176C43.6027 19.7176 43.1155 18.8524 43.0483 18.4324H44.1403C44.1823 18.5416 44.4343 18.886 45.1063 18.886C45.6103 18.886 45.8539 18.7012 45.8539 18.424C45.8539 18.13 45.7111 17.9956 45.2491 17.9368ZM50.9026 18.6424V19.6H49.8442C48.8698 19.6 48.4162 19.138 48.4162 18.2392V16.2652H47.3662V15.3496H48.4162V13.636H49.4914V15.3496H50.9026V16.2652H49.4914V17.92C49.4914 18.4156 49.651 18.6424 50.2138 18.6424H50.9026Z" fill="#141413"/>
<path d="M20.1497 42.3984C20.1497 44.3376 18.9209 45.7968 16.6745 46.1616V48.5616H14.5625V46.1616C12.3161 45.7968 11.0297 44.2608 11.0297 42.1296V42.0528H13.4489V42.0912C13.4489 43.3968 14.3321 44.1456 15.5801 44.1456C16.9625 44.1456 17.6537 43.4352 17.6537 42.4368C17.6537 41.4576 17.0777 40.9392 16.0217 40.632L14.4665 40.1904C12.3161 39.5568 11.2025 38.4048 11.2025 36.1968C11.2025 34.2 12.5657 32.8752 14.5625 32.5488V30.2832H16.6745V32.568C18.7481 32.9328 19.8233 34.3344 19.8425 36.3504V36.3888H17.4617V36.3504C17.4425 35.2944 16.7705 34.5648 15.5609 34.5648C14.4089 34.5648 13.6601 35.16 13.6601 36.1584C13.6601 37.0992 14.2361 37.6176 15.3113 37.9248C15.5225 38.0208 16.5977 38.2704 16.8665 38.3856C18.9977 39.0192 20.1497 40.1712 20.1497 42.3984ZM28.1642 32.5104V46.2H25.6298V35.3904L22.2698 37.3104V34.9296L26.2634 32.5104H28.1642ZM41.6039 43.9536V46.2H31.5239V44.5488L36.3623 39.9792C37.6103 38.7696 38.3015 37.944 38.3015 36.7152C38.3015 35.4864 37.5527 34.6224 36.1895 34.6224C34.8647 34.6224 34.0583 35.5632 34.0583 36.888V37.6944H31.5623V36.8304C31.5623 34.296 33.2519 32.3376 36.1895 32.3376C39.1463 32.3376 40.8743 34.1232 40.8743 36.6576C40.8743 38.808 39.6071 40.0752 37.9175 41.6688L35.4983 43.9536H41.6039ZM53.352 34.296L46.9584 46.2H44.136L50.3568 34.8336H43.368V32.568H53.352V34.296ZM55.7952 50.1744H53.9712C54.6816 49.0224 55.392 47.64 55.4496 46.2H54.0672V42.936H57.0048V45.8928C57.0048 47.6016 56.3904 49.1568 55.7952 50.1744ZM65.2316 32.3184C68.3036 32.3184 70.2428 34.2192 70.2428 37.368V41.4C70.2428 44.6256 68.2652 46.4496 65.2316 46.4496C62.198 46.4496 60.2204 44.6256 60.2204 41.4V37.368C60.2204 34.2192 62.1596 32.3184 65.2316 32.3184ZM65.2316 44.1456C66.8636 44.1456 67.7084 42.9744 67.7084 41.3616V37.4064C67.7084 35.7936 66.8636 34.6224 65.2316 34.6224C63.5612 34.6224 62.7548 35.7936 62.7548 37.4064V41.3616C62.7548 42.9744 63.5612 44.1456 65.2316 44.1456ZM78.5816 32.3184C81.6536 32.3184 83.5928 34.2192 83.5928 37.368V41.4C83.5928 44.6256 81.6152 46.4496 78.5816 46.4496C75.548 46.4496 73.5704 44.6256 73.5704 41.4V37.368C73.5704 34.2192 75.5096 32.3184 78.5816 32.3184ZM78.5816 44.1456C80.2136 44.1456 81.0584 42.9744 81.0584 41.3616V37.4064C81.0584 35.7936 80.2136 34.6224 78.5816 34.6224C76.9112 34.6224 76.1048 35.7936 76.1048 37.4064V41.3616C76.1048 42.9744 76.9112 44.1456 78.5816 44.1456ZM91.9316 32.3184C95.0036 32.3184 96.9428 34.2192 96.9428 37.368V41.4C96.9428 44.6256 94.9652 46.4496 91.9316 46.4496C88.898 46.4496 86.9204 44.6256 86.9204 41.4V37.368C86.9204 34.2192 88.8596 32.3184 91.9316 32.3184ZM91.9316 44.1456C93.5636 44.1456 94.4084 42.9744 94.4084 41.3616V37.4064C94.4084 35.7936 93.5636 34.6224 91.9316 34.6224C90.2612 34.6224 89.4548 35.7936 89.4548 37.4064V41.3616C89.4548 42.9744 90.2612 44.1456 91.9316 44.1456Z" fill="#29261B"/>
<path d="M14.6077 55.7827L12.7327 57.6577C12.7152 57.6751 12.6946 57.6889 12.6718 57.6984C12.649 57.7078 12.6246 57.7127 12.6 57.7127C12.5754 57.7127 12.551 57.7078 12.5282 57.6984C12.5054 57.6889 12.4848 57.6751 12.4673 57.6577L10.5923 55.7827C10.5661 55.7564 10.5482 55.723 10.541 55.6866C10.5337 55.6502 10.5374 55.6125 10.5516 55.5782C10.5658 55.544 10.5899 55.5147 10.6208 55.4941C10.6516 55.4735 10.6879 55.4625 10.725 55.4625H14.475C14.5121 55.4625 14.5484 55.4735 14.5792 55.4941C14.6101 55.5147 14.6342 55.544 14.6484 55.5782C14.6626 55.6125 14.6663 55.6502 14.659 55.6866C14.6518 55.723 14.6339 55.7564 14.6077 55.7827Z" fill="#1C6CBB"/>
<path d="M20.9265 57.6394C20.9265 58.2928 20.4843 58.8076 19.7187 58.8934V59.7118H19.2039V58.9C18.4053 58.801 17.9631 58.2664 17.9631 57.5338V57.4942H18.5835V57.5206C18.5835 58.0552 18.9399 58.3588 19.4415 58.3588C19.9959 58.3588 20.2995 58.0618 20.2995 57.6394C20.2995 57.217 20.0421 57.0124 19.6197 56.887L19.1379 56.7418C18.4053 56.524 18.0291 56.1478 18.0291 55.4086C18.0291 54.7354 18.5241 54.28 19.2039 54.1942V53.4286H19.7187V54.2008C20.4315 54.2998 20.8407 54.7684 20.8407 55.5076V55.5274H20.2335V55.5076C20.2335 55.039 19.9431 54.7354 19.4415 54.7354C18.9663 54.7354 18.6495 54.9862 18.6495 55.4086C18.6495 55.8112 18.9069 56.029 19.3293 56.1544L19.8111 56.2996C20.5239 56.5108 20.9265 56.887 20.9265 57.6394ZM23.5509 54.1942V58.9H22.9107V54.94L21.7491 55.6132V55.006L23.0757 54.1942H23.5509ZM28.1466 58.3192V58.9H24.8532V58.504L26.4372 56.9398C26.9454 56.4316 27.2358 56.0884 27.2358 55.5802C27.2358 55.0588 26.9124 54.7156 26.3646 54.7156C25.8168 54.7156 25.4934 55.0984 25.4934 55.633V55.9366H24.8664V55.6264C24.8664 54.7618 25.434 54.1348 26.3646 54.1348C27.2952 54.1348 27.876 54.7552 27.876 55.5802C27.876 56.3194 27.4272 56.788 26.853 57.349L25.863 58.3192H28.1466ZM29.3621 60.3124H28.8737C29.1113 59.9164 29.3555 59.4346 29.3753 58.9H29.0189V57.9628H29.7845V58.8472C29.7845 59.4346 29.5535 59.9758 29.3621 60.3124ZM32.6488 54.1348C33.6388 54.1348 34.2856 54.7684 34.2856 55.8442V57.2698C34.2856 58.3984 33.619 58.9792 32.6488 58.9792C31.6786 58.9792 31.012 58.3984 31.012 57.2698V55.8442C31.012 54.7684 31.6588 54.1348 32.6488 54.1348ZM32.6488 58.3984C33.3154 58.3984 33.652 57.9166 33.652 57.2632V55.8508C33.652 55.1974 33.3154 54.7156 32.6488 54.7156C31.9822 54.7156 31.6456 55.1974 31.6456 55.8508V57.2632C31.6456 57.9166 31.9822 58.3984 32.6488 58.3984ZM38.7233 58.3192V58.9H35.4299V58.504L37.0139 56.9398C37.5221 56.4316 37.8125 56.0884 37.8125 55.5802C37.8125 55.0588 37.4891 54.7156 36.9413 54.7156C36.3935 54.7156 36.0701 55.0984 36.0701 55.633V55.9366H35.4431V55.6264C35.4431 54.7618 36.0107 54.1348 36.9413 54.1348C37.8719 54.1348 38.4527 54.7552 38.4527 55.5802C38.4527 56.3194 38.0039 56.788 37.4297 57.349L36.4397 58.3192H38.7233ZM42.7768 57.6196C42.7768 58.4314 42.163 58.9792 41.107 58.9792C39.9982 58.9792 39.4966 58.2994 39.4438 57.6592H40.084C40.15 58.0222 40.4668 58.3984 41.107 58.3984C41.734 58.3984 42.13 58.1014 42.13 57.58C42.13 57.052 41.7802 56.7682 41.173 56.7682H40.348V56.1874H41.1928C41.6944 56.1874 41.9914 55.9234 41.9914 55.4482C41.9914 54.9796 41.6218 54.709 41.0938 54.709C40.5394 54.709 40.2754 55.0192 40.2028 55.4152H39.5692C39.6022 54.8146 40.0642 54.1348 41.0872 54.1348C42.0706 54.1348 42.625 54.676 42.625 55.4218C42.625 56.0026 42.2554 56.3128 41.9716 56.4382C42.3214 56.5438 42.7768 56.8738 42.7768 57.6196ZM45.6165 58.9V54.0424H46.2171V58.9H45.6165ZM48.7204 55.5538C49.6048 55.5538 50.1988 56.227 50.1988 57.2632V57.3556H47.8426C47.8756 57.9628 48.199 58.4314 48.7798 58.4314C49.3606 58.4314 49.552 58.1146 49.6048 58.0288H50.179C50.1064 58.2928 49.8028 58.9792 48.7798 58.9792C47.8294 58.9792 47.2354 58.2268 47.2354 57.2698C47.2354 56.2732 47.8162 55.5538 48.7204 55.5538ZM48.7204 56.0686C48.2254 56.0686 47.9482 56.3788 47.8624 56.8804H49.5652C49.4662 56.359 49.189 56.0686 48.7204 56.0686ZM52.5709 57.547L52.1023 57.4942C51.4621 57.4216 51.0133 57.118 51.0133 56.5174C51.0133 55.9366 51.5281 55.5472 52.2673 55.5472C53.3365 55.5472 53.6137 56.161 53.6995 56.425H53.1055C53.0527 56.359 52.8217 56.0686 52.2673 56.0686C51.8185 56.0686 51.6007 56.2534 51.6007 56.491C51.6007 56.7352 51.7921 56.8738 52.1815 56.92L52.6369 56.9728C53.4091 57.0718 53.7523 57.4084 53.7523 57.9958C53.7523 58.5634 53.3035 58.9924 52.4653 58.9924C51.3631 58.9924 50.9737 58.3192 50.9209 58.0222H51.5347C51.5875 58.108 51.7987 58.4578 52.4653 58.4578C52.9339 58.4578 53.1517 58.2796 53.1517 58.0222C53.1517 57.7384 52.9999 57.5932 52.5709 57.547ZM56.0965 57.547L55.6279 57.4942C54.9877 57.4216 54.5389 57.118 54.5389 56.5174C54.5389 55.9366 55.0537 55.5472 55.7929 55.5472C56.8621 55.5472 57.1393 56.161 57.2251 56.425H56.6311C56.5783 56.359 56.3473 56.0686 55.7929 56.0686C55.3441 56.0686 55.1263 56.2534 55.1263 56.491C55.1263 56.7352 55.3177 56.8738 55.7071 56.92L56.1625 56.9728C56.9347 57.0718 57.2779 57.4084 57.2779 57.9958C57.2779 58.5634 56.8291 58.9924 55.9909 58.9924C54.8887 58.9924 54.4993 58.3192 54.4465 58.0222H55.0603C55.1131 58.108 55.3243 58.4578 55.9909 58.4578C56.4595 58.4578 56.6773 58.2796 56.6773 58.0222C56.6773 57.7384 56.5255 57.5932 56.0965 57.547ZM62.2458 58.3456V58.9H61.5462C60.8268 58.9 60.4638 58.5436 60.4638 57.8374V56.1808H59.6124V55.6396H60.4638V54.214H61.0644V55.6396H62.2458V56.1808H61.0644V57.712C61.0644 58.1608 61.203 58.3456 61.698 58.3456H62.2458ZM63.7867 57.1048V58.9H63.1861V54.0424H63.7867V56.2138C63.9121 55.93 64.2157 55.567 64.7635 55.567C65.5225 55.567 66.0175 56.095 66.0175 56.9926V58.9H65.4103V57.1048C65.4103 56.4514 65.1133 56.1214 64.6183 56.1214C64.0969 56.1214 63.7867 56.4712 63.7867 57.1048ZM69.3596 58.9V58.3654C69.2738 58.5568 69.023 58.9792 68.3894 58.9792C67.6106 58.9792 67.01 58.3522 67.01 57.2764C67.01 56.2006 67.6106 55.567 68.3894 55.567C69.0296 55.567 69.2672 56.0158 69.3596 56.1808V55.6396H69.9602V58.9H69.3596ZM69.3728 57.2764C69.3728 56.623 69.056 56.1214 68.5016 56.1214C67.934 56.1214 67.6304 56.623 67.6304 57.2764C67.6304 57.9298 67.934 58.4314 68.5016 58.4314C69.056 58.4314 69.3728 57.9298 69.3728 57.2764ZM71.7724 57.0718V58.9H71.1718V55.6396H71.7724V56.1874C71.8978 55.9168 72.2014 55.567 72.7492 55.567C73.5082 55.567 74.0032 56.0818 74.0032 56.9596V58.9H73.396V57.0718C73.396 56.4382 73.099 56.1214 72.604 56.1214C72.0826 56.1214 71.7724 56.458 71.7724 57.0718ZM77.5344 58.3918V60.3124H76.9404V55.6396H77.5344V56.1742C77.607 56.0092 77.904 55.5538 78.5508 55.5538C79.3164 55.5538 79.9566 56.1874 79.9566 57.2698C79.9566 58.3456 79.3164 58.9792 78.5508 58.9792C77.9172 58.9792 77.607 58.5304 77.5344 58.3918ZM77.5212 57.2698C77.5212 57.9232 77.871 58.4314 78.432 58.4314C78.993 58.4314 79.3428 57.9232 79.3428 57.2698C79.3428 56.6098 78.993 56.1082 78.432 56.1082C77.871 56.1082 77.5212 56.6098 77.5212 57.2698ZM81.5758 57.0586V58.9H80.9752V55.6396H81.5758V56.227C81.6616 55.9828 81.952 55.6132 82.6846 55.6132H83.3116V56.2138H82.6318C81.8728 56.2138 81.5758 56.4844 81.5758 57.0586ZM85.3749 55.5538C86.2593 55.5538 86.8533 56.227 86.8533 57.2632V57.3556H84.4971C84.5301 57.9628 84.8535 58.4314 85.4343 58.4314C86.0151 58.4314 86.2065 58.1146 86.2593 58.0288H86.8335C86.7609 58.2928 86.4573 58.9792 85.4343 58.9792C84.4839 58.9792 83.8899 58.2268 83.8899 57.2698C83.8899 56.2732 84.4707 55.5538 85.3749 55.5538ZM85.3749 56.0686C84.8799 56.0686 84.6027 56.3788 84.5169 56.8804H86.2197C86.1207 56.359 85.8435 56.0686 85.3749 56.0686ZM90.5594 55.6396L89.246 58.9594H88.7114L87.365 55.6396H88.0382L88.9886 58.1014L89.939 55.6396H90.5594ZM91.3262 55.0126V54.0688H91.9532V55.0126H91.3262ZM91.3394 58.9V55.6396H91.94V58.9H91.3394ZM94.4832 55.5604C95.4072 55.5604 96.0144 56.2996 96.0144 57.2698C96.0144 58.24 95.4072 58.9792 94.4832 58.9792C93.5592 58.9792 92.952 58.24 92.952 57.2698C92.952 56.2996 93.5592 55.5604 94.4832 55.5604ZM94.4832 58.4248C95.0772 58.4248 95.394 57.91 95.394 57.2698C95.394 56.6296 95.0772 56.1148 94.4832 56.1148C93.8892 56.1148 93.5724 56.6296 93.5724 57.2698C93.5724 57.91 93.8826 58.4248 94.4832 58.4248ZM98.3903 58.966C97.4663 58.966 96.9911 58.4182 96.9911 57.6064V55.6396H97.5983V57.5734C97.5983 58.0684 97.8623 58.3984 98.3903 58.3984C98.8985 58.3984 99.1823 58.0684 99.1823 57.5734V55.6396H99.7763V57.6064C99.7763 58.3456 99.2879 58.966 98.3903 58.966ZM102.348 57.547L101.879 57.4942C101.239 57.4216 100.79 57.118 100.79 56.5174C100.79 55.9366 101.305 55.5472 102.044 55.5472C103.114 55.5472 103.391 56.161 103.477 56.425H102.883C102.83 56.359 102.599 56.0686 102.044 56.0686C101.596 56.0686 101.378 56.2534 101.378 56.491C101.378 56.7352 101.569 56.8738 101.959 56.92L102.414 56.9728C103.186 57.0718 103.529 57.4084 103.529 57.9958C103.529 58.5634 103.081 58.9924 102.242 58.9924C101.14 58.9924 100.751 58.3192 100.698 58.0222H101.312C101.365 58.108 101.576 58.4578 102.242 58.4578C102.711 58.4578 102.929 58.2796 102.929 58.0222C102.929 57.7384 102.777 57.5932 102.348 57.547ZM106.867 57.0256V58.9H106.267V55.6396H106.867V56.1478C106.973 55.9102 107.263 55.567 107.804 55.567C108.352 55.567 108.735 55.8376 108.926 56.26C109.045 55.9828 109.349 55.567 109.976 55.567C110.781 55.567 111.25 56.1412 111.25 56.9134V58.9H110.642V57.0256C110.642 56.4778 110.385 56.1214 109.857 56.1214C109.336 56.1214 109.058 56.4976 109.058 57.0256V58.9H108.451V57.0256C108.451 56.4778 108.181 56.1214 107.659 56.1214C107.138 56.1214 106.867 56.4976 106.867 57.0256ZM113.755 55.5604C114.679 55.5604 115.286 56.2996 115.286 57.2698C115.286 58.24 114.679 58.9792 113.755 58.9792C112.831 58.9792 112.224 58.24 112.224 57.2698C112.224 56.2996 112.831 55.5604 113.755 55.5604ZM113.755 58.4248C114.349 58.4248 114.666 57.91 114.666 57.2698C114.666 56.6296 114.349 56.1148 113.755 56.1148C113.161 56.1148 112.844 56.6296 112.844 57.2698C112.844 57.91 113.154 58.4248 113.755 58.4248ZM116.89 57.0718V58.9H116.289V55.6396H116.89V56.1874C117.015 55.9168 117.319 55.567 117.866 55.567C118.625 55.567 119.12 56.0818 119.12 56.9596V58.9H118.513V57.0718C118.513 56.4382 118.216 56.1214 117.721 56.1214C117.2 56.1214 116.89 56.458 116.89 57.0718ZM122.445 58.3456V58.9H121.745C121.026 58.9 120.663 58.5436 120.663 57.8374V56.1808H119.812V55.6396H120.663V54.214H121.264V55.6396H122.445V56.1808H121.264V57.712C121.264 58.1608 121.402 58.3456 121.897 58.3456H122.445ZM123.986 57.1048V58.9H123.385V54.0424H123.986V56.2138C124.111 55.93 124.415 55.567 124.963 55.567C125.722 55.567 126.217 56.095 126.217 56.9926V58.9H125.61V57.1048C125.61 56.4514 125.313 56.1214 124.818 56.1214C124.296 56.1214 123.986 56.4712 123.986 57.1048Z" fill="#3D3929"/>
<g clip-path="url(#clip0_662_1690)">
<line x1="24.2" y1="90" x2="559.4" y2="90" stroke="#6B6B6B" stroke-opacity="0.25" stroke-width="0.6"/>
<line x1="24.2" y1="139.8" x2="559.4" y2="139.8" stroke="#6B6B6B" stroke-opacity="0.25" stroke-width="0.6"/>
<line x1="24.2" y1="165.6" x2="559.4" y2="165.6" stroke="#6B6B6B" stroke-opacity="0.25" stroke-width="0.6"/>
<line x1="24.2" y1="190.2" x2="559.4" y2="190.2" stroke="#6B6B6B" stroke-width="0.6"/>
<line x1="24.2" y1="114" x2="559.4" y2="114" stroke="#6B6B6B" stroke-opacity="0.25" stroke-width="0.6"/>
<path d="M12.7495 89.9832C12.7495 90.4584 12.4279 90.8328 11.8711 90.8952V91.4904H11.4967V90.9C10.9159 90.828 10.5943 90.4392 10.5943 89.9064V89.8776H11.0455V89.8968C11.0455 90.2856 11.3047 90.5064 11.6695 90.5064C12.0727 90.5064 12.2935 90.2904 12.2935 89.9832C12.2935 89.676 12.1063 89.5272 11.7991 89.436L11.4487 89.3304C10.9159 89.172 10.6423 88.8984 10.6423 88.3608C10.6423 87.8712 11.0023 87.54 11.4967 87.4776V86.9208H11.8711V87.4824C12.3895 87.5544 12.6871 87.8952 12.6871 88.4328V88.4472H12.2455V88.4328C12.2455 88.092 12.0343 87.8712 11.6695 87.8712C11.3239 87.8712 11.0935 88.0536 11.0935 88.3608C11.0935 88.6536 11.2807 88.812 11.5879 88.9032L11.9383 89.0088C12.4567 89.1624 12.7495 89.436 12.7495 89.9832ZM16.2278 89.8488H15.503V90.9H15.0518V89.8488H13.3238V89.5944L14.9942 87.492H15.503V89.4456H16.2278V89.8488ZM13.9382 89.4456H15.0518V88.0296L13.9382 89.4456ZM18.0733 87.4344C18.7933 87.4344 19.2637 87.8952 19.2637 88.6776V89.7144C19.2637 90.5352 18.7789 90.9576 18.0733 90.9576C17.3677 90.9576 16.8829 90.5352 16.8829 89.7144V88.6776C16.8829 87.8952 17.3533 87.4344 18.0733 87.4344ZM18.0733 90.5352C18.5581 90.5352 18.8029 90.1848 18.8029 89.7096V88.6824C18.8029 88.2072 18.5581 87.8568 18.0733 87.8568C17.5885 87.8568 17.3437 88.2072 17.3437 88.6824V89.7096C17.3437 90.1848 17.5885 90.5352 18.0733 90.5352ZM22.5055 90.9L20.7295 89.3208V90.9H20.2639V87.492H20.7295V89.0568L22.4239 87.492H23.0623L21.2431 89.1624L23.1583 90.9H22.5055Z" fill="#535146"/>
<path d="M12.7745 116.383C12.7745 116.858 12.4529 117.233 11.8961 117.295V117.89H11.5217V117.3C10.9409 117.228 10.6193 116.839 10.6193 116.306V116.278H11.0705V116.297C11.0705 116.686 11.3297 116.906 11.6945 116.906C12.0977 116.906 12.3185 116.69 12.3185 116.383C12.3185 116.076 12.1313 115.927 11.8241 115.836L11.4737 115.73C10.9409 115.572 10.6673 115.298 10.6673 114.761C10.6673 114.271 11.0273 113.94 11.5217 113.878V113.321H11.8961V113.882C12.4145 113.954 12.7121 114.295 12.7121 114.833V114.847H12.2705V114.833C12.2705 114.492 12.0593 114.271 11.6945 114.271C11.3489 114.271 11.1185 114.454 11.1185 114.761C11.1185 115.054 11.3057 115.212 11.6129 115.303L11.9633 115.409C12.4817 115.562 12.7745 115.836 12.7745 116.383ZM15.8688 116.369C15.8688 116.959 15.4224 117.358 14.6544 117.358C13.848 117.358 13.4832 116.863 13.4448 116.398H13.9104C13.9584 116.662 14.1888 116.935 14.6544 116.935C15.1104 116.935 15.3984 116.719 15.3984 116.34C15.3984 115.956 15.144 115.75 14.7024 115.75H14.1024V115.327H14.7168C15.0816 115.327 15.2976 115.135 15.2976 114.79C15.2976 114.449 15.0288 114.252 14.6448 114.252C14.2416 114.252 14.0496 114.478 13.9968 114.766H13.536C13.56 114.329 13.896 113.834 14.64 113.834C15.3552 113.834 15.7584 114.228 15.7584 114.77C15.7584 115.193 15.4896 115.418 15.2832 115.51C15.5376 115.586 15.8688 115.826 15.8688 116.369ZM17.8733 113.834C18.5933 113.834 19.0637 114.295 19.0637 115.078V116.114C19.0637 116.935 18.5789 117.358 17.8733 117.358C17.1677 117.358 16.6829 116.935 16.6829 116.114V115.078C16.6829 114.295 17.1533 113.834 17.8733 113.834ZM17.8733 116.935C18.3581 116.935 18.6029 116.585 18.6029 116.11V115.082C18.6029 114.607 18.3581 114.257 17.8733 114.257C17.3885 114.257 17.1437 114.607 17.1437 115.082V116.11C17.1437 116.585 17.3885 116.935 17.8733 116.935ZM22.3055 117.3L20.5295 115.721V117.3H20.0639V113.892H20.5295V115.457L22.2239 113.892H22.8623L21.0431 115.562L22.9583 117.3H22.3055Z" fill="#535146"/>
<path d="M12.887 142.183C12.887 142.658 12.5654 143.033 12.0086 143.095V143.69H11.6342V143.1C11.0534 143.028 10.7318 142.639 10.7318 142.106V142.078H11.183V142.097C11.183 142.486 11.4422 142.706 11.807 142.706C12.2102 142.706 12.431 142.49 12.431 142.183C12.431 141.876 12.2438 141.727 11.9366 141.636L11.5862 141.53C11.0534 141.372 10.7798 141.098 10.7798 140.561C10.7798 140.071 11.1398 139.74 11.6342 139.678V139.121H12.0086V139.682C12.527 139.754 12.8246 140.095 12.8246 140.633V140.647H12.383V140.633C12.383 140.292 12.1718 140.071 11.807 140.071C11.4614 140.071 11.231 140.254 11.231 140.561C11.231 140.854 11.4182 141.012 11.7254 141.103L12.0758 141.209C12.5942 141.362 12.887 141.636 12.887 142.183ZM16.0005 142.678V143.1H13.6053V142.812L14.7573 141.674C15.1269 141.305 15.3381 141.055 15.3381 140.686C15.3381 140.306 15.1029 140.057 14.7045 140.057C14.3061 140.057 14.0709 140.335 14.0709 140.724V140.945H13.6149V140.719C13.6149 140.09 14.0277 139.634 14.7045 139.634C15.3813 139.634 15.8037 140.086 15.8037 140.686C15.8037 141.223 15.4773 141.564 15.0597 141.972L14.3397 142.678H16.0005ZM17.8733 139.634C18.5933 139.634 19.0637 140.095 19.0637 140.878V141.914C19.0637 142.735 18.5789 143.158 17.8733 143.158C17.1677 143.158 16.6829 142.735 16.6829 141.914V140.878C16.6829 140.095 17.1533 139.634 17.8733 139.634ZM17.8733 142.735C18.3581 142.735 18.6029 142.385 18.6029 141.91V140.882C18.6029 140.407 18.3581 140.057 17.8733 140.057C17.3885 140.057 17.1437 140.407 17.1437 140.882V141.91C17.1437 142.385 17.3885 142.735 17.8733 142.735ZM22.3055 143.1L20.5295 141.521V143.1H20.0639V139.692H20.5295V141.257L22.2239 139.692H22.8623L21.0431 141.362L22.9583 143.1H22.3055Z" fill="#535146"/>
<path d="M14.1167 167.983C14.1167 168.458 13.7951 168.833 13.2383 168.895V169.49H12.8639V168.9C12.2831 168.828 11.9615 168.439 11.9615 167.906V167.878H12.4127V167.897C12.4127 168.286 12.6719 168.506 13.0367 168.506C13.4399 168.506 13.6607 168.29 13.6607 167.983C13.6607 167.676 13.4735 167.527 13.1663 167.436L12.8159 167.33C12.2831 167.172 12.0095 166.898 12.0095 166.361C12.0095 165.871 12.3695 165.54 12.8639 165.478V164.921H13.2383V165.482C13.7567 165.554 14.0543 165.895 14.0543 166.433V166.447H13.6127V166.433C13.6127 166.092 13.4015 165.871 13.0367 165.871C12.6911 165.871 12.4607 166.054 12.4607 166.361C12.4607 166.654 12.6479 166.812 12.9551 166.903L13.3055 167.009C13.8239 167.162 14.1167 167.436 14.1167 167.983ZM16.0254 165.478V168.9H15.5598V166.02L14.715 166.51V166.068L15.6798 165.478H16.0254ZM18.2733 165.434C18.9933 165.434 19.4637 165.895 19.4637 166.678V167.714C19.4637 168.535 18.9789 168.958 18.2733 168.958C17.5677 168.958 17.0829 168.535 17.0829 167.714V166.678C17.0829 165.895 17.5533 165.434 18.2733 165.434ZM18.2733 168.535C18.7581 168.535 19.0029 168.185 19.0029 167.71V166.682C19.0029 166.207 18.7581 165.857 18.2733 165.857C17.7885 165.857 17.5437 166.207 17.5437 166.682V167.71C17.5437 168.185 17.7885 168.535 18.2733 168.535ZM22.7055 168.9L20.9295 167.321V168.9H20.4639V165.492H20.9295V167.057L22.6239 165.492H23.2623L21.4431 167.162L23.3583 168.9H22.7055Z" fill="#535146"/>
<path d="M19.1183 193.783C19.1183 194.258 18.7967 194.633 18.2399 194.695V195.29H17.8655V194.7C17.2847 194.628 16.9631 194.239 16.9631 193.706V193.678H17.4143V193.697C17.4143 194.086 17.6735 194.306 18.0383 194.306C18.4415 194.306 18.6623 194.09 18.6623 193.783C18.6623 193.476 18.4751 193.327 18.1679 193.236L17.8175 193.13C17.2847 192.972 17.0111 192.698 17.0111 192.161C17.0111 191.671 17.3711 191.34 17.8655 191.278V190.721H18.2399V191.282C18.7583 191.354 19.0559 191.695 19.0559 192.233V192.247H18.6143V192.233C18.6143 191.892 18.4031 191.671 18.0383 191.671C17.6927 191.671 17.4623 191.854 17.4623 192.161C17.4623 192.454 17.6495 192.612 17.9567 192.703L18.3071 192.809C18.8255 192.962 19.1183 193.236 19.1183 193.783ZM21.1374 191.234C21.8574 191.234 22.3278 191.695 22.3278 192.478V193.514C22.3278 194.335 21.843 194.758 21.1374 194.758C20.4317 194.758 19.9469 194.335 19.9469 193.514V192.478C19.9469 191.695 20.4173 191.234 21.1374 191.234ZM21.1374 194.335C21.6222 194.335 21.867 193.985 21.867 193.51V192.482C21.867 192.007 21.6222 191.657 21.1374 191.657C20.6525 191.657 20.4077 192.007 20.4077 192.482V193.51C20.4077 193.985 20.6525 194.335 21.1374 194.335Z" fill="#535146"/>
<g clip-path="url(#clip1_662_1690)">
<rect x="29" y="153.3" width="12" height="12.4" fill="#EDC827"/>
<rect x="29" y="165.7" width="12" height="12.4" fill="#59B8A5"/>
<rect x="29" y="178.1" width="12" height="12.4" fill="#6BA1D8"/>
</g>
<g clip-path="url(#clip2_662_1690)">
<rect x="45.8" y="90.3" width="12" height="33.4" fill="#EDC827"/>
<rect x="45.8" y="123.7" width="12" height="33.4" fill="#59B8A5"/>
<rect x="45.8" y="157.1" width="12" height="33.4" fill="#6BA1D8"/>
</g>
<g clip-path="url(#clip3_662_1690)">
<rect x="62.6" y="139.5" width="12" height="17" fill="#EDC827"/>
<rect x="62.6" y="156.5" width="12" height="17" fill="#59B8A5"/>
<rect x="62.6" y="173.5" width="12" height="17" fill="#6BA1D8"/>
</g>
<g clip-path="url(#clip4_662_1690)">
<rect x="79.4" y="104.1" width="12" height="28.8" fill="#EDC827"/>
<rect x="79.4" y="132.9" width="12" height="28.8" fill="#59B8A5"/>
<rect x="79.4" y="161.7" width="12" height="28.8" fill="#6BA1D8"/>
</g>
<g clip-path="url(#clip5_662_1690)">
<rect x="96.2" y="153.3" width="12" height="12.4" fill="#EDC827"/>
<rect x="96.2" y="165.7" width="12" height="12.4" fill="#59B8A5"/>
<rect x="96.2" y="178.1" width="12" height="12.4" fill="#6BA1D8"/>
</g>
<g clip-path="url(#clip6_662_1690)">
<rect x="113" y="108.9" width="12" height="27.2" fill="#EDC827"/>
<rect x="113" y="136.1" width="12" height="27.2" fill="#59B8A5"/>
<rect x="113" y="163.3" width="12" height="27.2" fill="#6BA1D8"/>
</g>
<g clip-path="url(#clip7_662_1690)">
<rect x="129.8" y="99.9" width="12" height="30.2" fill="#EDC827"/>
<rect x="129.8" y="130.1" width="12" height="30.2" fill="#59B8A5"/>
<rect x="129.8" y="160.3" width="12" height="30.2" fill="#6BA1D8"/>
</g>
<g clip-path="url(#clip8_662_1690)">
<rect x="146.6" y="89.7" width="12" height="33.6" fill="#EDC827"/>
<rect x="146.6" y="123.3" width="12" height="33.6" fill="#59B8A5"/>
<rect x="146.6" y="156.9" width="12" height="33.6" fill="#6BA1D8"/>
</g>
<g clip-path="url(#clip9_662_1690)">
<rect x="163.4" y="144.9" width="12" height="15.2" fill="#EDC827"/>
<rect x="163.4" y="160.1" width="12" height="15.2" fill="#59B8A5"/>
<rect x="163.4" y="175.3" width="12" height="15.2" fill="#6BA1D8"/>
</g>
<g clip-path="url(#clip10_662_1690)">
<rect x="180.2" y="116.1" width="12" height="24.8" fill="#EDC827"/>
<rect x="180.2" y="140.9" width="12" height="24.8" fill="#59B8A5"/>
<rect x="180.2" y="165.7" width="12" height="24.8" fill="#6BA1D8"/>
</g>
<g clip-path="url(#clip11_662_1690)">
<rect x="197" y="128.1" width="12" height="20.8" fill="#EDC827"/>
<rect x="197" y="148.9" width="12" height="20.8" fill="#59B8A5"/>
<rect x="197" y="169.7" width="12" height="20.8" fill="#6BA1D8"/>
</g>
<g clip-path="url(#clip12_662_1690)">
<rect x="213.8" y="141.9" width="12" height="16.2" fill="#EDC827"/>
<rect x="213.8" y="158.1" width="12" height="16.2" fill="#59B8A5"/>
<rect x="213.8" y="174.3" width="12" height="16.2" fill="#6BA1D8"/>
</g>
<g clip-path="url(#clip13_662_1690)">
<rect x="230.6" y="105.3" width="12" height="28.4" fill="#EDC827"/>
<rect x="230.6" y="133.7" width="12" height="28.4" fill="#59B8A5"/>
<rect x="230.6" y="162.1" width="12" height="28.4" fill="#6BA1D8"/>
</g>
<g clip-path="url(#clip14_662_1690)">
<rect x="247.4" y="125.1" width="12" height="21.8" fill="#EDC827"/>
<rect x="247.4" y="146.9" width="12" height="21.8" fill="#59B8A5"/>
<rect x="247.4" y="168.7" width="12" height="21.8" fill="#6BA1D8"/>
</g>
<g clip-path="url(#clip15_662_1690)">
<rect x="264.2" y="131.1" width="12" height="19.8" fill="#EDC827"/>
<rect x="264.2" y="150.9" width="12" height="19.8" fill="#59B8A5"/>
<rect x="264.2" y="170.7" width="12" height="19.8" fill="#6BA1D8"/>
</g>
<g clip-path="url(#clip16_662_1690)">
<rect x="281" y="113.1" width="12" height="25.8" fill="#EDC827"/>
<rect x="281" y="138.9" width="12" height="25.8" fill="#59B8A5"/>
<rect x="281" y="164.7" width="12" height="25.8" fill="#6BA1D8"/>
</g>
<g clip-path="url(#clip17_662_1690)">
<rect x="297.8" y="91.5" width="12" height="33" fill="#EDC827"/>
<rect x="297.8" y="124.5" width="12" height="33" fill="#59B8A5"/>
<rect x="297.8" y="157.5" width="12" height="33" fill="#6BA1D8"/>
</g>
<g clip-path="url(#clip18_662_1690)">
<rect x="314.6" y="99.9" width="12" height="30.2" fill="#EDC827"/>
<rect x="314.6" y="130.1" width="12" height="30.2" fill="#59B8A5"/>
<rect x="314.6" y="160.3" width="12" height="30.2" fill="#6BA1D8"/>
</g>
<path d="M36.8795 194.834C37.5995 194.834 38.0699 195.295 38.0699 196.078V197.114C38.0699 197.935 37.5851 198.358 36.8795 198.358C36.1739 198.358 35.6891 197.935 35.6891 197.114V196.078C35.6891 195.295 36.1595 194.834 36.8795 194.834ZM36.8795 197.935C37.3643 197.935 37.6091 197.585 37.6091 197.11V196.082C37.6091 195.607 37.3643 195.257 36.8795 195.257C36.3947 195.257 36.1499 195.607 36.1499 196.082V197.11C36.1499 197.585 36.3947 197.935 36.8795 197.935ZM40.0926 194.878V198.3H39.627V195.42L38.7822 195.91V195.468L39.747 194.878H40.0926ZM44.494 194.892V197.263C44.494 197.978 44.0572 198.353 43.4284 198.353C42.814 198.353 42.3772 197.993 42.3772 197.263V196.322H42.838V197.263C42.838 197.666 43.0588 197.911 43.4284 197.911C43.8124 197.911 44.0284 197.666 44.0284 197.263V194.892H44.494ZM46.4462 198.348C45.7742 198.348 45.4286 197.95 45.4286 197.359V195.929H45.8702V197.335C45.8702 197.695 46.0622 197.935 46.4462 197.935C46.8158 197.935 47.0222 197.695 47.0222 197.335V195.929H47.4542V197.359C47.4542 197.897 47.099 198.348 46.4462 198.348ZM48.7534 196.97V198.3H48.3166V195.929H48.7534V196.327C48.8446 196.13 49.0654 195.876 49.4638 195.876C50.0158 195.876 50.3758 196.25 50.3758 196.889V198.3H49.9342V196.97C49.9342 196.51 49.7182 196.279 49.3582 196.279C48.979 196.279 48.7534 196.524 48.7534 196.97Z" fill="#535146"/>
<path d="M125.702 194.878V198.3H125.237V195.42L124.392 195.91V195.468L125.357 194.878H125.702ZM127.95 194.834C128.67 194.834 129.141 195.295 129.141 196.078V197.114C129.141 197.935 128.656 198.358 127.95 198.358C127.245 198.358 126.76 197.935 126.76 197.114V196.078C126.76 195.295 127.23 194.834 127.95 194.834ZM127.95 197.935C128.435 197.935 128.68 197.585 128.68 197.11V196.082C128.68 195.607 128.435 195.257 127.95 195.257C127.466 195.257 127.221 195.607 127.221 196.082V197.11C127.221 197.585 127.466 197.935 127.95 197.935ZM133.427 194.892V197.263C133.427 197.978 132.99 198.353 132.362 198.353C131.747 198.353 131.31 197.993 131.31 197.263V196.322H131.771V197.263C131.771 197.666 131.992 197.911 132.362 197.911C132.746 197.911 132.962 197.666 132.962 197.263V194.892H133.427ZM135.38 198.348C134.708 198.348 134.362 197.95 134.362 197.359V195.929H134.804V197.335C134.804 197.695 134.996 197.935 135.38 197.935C135.749 197.935 135.956 197.695 135.956 197.335V195.929H136.388V197.359C136.388 197.897 136.032 198.348 135.38 198.348ZM137.687 196.97V198.3H137.25V195.929H137.687V196.327C137.778 196.13 137.999 195.876 138.397 195.876C138.949 195.876 139.309 196.25 139.309 196.889V198.3H138.867V196.97C138.867 196.51 138.651 196.279 138.291 196.279C137.912 196.279 137.687 196.524 137.687 196.97Z" fill="#535146"/>
<path d="M216.011 197.878V198.3H213.616V198.012L214.768 196.874C215.137 196.505 215.348 196.255 215.348 195.886C215.348 195.506 215.113 195.257 214.715 195.257C214.316 195.257 214.081 195.535 214.081 195.924V196.145H213.625V195.919C213.625 195.29 214.038 194.834 214.715 194.834C215.392 194.834 215.814 195.286 215.814 195.886C215.814 196.423 215.488 196.764 215.07 197.172L214.35 197.878H216.011ZM217.884 194.834C218.604 194.834 219.074 195.295 219.074 196.078V197.114C219.074 197.935 218.589 198.358 217.884 198.358C217.178 198.358 216.693 197.935 216.693 197.114V196.078C216.693 195.295 217.164 194.834 217.884 194.834ZM217.884 197.935C218.368 197.935 218.613 197.585 218.613 197.11V196.082C218.613 195.607 218.368 195.257 217.884 195.257C217.399 195.257 217.154 195.607 217.154 196.082V197.11C217.154 197.585 217.399 197.935 217.884 197.935ZM223.361 194.892V197.263C223.361 197.978 222.924 198.353 222.295 198.353C221.681 198.353 221.244 197.993 221.244 197.263V196.322H221.705V197.263C221.705 197.666 221.925 197.911 222.295 197.911C222.679 197.911 222.895 197.666 222.895 197.263V194.892H223.361ZM225.313 198.348C224.641 198.348 224.295 197.95 224.295 197.359V195.929H224.737V197.335C224.737 197.695 224.929 197.935 225.313 197.935C225.682 197.935 225.889 197.695 225.889 197.335V195.929H226.321V197.359C226.321 197.897 225.966 198.348 225.313 198.348ZM227.62 196.97V198.3H227.183V195.929H227.62V196.327C227.711 196.13 227.932 195.876 228.33 195.876C228.882 195.876 229.242 196.25 229.242 196.889V198.3H228.801V196.97C228.801 196.51 228.585 196.279 228.225 196.279C227.846 196.279 227.62 196.524 227.62 196.97Z" fill="#535146"/>
<path d="M305.813 197.369C305.813 197.959 305.366 198.358 304.598 198.358C303.792 198.358 303.427 197.863 303.389 197.398H303.854C303.902 197.662 304.133 197.935 304.598 197.935C305.054 197.935 305.342 197.719 305.342 197.34C305.342 196.956 305.088 196.75 304.646 196.75H304.046V196.327H304.661C305.025 196.327 305.241 196.135 305.241 195.79C305.241 195.449 304.973 195.252 304.589 195.252C304.185 195.252 303.993 195.478 303.941 195.766H303.48C303.504 195.329 303.84 194.834 304.584 194.834C305.299 194.834 305.702 195.228 305.702 195.77C305.702 196.193 305.433 196.418 305.227 196.51C305.481 196.586 305.813 196.826 305.813 197.369ZM307.817 194.834C308.537 194.834 309.007 195.295 309.007 196.078V197.114C309.007 197.935 308.523 198.358 307.817 198.358C307.111 198.358 306.627 197.935 306.627 197.114V196.078C306.627 195.295 307.097 194.834 307.817 194.834ZM307.817 197.935C308.302 197.935 308.547 197.585 308.547 197.11V196.082C308.547 195.607 308.302 195.257 307.817 195.257C307.332 195.257 307.087 195.607 307.087 196.082V197.11C307.087 197.585 307.332 197.935 307.817 197.935ZM313.294 194.892V197.263C313.294 197.978 312.857 198.353 312.228 198.353C311.614 198.353 311.177 197.993 311.177 197.263V196.322H311.638V197.263C311.638 197.666 311.859 197.911 312.228 197.911C312.612 197.911 312.828 197.666 312.828 197.263V194.892H313.294ZM315.246 198.348C314.574 198.348 314.229 197.95 314.229 197.359V195.929H314.67V197.335C314.67 197.695 314.862 197.935 315.246 197.935C315.616 197.935 315.822 197.695 315.822 197.335V195.929H316.254V197.359C316.254 197.897 315.899 198.348 315.246 198.348ZM317.553 196.97V198.3H317.117V195.929H317.553V196.327C317.645 196.13 317.865 195.876 318.264 195.876C318.816 195.876 319.176 196.25 319.176 196.889V198.3H318.734V196.97C318.734 196.51 318.518 196.279 318.158 196.279C317.779 196.279 317.553 196.524 317.553 196.97Z" fill="#535146"/>
<rect x="61.3" y="215.1" width="16.8" height="6" rx="0.6" fill="#6BA1D8"/>
<path d="M90.4355 216.163C89.6555 216.163 89.2187 216.49 89.2187 216.989C89.2187 217.504 89.6789 217.723 90.2717 217.808L91.0049 217.918C91.9175 218.066 92.8067 218.393 92.8067 219.524C92.8067 220.46 92.0423 221.201 90.7553 221.201C89.1719 221.201 88.4777 220.328 88.2671 219.556H89.0705C89.2187 219.93 89.6633 220.507 90.7553 220.507C91.5353 220.507 92.0501 220.133 92.0501 219.563C92.0501 218.939 91.5587 218.752 90.9425 218.651L90.2093 218.542C89.2109 218.393 88.4621 218.011 88.4621 216.989C88.4621 216.053 89.2889 215.468 90.4355 215.468C91.8707 215.468 92.5103 216.233 92.6819 216.904H91.9019C91.7225 216.576 91.3169 216.163 90.4355 216.163ZM96.639 220.445V221.1H95.8122C94.962 221.1 94.533 220.679 94.533 219.844V217.886H93.5268V217.247H94.533V215.562H95.2428V217.247H96.639V217.886H95.2428V219.696C95.2428 220.226 95.4066 220.445 95.9916 220.445H96.639ZM99.3102 217.153C100.402 217.153 101.12 218.027 101.12 219.173C101.12 220.32 100.402 221.194 99.3102 221.194C98.2182 221.194 97.5006 220.32 97.5006 219.173C97.5006 218.027 98.2182 217.153 99.3102 217.153ZM99.3102 220.538C100.012 220.538 100.387 219.93 100.387 219.173C100.387 218.417 100.012 217.808 99.3102 217.808C98.6082 217.808 98.2338 218.417 98.2338 219.173C98.2338 219.93 98.6004 220.538 99.3102 220.538ZM103.015 218.924V221.1H102.305V217.247H103.015V217.941C103.117 217.652 103.46 217.216 104.326 217.216H105.067V217.925H104.263C103.366 217.925 103.015 218.245 103.015 218.924ZM107.505 217.145C108.55 217.145 109.252 217.941 109.252 219.166V219.275H106.468C106.507 219.992 106.889 220.546 107.575 220.546C108.262 220.546 108.488 220.172 108.55 220.07H109.229C109.143 220.382 108.784 221.194 107.575 221.194C106.452 221.194 105.75 220.304 105.75 219.173C105.75 217.996 106.436 217.145 107.505 217.145ZM107.505 217.754C106.92 217.754 106.592 218.12 106.491 218.713H108.503C108.386 218.097 108.059 217.754 107.505 217.754Z" fill="#535146"/>
<rect x="119.3" y="215.1" width="16.8" height="6" rx="0.6" fill="#59B8A5"/>
<path d="M147.336 221.1V215.562H151.314V216.264H148.085V217.808H149.988V218.51H148.085V220.398H151.602V221.1H147.336ZM152.442 219.134V218.464H155.001V219.134H152.442ZM159.502 218.393H158.808C158.745 218.237 158.496 217.801 157.879 217.801C157.263 217.801 156.858 218.393 156.858 219.173C156.858 219.946 157.263 220.546 157.887 220.546C158.535 220.546 158.753 220.094 158.815 219.953H159.502C159.463 220.203 159.112 221.194 157.887 221.194C156.881 221.194 156.124 220.336 156.124 219.173C156.124 218.003 156.873 217.145 157.879 217.145C159.112 217.145 159.439 218.113 159.502 218.393ZM162.124 217.153C163.216 217.153 163.933 218.027 163.933 219.173C163.933 220.32 163.216 221.194 162.124 221.194C161.032 221.194 160.314 220.32 160.314 219.173C160.314 218.027 161.032 217.153 162.124 217.153ZM162.124 220.538C162.826 220.538 163.2 219.93 163.2 219.173C163.2 218.417 162.826 217.808 162.124 217.808C161.422 217.808 161.047 218.417 161.047 219.173C161.047 219.93 161.414 220.538 162.124 220.538ZM165.828 218.885V221.1H165.119V217.247H165.828V217.847C165.953 217.567 166.296 217.161 166.936 217.161C167.583 217.161 168.036 217.481 168.262 217.98C168.402 217.652 168.761 217.161 169.502 217.161C170.454 217.161 171.008 217.84 171.008 218.752V221.1H170.29V218.885C170.29 218.237 169.986 217.816 169.362 217.816C168.746 217.816 168.418 218.261 168.418 218.885V221.1H167.7V218.885C167.7 218.237 167.381 217.816 166.764 217.816C166.148 217.816 165.828 218.261 165.828 218.885ZM173.118 218.885V221.1H172.408V217.247H173.118V217.847C173.243 217.567 173.586 217.161 174.226 217.161C174.873 217.161 175.325 217.481 175.552 217.98C175.692 217.652 176.051 217.161 176.792 217.161C177.743 217.161 178.297 217.84 178.297 218.752V221.1H177.58V218.885C177.58 218.237 177.275 217.816 176.651 217.816C176.035 217.816 175.708 218.261 175.708 218.885V221.1H174.99V218.885C174.99 218.237 174.67 217.816 174.054 217.816C173.438 217.816 173.118 218.261 173.118 218.885ZM181.203 217.145C182.248 217.145 182.95 217.941 182.95 219.166V219.275H180.166C180.205 219.992 180.587 220.546 181.273 220.546C181.96 220.546 182.186 220.172 182.248 220.07H182.927C182.841 220.382 182.482 221.194 181.273 221.194C180.15 221.194 179.448 220.304 179.448 219.173C179.448 217.996 180.135 217.145 181.203 217.145ZM181.203 217.754C180.618 217.754 180.291 218.12 180.189 218.713H182.202C182.085 218.097 181.757 217.754 181.203 217.754ZM184.826 218.924V221.1H184.116V217.247H184.826V217.941C184.927 217.652 185.27 217.216 186.136 217.216H186.877V217.925H186.074C185.177 217.925 184.826 218.245 184.826 218.924ZM190.938 218.393H190.244C190.181 218.237 189.932 217.801 189.316 217.801C188.699 217.801 188.294 218.393 188.294 219.173C188.294 219.946 188.699 220.546 189.323 220.546C189.971 220.546 190.189 220.094 190.252 219.953H190.938C190.899 220.203 190.548 221.194 189.323 221.194C188.317 221.194 187.561 220.336 187.561 219.173C187.561 218.003 188.309 217.145 189.316 217.145C190.548 217.145 190.876 218.113 190.938 218.393ZM193.505 217.145C194.55 217.145 195.252 217.941 195.252 219.166V219.275H192.468C192.507 219.992 192.889 220.546 193.575 220.546C194.262 220.546 194.488 220.172 194.55 220.07H195.229C195.143 220.382 194.784 221.194 193.575 221.194C192.452 221.194 191.75 220.304 191.75 219.173C191.75 217.996 192.436 217.145 193.505 217.145ZM193.505 217.754C192.92 217.754 192.592 218.12 192.491 218.713H194.503C194.386 218.097 194.059 217.754 193.505 217.754Z" fill="#535146"/>
<rect x="205.3" y="215.1" width="16.8" height="6" rx="0.6" fill="#EDC827"/>
<path d="M232.857 221.1V215.562H234.706C236.429 215.562 237.529 216.646 237.529 218.331C237.529 219.985 236.453 221.1 234.706 221.1H232.857ZM234.706 216.256H233.614V220.406H234.706C235.977 220.406 236.749 219.595 236.749 218.331C236.749 217.021 235.977 216.256 234.706 216.256ZM238.787 216.506V215.39H239.528V216.506H238.787ZM238.803 221.1V217.247H239.513V221.1H238.803ZM242.596 219.501L242.043 219.439C241.286 219.353 240.756 218.994 240.756 218.284C240.756 217.598 241.364 217.138 242.238 217.138C243.501 217.138 243.829 217.863 243.93 218.175H243.228C243.166 218.097 242.893 217.754 242.238 217.754C241.707 217.754 241.45 217.972 241.45 218.253C241.45 218.542 241.676 218.705 242.136 218.76L242.674 218.822C243.587 218.939 243.993 219.337 243.993 220.031C243.993 220.702 243.462 221.209 242.472 221.209C241.169 221.209 240.709 220.414 240.646 220.063H241.372C241.434 220.164 241.684 220.577 242.472 220.577C243.025 220.577 243.283 220.367 243.283 220.063C243.283 219.727 243.103 219.556 242.596 219.501ZM247.761 220.445V221.1H246.935C246.084 221.1 245.655 220.679 245.655 219.844V217.886H244.649V217.247H245.655V215.562H246.365V217.247H247.761V217.886H246.365V219.696C246.365 220.226 246.529 220.445 247.114 220.445H247.761ZM249.582 218.924V221.1H248.873V217.247H249.582V217.941C249.684 217.652 250.027 217.216 250.893 217.216H251.634V217.925H250.83C249.933 217.925 249.582 218.245 249.582 218.924ZM252.597 216.506V215.39H253.338V216.506H252.597ZM252.613 221.1V217.247H253.323V221.1H252.613ZM255.47 220.499V221.1H254.768V215.359H255.47V217.879C255.556 217.684 255.907 217.145 256.672 217.145C257.576 217.145 258.333 217.894 258.333 219.173C258.333 220.445 257.576 221.194 256.672 221.194C255.907 221.194 255.556 220.671 255.47 220.499ZM255.455 219.173C255.455 219.946 255.853 220.546 256.531 220.546C257.194 220.546 257.608 219.946 257.608 219.173C257.608 218.393 257.194 217.801 256.531 217.801C255.853 217.801 255.455 218.393 255.455 219.173ZM261.159 221.178C260.067 221.178 259.505 220.531 259.505 219.571V217.247H260.223V219.532C260.223 220.117 260.535 220.507 261.159 220.507C261.76 220.507 262.095 220.117 262.095 219.532V217.247H262.797V219.571C262.797 220.445 262.22 221.178 261.159 221.178ZM266.835 220.445V221.1H266.008C265.158 221.1 264.729 220.679 264.729 219.844V217.886H263.723V217.247H264.729V215.562H265.439V217.247H266.835V217.886H265.439V219.696C265.439 220.226 265.602 220.445 266.187 220.445H266.835ZM267.938 216.506V215.39H268.679V216.506H267.938ZM267.954 221.1V217.247H268.664V221.1H267.954ZM271.669 217.153C272.761 217.153 273.479 218.027 273.479 219.173C273.479 220.32 272.761 221.194 271.669 221.194C270.577 221.194 269.86 220.32 269.86 219.173C269.86 218.027 270.577 217.153 271.669 217.153ZM271.669 220.538C272.371 220.538 272.746 219.93 272.746 219.173C272.746 218.417 272.371 217.808 271.669 217.808C270.967 217.808 270.593 218.417 270.593 219.173C270.593 219.93 270.96 220.538 271.669 220.538ZM275.374 218.939V221.1H274.664V217.247H275.374V217.894C275.522 217.574 275.881 217.161 276.529 217.161C277.426 217.161 278.011 217.769 278.011 218.807V221.1H277.293V218.939C277.293 218.191 276.942 217.816 276.357 217.816C275.741 217.816 275.374 218.214 275.374 218.939Z" fill="#535146"/>
</g>
<defs>
<clipPath id="clip0_662_1690">
<rect y="69" width="340" height="155" rx="7.2" fill="white"/>
</clipPath>
<clipPath id="clip1_662_1690">
<path d="M29 154.5C29 153.837 29.5373 153.3 30.2 153.3H39.8C40.4627 153.3 41 153.837 41 154.5V190.5H29V154.5Z" fill="white"/>
</clipPath>
<clipPath id="clip2_662_1690">
<path d="M45.8 91.5C45.8 90.8372 46.3372 90.3 47 90.3H56.6C57.2627 90.3 57.8 90.8373 57.8 91.5V190.5H45.8V91.5Z" fill="white"/>
</clipPath>
<clipPath id="clip3_662_1690">
<path d="M62.6 140.7C62.6 140.037 63.1372 139.5 63.8 139.5H73.4C74.0627 139.5 74.6 140.037 74.6 140.7V190.5H62.6V140.7Z" fill="white"/>
</clipPath>
<clipPath id="clip4_662_1690">
<path d="M79.4 105.3C79.4 104.637 79.9372 104.1 80.6 104.1H90.2C90.8627 104.1 91.4 104.637 91.4 105.3V190.5H79.4V105.3Z" fill="white"/>
</clipPath>
<clipPath id="clip5_662_1690">
<path d="M96.2 154.5C96.2 153.837 96.7372 153.3 97.4 153.3H107C107.663 153.3 108.2 153.837 108.2 154.5V190.5H96.2V154.5Z" fill="white"/>
</clipPath>
<clipPath id="clip6_662_1690">
<path d="M113 110.1C113 109.437 113.537 108.9 114.2 108.9H123.8C124.463 108.9 125 109.437 125 110.1V190.5H113V110.1Z" fill="white"/>
</clipPath>
<clipPath id="clip7_662_1690">
<path d="M129.8 101.1C129.8 100.437 130.337 99.9 131 99.9H140.6C141.263 99.9 141.8 100.437 141.8 101.1V190.5H129.8V101.1Z" fill="white"/>
</clipPath>
<clipPath id="clip8_662_1690">
<path d="M146.6 90.9C146.6 90.2372 147.137 89.7 147.8 89.7H157.4C158.063 89.7 158.6 90.2373 158.6 90.9V190.5H146.6V90.9Z" fill="white"/>
</clipPath>
<clipPath id="clip9_662_1690">
<path d="M163.4 146.1C163.4 145.437 163.937 144.9 164.6 144.9H174.2C174.863 144.9 175.4 145.437 175.4 146.1V190.5H163.4V146.1Z" fill="white"/>
</clipPath>
<clipPath id="clip10_662_1690">
<path d="M180.2 117.3C180.2 116.637 180.737 116.1 181.4 116.1H191C191.663 116.1 192.2 116.637 192.2 117.3V190.5H180.2V117.3Z" fill="white"/>
</clipPath>
<clipPath id="clip11_662_1690">
<path d="M197 129.3C197 128.637 197.537 128.1 198.2 128.1H207.8C208.463 128.1 209 128.637 209 129.3V190.5H197V129.3Z" fill="white"/>
</clipPath>
<clipPath id="clip12_662_1690">
<path d="M213.8 143.1C213.8 142.437 214.337 141.9 215 141.9H224.6C225.263 141.9 225.8 142.437 225.8 143.1V190.5H213.8V143.1Z" fill="white"/>
</clipPath>
<clipPath id="clip13_662_1690">
<path d="M230.6 106.5C230.6 105.837 231.137 105.3 231.8 105.3H241.4C242.063 105.3 242.6 105.837 242.6 106.5V190.5H230.6V106.5Z" fill="white"/>
</clipPath>
<clipPath id="clip14_662_1690">
<path d="M247.4 126.3C247.4 125.637 247.937 125.1 248.6 125.1H258.2C258.863 125.1 259.4 125.637 259.4 126.3V190.5H247.4V126.3Z" fill="white"/>
</clipPath>
<clipPath id="clip15_662_1690">
<path d="M264.2 132.3C264.2 131.637 264.737 131.1 265.4 131.1H275C275.663 131.1 276.2 131.637 276.2 132.3V190.5H264.2V132.3Z" fill="white"/>
</clipPath>
<clipPath id="clip16_662_1690">
<path d="M281 114.3C281 113.637 281.537 113.1 282.2 113.1H291.8C292.463 113.1 293 113.637 293 114.3V190.5H281V114.3Z" fill="white"/>
</clipPath>
<clipPath id="clip17_662_1690">
<path d="M297.8 92.7C297.8 92.0372 298.337 91.5 299 91.5H308.6C309.263 91.5 309.8 92.0372 309.8 92.7V190.5H297.8V92.7Z" fill="white"/>
</clipPath>
<clipPath id="clip18_662_1690">
<path d="M314.6 101.1C314.6 100.437 315.137 99.9 315.8 99.9H325.4C326.063 99.9 326.6 100.437 326.6 101.1V190.5H314.6V101.1Z" fill="white"/>
</clipPath>
</defs>
</svg>
