<svg width="353" height="211" viewBox="0 0 353 211" fill="none" xmlns="http://www.w3.org/2000/svg">
<path d="M9.01533 9.278V11H1.48333V1.06H3.35933V9.278H9.01533ZM15.2436 11V9.964C15.1036 10.286 14.5156 11.154 13.2276 11.154C11.5336 11.154 10.2596 9.768 10.2596 7.458C10.2596 5.148 11.5336 3.762 13.2276 3.762C14.5436 3.762 15.0756 4.644 15.2296 4.938V3.916H17.0076V11H15.2436ZM15.2576 7.458C15.2576 6.212 14.6836 5.33 13.6756 5.33C12.6536 5.33 12.0796 6.212 12.0796 7.458C12.0796 8.732 12.6536 9.6 13.6756 9.6C14.6836 9.6 15.2576 8.732 15.2576 7.458ZM22.4565 11.154C20.3005 11.154 19.2225 9.908 19.2225 8.074V3.916H21.0145V7.976C21.0145 8.872 21.4905 9.488 22.4425 9.488C23.3805 9.488 23.8845 8.872 23.8845 7.976V3.916H25.6485V8.074C25.6485 9.81 24.5565 11.154 22.4565 11.154ZM29.6425 7.038V11H27.8645V3.916H29.6425V4.938C29.9085 4.448 30.5805 3.762 31.7145 3.762C33.3385 3.762 34.3885 4.882 34.3885 6.716V11H32.5965V7.038C32.5965 5.932 32.0365 5.358 31.1405 5.358C30.1885 5.358 29.6425 5.974 29.6425 7.038ZM42.6208 6.184H40.8988C40.7868 5.946 40.4648 5.302 39.5408 5.302C38.5888 5.302 38.0008 6.226 38.0008 7.458C38.0008 8.69 38.6028 9.614 39.5548 9.614C40.5068 9.614 40.8008 8.956 40.9128 8.732H42.6208C42.5508 9.474 41.8088 11.182 39.5128 11.182C37.6088 11.182 36.1808 9.656 36.1808 7.458C36.1808 5.26 37.5948 3.734 39.4988 3.734C41.7668 3.734 42.5508 5.4 42.6208 6.184ZM46.1171 7.094V11H44.3391V0.695999H46.1171V4.966C46.3831 4.462 47.0551 3.762 48.1891 3.762C49.8131 3.762 50.8631 4.924 50.8631 6.758V11H49.0711V7.094C49.0711 5.974 48.5111 5.358 47.6151 5.358C46.6631 5.358 46.1171 5.974 46.1171 7.094ZM61.8368 9.404V11H60.0728C58.4488 11 57.6928 10.23 57.6928 8.732V5.442H55.9428V3.916H57.6928V1.06H59.4848V3.916H61.8368V5.442H59.4848V8.2C59.4848 9.026 59.7508 9.404 60.6888 9.404H61.8368ZM63.6021 2.782V0.654H65.4641V2.782H63.6021ZM63.6301 11V3.916H65.4221V11H63.6301ZM69.4686 6.968V11H67.6906V3.916H69.4686V4.882C69.6926 4.434 70.3646 3.762 71.4706 3.762C72.5766 3.762 73.3606 4.294 73.7946 5.134C74.0466 4.588 74.7466 3.762 76.0906 3.762C77.7706 3.762 78.8066 4.966 78.8066 6.646V11H77.0146V6.968C77.0146 6.002 76.5386 5.358 75.5866 5.358C74.6346 5.358 74.1306 6.016 74.1306 6.968V11H72.3386V6.968C72.3386 6.002 71.8486 5.358 70.9106 5.358C69.9586 5.358 69.4686 6.016 69.4686 6.968ZM83.9747 3.734C86.0047 3.734 87.3207 5.204 87.3207 7.444V7.738H82.3787C82.4347 8.858 83.0507 9.684 84.1147 9.684C85.0807 9.684 85.4307 9.152 85.5427 8.998H87.2787C87.1667 9.726 86.3967 11.182 84.1147 11.182C81.9447 11.182 80.6007 9.6 80.6007 7.458C80.6007 5.26 81.9167 3.734 83.9747 3.734ZM83.9747 5.106C83.0787 5.106 82.5607 5.666 82.4067 6.562H85.5147C85.3467 5.624 84.8147 5.106 83.9747 5.106ZM89.1561 11V0.695999H90.9481V11H89.1561ZM93.2017 2.782V0.654H95.0637V2.782H93.2017ZM93.2297 11V3.916H95.0217V11H93.2297ZM99.0683 7.038V11H97.2903V3.916H99.0683V4.938C99.3343 4.448 100.006 3.762 101.14 3.762C102.764 3.762 103.814 4.882 103.814 6.716V11H102.022V7.038C102.022 5.932 101.462 5.358 100.566 5.358C99.6143 5.358 99.0683 5.974 99.0683 7.038ZM108.981 3.734C111.011 3.734 112.327 5.204 112.327 7.444V7.738H107.385C107.441 8.858 108.057 9.684 109.121 9.684C110.087 9.684 110.437 9.152 110.549 8.998H112.285C112.173 9.726 111.403 11.182 109.121 11.182C106.951 11.182 105.607 9.6 105.607 7.458C105.607 5.26 106.923 3.734 108.981 3.734ZM108.981 5.106C108.085 5.106 107.567 5.666 107.413 6.562H110.521C110.353 5.624 109.821 5.106 108.981 5.106Z" fill="#29261B"/>
<path d="M299.998 4.036V10.0336H299.107L295.915 5.5564V10H294.823V4.036H296.125L298.922 8.0428V4.036H299.998ZM303.12 5.6404C304.338 5.6404 305.127 6.5224 305.127 7.8664V8.0428H302.162C302.196 8.7148 302.565 9.2104 303.204 9.2104C303.783 9.2104 303.993 8.8912 304.06 8.7988H305.102C305.035 9.2356 304.573 10.1092 303.204 10.1092C301.902 10.1092 301.095 9.16 301.095 7.8748C301.095 6.556 301.885 5.6404 303.12 5.6404ZM303.12 6.4636C302.582 6.4636 302.271 6.7996 302.179 7.3372H304.044C303.943 6.7744 303.624 6.4636 303.12 6.4636ZM308.777 10L307.727 8.6644L306.652 10H305.417L307.105 7.8916L305.417 5.7496H306.786L307.786 7.0432L308.819 5.7496H310.07L308.399 7.8328L310.079 10H308.777ZM313.81 9.0424V10H312.751C311.777 10 311.323 9.538 311.323 8.6392V6.6652H310.273V5.7496H311.323V4.036H312.399V5.7496H313.81V6.6652H312.399V8.32C312.399 8.8156 312.558 9.0424 313.121 9.0424H313.81ZM318.625 8.3368L318.079 8.278C317.18 8.1856 316.525 7.7824 316.525 6.9508C316.525 6.136 317.23 5.632 318.28 5.632C319.733 5.632 320.128 6.4216 320.212 6.8164H319.154C319.112 6.7324 318.843 6.4468 318.289 6.4468C317.818 6.4468 317.583 6.6316 317.583 6.892C317.583 7.1524 317.785 7.2952 318.188 7.3372L318.692 7.3876C319.809 7.4968 320.296 7.9252 320.296 8.7652C320.296 9.5716 319.683 10.1176 318.482 10.1176C316.978 10.1176 316.491 9.2524 316.424 8.8324H317.516C317.558 8.9416 317.81 9.286 318.482 9.286C318.986 9.286 319.229 9.1012 319.229 8.824C319.229 8.53 319.087 8.3956 318.625 8.3368ZM321.245 10V3.8176H322.32V10H321.245ZM323.522 5.0692V3.7924H324.639V5.0692H323.522ZM323.539 10V5.7496H324.614V10H323.539ZM328.673 10V9.3616C328.589 9.5548 328.219 10.0924 327.413 10.0924C326.397 10.0924 325.59 9.2608 325.59 7.8748C325.59 6.472 326.397 5.6488 327.413 5.6488C328.228 5.6488 328.572 6.1864 328.665 6.3544V3.8176H329.731V10H328.673ZM328.681 7.8748C328.681 7.1356 328.295 6.5896 327.673 6.5896C327.043 6.5896 326.682 7.1356 326.682 7.8748C326.682 8.614 327.043 9.16 327.673 9.16C328.295 9.16 328.681 8.614 328.681 7.8748ZM332.706 5.6404C333.924 5.6404 334.714 6.5224 334.714 7.8664V8.0428H331.748C331.782 8.7148 332.152 9.2104 332.79 9.2104C333.37 9.2104 333.58 8.8912 333.647 8.7988H334.688C334.621 9.2356 334.159 10.1092 332.79 10.1092C331.488 10.1092 330.682 9.16 330.682 7.8748C330.682 6.556 331.471 5.6404 332.706 5.6404ZM332.706 6.4636C332.168 6.4636 331.858 6.7996 331.765 7.3372H333.63C333.529 6.7744 333.21 6.4636 332.706 6.4636Z" fill="#141413"/>
<path d="M344.102 10.352C343.996 10.4577 343.937 10.601 343.937 10.7505C343.937 10.8999 343.996 11.0432 344.102 11.1489C344.208 11.2546 344.351 11.3139 344.501 11.3139C344.65 11.3139 344.793 11.2546 344.899 11.1489L348.649 7.39891C348.701 7.34665 348.743 7.28455 348.771 7.21618C348.8 7.14781 348.814 7.0745 348.814 7.00047C348.814 6.92644 348.8 6.85313 348.771 6.78476C348.743 6.71638 348.701 6.65429 348.649 6.60203L344.899 2.85203C344.793 2.74636 344.65 2.68699 344.501 2.68699C344.351 2.68699 344.208 2.74636 344.102 2.85203C343.996 2.9577 343.937 3.10103 343.937 3.25047C343.937 3.39991 343.996 3.54323 344.102 3.64891L347.453 7L344.102 10.352Z" fill="#535146"/>
<path d="M3.2004 81.1008C1.6044 81.1008 0.6048 79.74 0.6048 78.018C0.6048 76.3044 1.6128 74.9352 3.2004 74.9352C4.83 74.9352 5.4852 76.0692 5.5944 76.7748H4.788C4.6536 76.4136 4.2084 75.6996 3.2004 75.6996C2.0496 75.6996 1.4616 76.7748 1.4616 78.018C1.4616 79.2612 2.0496 80.3364 3.2004 80.3364C4.2168 80.3364 4.6704 79.6056 4.8048 79.2444H5.5944C5.502 79.9416 4.8132 81.1008 3.2004 81.1008ZM8.43874 76.7496C9.61474 76.7496 10.3875 77.6904 10.3875 78.9252C10.3875 80.16 9.61474 81.1008 8.43874 81.1008C7.26274 81.1008 6.48994 80.16 6.48994 78.9252C6.48994 77.6904 7.26274 76.7496 8.43874 76.7496ZM8.43874 80.3952C9.19474 80.3952 9.59794 79.74 9.59794 78.9252C9.59794 78.1104 9.19474 77.4552 8.43874 77.4552C7.68274 77.4552 7.27954 78.1104 7.27954 78.9252C7.27954 79.74 7.67434 80.3952 8.43874 80.3952ZM11.531 81V74.8176H12.2954V81H11.531ZM13.7681 81V74.8176H14.5325V81H13.7681ZM18.6858 81V80.3196C18.5766 80.5632 18.2574 81.1008 17.451 81.1008C16.4598 81.1008 15.6954 80.3028 15.6954 78.9336C15.6954 77.5644 16.4598 76.758 17.451 76.758C18.2658 76.758 18.5682 77.3292 18.6858 77.5392V76.8504H19.4502V81H18.6858ZM18.7026 78.9336C18.7026 78.102 18.2994 77.4636 17.5938 77.4636C16.8714 77.4636 16.485 78.102 16.485 78.9336C16.485 79.7652 16.8714 80.4036 17.5938 80.4036C18.2994 80.4036 18.7026 79.7652 18.7026 78.9336ZM21.5983 80.3532V81H20.8423V74.8176H21.5983V77.5308C21.6907 77.3208 22.0687 76.7412 22.8919 76.7412C23.8663 76.7412 24.6811 77.5476 24.6811 78.9252C24.6811 80.2944 23.8663 81.1008 22.8919 81.1008C22.0687 81.1008 21.6907 80.538 21.5983 80.3532ZM21.5815 78.9252C21.5815 79.7568 22.0099 80.4036 22.7407 80.4036C23.4547 80.4036 23.8999 79.7568 23.8999 78.9252C23.8999 78.0852 23.4547 77.4468 22.7407 77.4468C22.0099 77.4468 21.5815 78.0852 21.5815 78.9252ZM27.5075 76.7496C28.6835 76.7496 29.4563 77.6904 29.4563 78.9252C29.4563 80.16 28.6835 81.1008 27.5075 81.1008C26.3315 81.1008 25.5587 80.16 25.5587 78.9252C25.5587 77.6904 26.3315 76.7496 27.5075 76.7496ZM27.5075 80.3952C28.2635 80.3952 28.6667 79.74 28.6667 78.9252C28.6667 78.1104 28.2635 77.4552 27.5075 77.4552C26.7515 77.4552 26.3483 78.1104 26.3483 78.9252C26.3483 79.74 26.7431 80.3952 27.5075 80.3952ZM31.3474 78.6564V81H30.583V76.8504H31.3474V77.598C31.4566 77.2872 31.8262 76.8168 32.7586 76.8168H33.5566V77.5812H32.6914C31.7254 77.5812 31.3474 77.9256 31.3474 78.6564ZM37.1499 81V80.3196C37.0407 80.5632 36.7215 81.1008 35.9151 81.1008C34.9239 81.1008 34.1595 80.3028 34.1595 78.9336C34.1595 77.5644 34.9239 76.758 35.9151 76.758C36.7299 76.758 37.0323 77.3292 37.1499 77.5392V76.8504H37.9143V81H37.1499ZM37.1667 78.9336C37.1667 78.102 36.7635 77.4636 36.0579 77.4636C35.3355 77.4636 34.9491 78.102 34.9491 78.9336C34.9491 79.7652 35.3355 80.4036 36.0579 80.4036C36.7635 80.4036 37.1667 79.7652 37.1667 78.9336ZM42.1456 80.2944V81H41.2552C40.3396 81 39.8776 80.5464 39.8776 79.6476V77.5392H38.794V76.8504H39.8776V75.036H40.642V76.8504H42.1456V77.5392H40.642V79.488C40.642 80.0592 40.8184 80.2944 41.4484 80.2944H42.1456ZM43.1839 76.0524V74.8512H43.9819V76.0524H43.1839ZM43.2007 81V76.8504H43.9651V81H43.2007ZM47.052 76.7496C48.228 76.7496 49.0008 77.6904 49.0008 78.9252C49.0008 80.16 48.228 81.1008 47.052 81.1008C45.876 81.1008 45.1032 80.16 45.1032 78.9252C45.1032 77.6904 45.876 76.7496 47.052 76.7496ZM47.052 80.3952C47.808 80.3952 48.2112 79.74 48.2112 78.9252C48.2112 78.1104 47.808 77.4552 47.052 77.4552C46.296 77.4552 45.8928 78.1104 45.8928 78.9252C45.8928 79.74 46.2876 80.3952 47.052 80.3952ZM50.8919 78.6732V81H50.1275V76.8504H50.8919V77.5476C51.0515 77.2032 51.4379 76.758 52.1351 76.758C53.1011 76.758 53.7311 77.4132 53.7311 78.5304V81H52.9583V78.6732C52.9583 77.8668 52.5803 77.4636 51.9503 77.4636C51.2867 77.4636 50.8919 77.892 50.8919 78.6732Z" fill="#141413"/>
<path d="M5.1156 118L4.5276 116.564H1.6716L1.0836 118H0.2772L2.7636 112.002H3.486L5.9724 118H5.1156ZM1.9824 115.824H4.2168L3.0996 113.103L1.9824 115.824ZM7.63798 115.673V118H6.87358V113.85H7.63798V114.548C7.79758 114.203 8.18398 113.758 8.88118 113.758C9.84718 113.758 10.4772 114.413 10.4772 115.53V118H9.70438V115.673C9.70438 114.867 9.32638 114.464 8.69638 114.464C8.03278 114.464 7.63798 114.892 7.63798 115.673ZM14.5807 118V117.32C14.4715 117.563 14.1523 118.101 13.3459 118.101C12.3547 118.101 11.5903 117.303 11.5903 115.934C11.5903 114.564 12.3547 113.758 13.3459 113.758C14.1607 113.758 14.4631 114.329 14.5807 114.539V113.85H15.3451V118H14.5807ZM14.5975 115.934C14.5975 115.102 14.1943 114.464 13.4887 114.464C12.7663 114.464 12.3799 115.102 12.3799 115.934C12.3799 116.765 12.7663 117.404 13.4887 117.404C14.1943 117.404 14.5975 116.765 14.5975 115.934ZM16.7541 118V111.818H17.5185V118H16.7541ZM22.4445 113.85L20.0673 119.798H19.3029L20.0421 117.933L18.3705 113.85H19.2105L20.4369 116.933L21.6633 113.85H22.4445ZM26.1179 117.294V118H25.2275C24.3119 118 23.8499 117.546 23.8499 116.648V114.539H22.7663V113.85H23.8499V112.036H24.6143V113.85H26.1179V114.539H24.6143V116.488C24.6143 117.059 24.7907 117.294 25.4207 117.294H26.1179ZM27.1562 113.052V111.851H27.9542V113.052H27.1562ZM27.173 118V113.85H27.9374V118H27.173ZM32.7127 115.085H31.9651C31.8979 114.917 31.6291 114.447 30.9655 114.447C30.3019 114.447 29.8651 115.085 29.8651 115.925C29.8651 116.757 30.3019 117.404 30.9739 117.404C31.6711 117.404 31.9063 116.916 31.9735 116.765H32.7127C32.6707 117.034 32.2927 118.101 30.9739 118.101C29.8903 118.101 29.0755 117.177 29.0755 115.925C29.0755 114.665 29.8819 113.741 30.9655 113.741C32.2927 113.741 32.6455 114.783 32.7127 115.085ZM35.511 116.278L34.9146 116.211C34.0998 116.118 33.5286 115.732 33.5286 114.968C33.5286 114.228 34.1838 113.733 35.1246 113.733C36.4854 113.733 36.8382 114.514 36.9474 114.85H36.1914C36.1242 114.766 35.8302 114.396 35.1246 114.396C34.5534 114.396 34.2762 114.632 34.2762 114.934C34.2762 115.245 34.5198 115.421 35.0154 115.48L35.595 115.547C36.5778 115.673 37.0146 116.102 37.0146 116.849C37.0146 117.572 36.4434 118.118 35.3766 118.118C33.9738 118.118 33.4782 117.261 33.411 116.883H34.1922C34.2594 116.992 34.5282 117.437 35.3766 117.437C35.973 117.437 36.2502 117.21 36.2502 116.883C36.2502 116.522 36.057 116.337 35.511 116.278Z" fill="#141413"/>
<path d="M0.9324 155V149.036H1.7472V155H0.9324ZM4.06962 152.673V155H3.30522V150.85H4.06962V151.548C4.22922 151.203 4.61562 150.758 5.31282 150.758C6.27882 150.758 6.90882 151.413 6.90882 152.53V155H6.13602V152.673C6.13602 151.867 5.75802 151.464 5.12802 151.464C4.46442 151.464 4.06962 151.892 4.06962 152.673ZM10.9901 154.294V155H10.0997C9.18413 155 8.72213 154.546 8.72213 153.648V151.539H7.63853V150.85H8.72213V149.036H9.48653V150.85H10.9901V151.539H9.48653V153.488C9.48653 154.059 9.66293 154.294 10.2929 154.294H10.9901ZM13.6581 150.741C14.7837 150.741 15.5397 151.598 15.5397 152.917V153.034H12.5409C12.5829 153.807 12.9945 154.404 13.7337 154.404C14.4729 154.404 14.7165 154 14.7837 153.891H15.5145C15.4221 154.227 15.0357 155.101 13.7337 155.101C12.5241 155.101 11.7681 154.143 11.7681 152.925C11.7681 151.657 12.5073 150.741 13.6581 150.741ZM13.6581 151.396C13.0281 151.396 12.6753 151.791 12.5661 152.43H14.7333C14.6073 151.766 14.2545 151.396 13.6581 151.396ZM19.4335 154.908V154.345C19.3495 154.513 18.9715 155.109 18.1819 155.109C17.2075 155.109 16.3927 154.303 16.3927 152.934C16.3927 151.556 17.2075 150.75 18.1819 150.75C18.9799 150.75 19.3159 151.329 19.4335 151.539V150.85H20.1979V154.908C20.1979 156.092 19.5847 156.898 18.2743 156.898C16.9051 156.898 16.4767 156.025 16.4347 155.731H17.2411C17.2831 155.798 17.5267 156.201 18.2743 156.201C19.0555 156.201 19.4335 155.748 19.4335 154.908ZM19.4503 152.934C19.4503 152.094 19.0051 151.455 18.3247 151.455C17.6275 151.455 17.1823 152.094 17.1823 152.934C17.1823 153.765 17.6275 154.404 18.3247 154.404C19.0051 154.404 19.4503 153.765 19.4503 152.934ZM22.3614 152.656V155H21.597V150.85H22.3614V151.598C22.4706 151.287 22.8402 150.817 23.7726 150.817H24.5706V151.581H23.7054C22.7394 151.581 22.3614 151.926 22.3614 152.656ZM28.1639 155V154.32C28.0547 154.563 27.7355 155.101 26.9291 155.101C25.9379 155.101 25.1735 154.303 25.1735 152.934C25.1735 151.564 25.9379 150.758 26.9291 150.758C27.7439 150.758 28.0463 151.329 28.1639 151.539V150.85H28.9283V155H28.1639ZM28.1807 152.934C28.1807 152.102 27.7775 151.464 27.0719 151.464C26.3495 151.464 25.9631 152.102 25.9631 152.934C25.9631 153.765 26.3495 154.404 27.0719 154.404C27.7775 154.404 28.1807 153.765 28.1807 152.934ZM33.1597 154.294V155H32.2693C31.3537 155 30.8917 154.546 30.8917 153.648V151.539H29.8081V150.85H30.8917V149.036H31.6561V150.85H33.1597V151.539H31.6561V153.488C31.6561 154.059 31.8325 154.294 32.4625 154.294H33.1597ZM34.198 150.052V148.851H34.996V150.052H34.198ZM34.2148 155V150.85H34.9792V155H34.2148ZM38.0661 150.75C39.2421 150.75 40.0149 151.69 40.0149 152.925C40.0149 154.16 39.2421 155.101 38.0661 155.101C36.8901 155.101 36.1173 154.16 36.1173 152.925C36.1173 151.69 36.8901 150.75 38.0661 150.75ZM38.0661 154.395C38.8221 154.395 39.2253 153.74 39.2253 152.925C39.2253 152.11 38.8221 151.455 38.0661 151.455C37.3101 151.455 36.9069 152.11 36.9069 152.925C36.9069 153.74 37.3017 154.395 38.0661 154.395ZM41.906 152.673V155H41.1416V150.85H41.906V151.548C42.0656 151.203 42.452 150.758 43.1492 150.758C44.1152 150.758 44.7452 151.413 44.7452 152.53V155H43.9724V152.673C43.9724 151.867 43.5944 151.464 42.9644 151.464C42.3008 151.464 41.906 151.892 41.906 152.673Z" fill="#141413"/>
<path d="M2.1756 186.036L4.0152 190.79L5.8464 186.036H7.0644V192H6.2916V186.809L4.2588 192.034H3.696L1.68 186.859V192H0.924V186.036H2.1756ZM11.351 192V191.32C11.2418 191.563 10.9226 192.101 10.1162 192.101C9.12504 192.101 8.36064 191.303 8.36064 189.934C8.36064 188.564 9.12504 187.758 10.1162 187.758C10.931 187.758 11.2334 188.329 11.351 188.539V187.85H12.1154V192H11.351ZM11.3678 189.934C11.3678 189.102 10.9646 188.464 10.259 188.464C9.53664 188.464 9.15024 189.102 9.15024 189.934C9.15024 190.765 9.53664 191.404 10.259 191.404C10.9646 191.404 11.3678 190.765 11.3678 189.934ZM14.272 189.673V192H13.5076V187.85H14.272V188.548C14.4316 188.203 14.818 187.758 15.5152 187.758C16.4812 187.758 17.1112 188.413 17.1112 189.53V192H16.3384V189.673C16.3384 188.867 15.9604 188.464 15.3304 188.464C14.6668 188.464 14.272 188.892 14.272 189.673ZM21.2147 192V191.32C21.1055 191.563 20.7863 192.101 19.9799 192.101C18.9887 192.101 18.2243 191.303 18.2243 189.934C18.2243 188.564 18.9887 187.758 19.9799 187.758C20.7947 187.758 21.0971 188.329 21.2147 188.539V187.85H21.9791V192H21.2147ZM21.2315 189.934C21.2315 189.102 20.8283 188.464 20.1227 188.464C19.4003 188.464 19.0139 189.102 19.0139 189.934C19.0139 190.765 19.4003 191.404 20.1227 191.404C20.8283 191.404 21.2315 190.765 21.2315 189.934ZM26.16 191.908V191.345C26.076 191.513 25.698 192.109 24.9084 192.109C23.934 192.109 23.1192 191.303 23.1192 189.934C23.1192 188.556 23.934 187.75 24.9084 187.75C25.7064 187.75 26.0424 188.329 26.16 188.539V187.85H26.9244V191.908C26.9244 193.092 26.3112 193.898 25.0008 193.898C23.6316 193.898 23.2032 193.025 23.1612 192.731H23.9676C24.0096 192.798 24.2532 193.201 25.0008 193.201C25.782 193.201 26.16 192.748 26.16 191.908ZM26.1768 189.934C26.1768 189.094 25.7316 188.455 25.0512 188.455C24.354 188.455 23.9088 189.094 23.9088 189.934C23.9088 190.765 24.354 191.404 25.0512 191.404C25.7316 191.404 26.1768 190.765 26.1768 189.934ZM29.9448 187.741C31.0704 187.741 31.8264 188.598 31.8264 189.917V190.034H28.8276C28.8696 190.807 29.2812 191.404 30.0204 191.404C30.7596 191.404 31.0032 191 31.0704 190.891H31.8012C31.7088 191.227 31.3224 192.101 30.0204 192.101C28.8108 192.101 28.0548 191.143 28.0548 189.925C28.0548 188.657 28.794 187.741 29.9448 187.741ZM29.9448 188.396C29.3148 188.396 28.962 188.791 28.8528 189.43H31.02C30.894 188.766 30.5412 188.396 29.9448 188.396ZM33.6958 189.614V192H32.9314V187.85H33.6958V188.497C33.8302 188.195 34.1998 187.758 34.8886 187.758C35.5858 187.758 36.073 188.102 36.3166 188.64C36.4678 188.287 36.8542 187.758 37.6522 187.758C38.677 187.758 39.2734 188.489 39.2734 189.472V192H38.5006V189.614C38.5006 188.917 38.173 188.464 37.501 188.464C36.8374 188.464 36.4846 188.942 36.4846 189.614V192H35.7118V189.614C35.7118 188.917 35.3674 188.464 34.7038 188.464C34.0402 188.464 33.6958 188.942 33.6958 189.614ZM42.253 187.741C43.3786 187.741 44.1346 188.598 44.1346 189.917V190.034H41.1358C41.1778 190.807 41.5894 191.404 42.3286 191.404C43.0678 191.404 43.3114 191 43.3786 190.891H44.1094C44.017 191.227 43.6306 192.101 42.3286 192.101C41.119 192.101 40.363 191.143 40.363 189.925C40.363 188.657 41.1022 187.741 42.253 187.741ZM42.253 188.396C41.623 188.396 41.2702 188.791 41.161 189.43H43.3282C43.2022 188.766 42.8494 188.396 42.253 188.396ZM46.004 189.673V192H45.2396V187.85H46.004V188.548C46.1636 188.203 46.55 187.758 47.2472 187.758C48.2132 187.758 48.8432 188.413 48.8432 189.53V192H48.0704V189.673C48.0704 188.867 47.6924 188.464 47.0624 188.464C46.3988 188.464 46.004 188.892 46.004 189.673ZM52.9245 191.294V192H52.0341C51.1185 192 50.6565 191.546 50.6565 190.648V188.539H49.5729V187.85H50.6565V186.036H51.4209V187.85H52.9245V188.539H51.4209V190.488C51.4209 191.059 51.5973 191.294 52.2273 191.294H52.9245Z" fill="#141413"/>
<rect x="68" y="32" width="71" height="23" fill="#E6E4DD"/>
<path d="M103.964 44.018C103.964 45.3368 103.368 46.4288 102.368 46.874L103.779 48.2768H102.704L101.478 47.0924C101.419 47.1008 101.352 47.1008 101.284 47.1008C99.6296 47.1008 98.6048 45.7988 98.6048 44.018C98.6048 42.2624 99.6464 40.9352 101.284 40.9352C102.922 40.9352 103.964 42.2624 103.964 44.018ZM101.284 46.3448C102.469 46.3448 103.124 45.32 103.124 44.018C103.124 42.7412 102.469 41.6912 101.284 41.6912C100.1 41.6912 99.4448 42.716 99.4448 44.018C99.4448 45.3368 100.1 46.3448 101.284 46.3448ZM107.093 41.0108V47H106.278V41.96L104.8 42.8168V42.044L106.488 41.0108H107.093Z" fill="#141413"/>
<rect x="139" y="32" width="71" height="23" fill="#E6E4DD"/>
<path d="M174.964 44.018C174.964 45.3368 174.368 46.4288 173.368 46.874L174.779 48.2768H173.704L172.478 47.0924C172.419 47.1008 172.352 47.1008 172.284 47.1008C170.63 47.1008 169.605 45.7988 169.605 44.018C169.605 42.2624 170.646 40.9352 172.284 40.9352C173.922 40.9352 174.964 42.2624 174.964 44.018ZM172.284 46.3448C173.469 46.3448 174.124 45.32 174.124 44.018C174.124 42.7412 173.469 41.6912 172.284 41.6912C171.1 41.6912 170.445 42.716 170.445 44.018C170.445 45.3368 171.1 46.3448 172.284 46.3448ZM180.242 46.2608V47H176.051V46.496L178.067 44.5052C178.714 43.8584 179.083 43.4216 179.083 42.7748C179.083 42.1112 178.672 41.6744 177.974 41.6744C177.277 41.6744 176.866 42.1616 176.866 42.842V43.2284H176.068V42.8336C176.068 41.7332 176.79 40.9352 177.974 40.9352C179.159 40.9352 179.898 41.7248 179.898 42.7748C179.898 43.7156 179.327 44.312 178.596 45.026L177.336 46.2608H180.242Z" fill="#141413"/>
<rect x="210" y="32" width="71" height="23" fill="#E6E4DD"/>
<path d="M245.964 44.018C245.964 45.3368 245.368 46.4288 244.368 46.874L245.779 48.2768H244.704L243.478 47.0924C243.419 47.1008 243.352 47.1008 243.284 47.1008C241.63 47.1008 240.605 45.7988 240.605 44.018C240.605 42.2624 241.646 40.9352 243.284 40.9352C244.922 40.9352 245.964 42.2624 245.964 44.018ZM243.284 46.3448C244.469 46.3448 245.124 45.32 245.124 44.018C245.124 42.7412 244.469 41.6912 243.284 41.6912C242.1 41.6912 241.445 42.716 241.445 44.018C241.445 45.3368 242.1 46.3448 243.284 46.3448ZM251.127 45.3704C251.127 46.4036 250.345 47.1008 249.001 47.1008C247.59 47.1008 246.952 46.2356 246.885 45.4208H247.699C247.783 45.8828 248.187 46.3616 249.001 46.3616C249.799 46.3616 250.303 45.9836 250.303 45.32C250.303 44.648 249.858 44.2868 249.085 44.2868H248.035V43.5476H249.111C249.749 43.5476 250.127 43.2116 250.127 42.6068C250.127 42.0104 249.657 41.666 248.985 41.666C248.279 41.666 247.943 42.0608 247.851 42.5648H247.044C247.086 41.8004 247.674 40.9352 248.976 40.9352C250.228 40.9352 250.933 41.624 250.933 42.5732C250.933 43.3124 250.463 43.7072 250.102 43.8668C250.547 44.0012 251.127 44.4212 251.127 45.3704Z" fill="#141413"/>
<rect x="281" y="32" width="71" height="23" fill="#E6E4DD"/>
<path d="M315.964 44.018C315.964 45.3368 315.368 46.4288 314.368 46.874L315.779 48.2768H314.704L313.478 47.0924C313.419 47.1008 313.352 47.1008 313.284 47.1008C311.63 47.1008 310.605 45.7988 310.605 44.018C310.605 42.2624 311.646 40.9352 313.284 40.9352C314.922 40.9352 315.964 42.2624 315.964 44.018ZM313.284 46.3448C314.469 46.3448 315.124 45.32 315.124 44.018C315.124 42.7412 314.469 41.6912 313.284 41.6912C312.1 41.6912 311.445 42.716 311.445 44.018C311.445 45.3368 312.1 46.3448 313.284 46.3448ZM321.881 45.1604H320.612V47H319.823V45.1604H316.799V44.7152L319.722 41.036H320.612V44.4548H321.881V45.1604ZM317.874 44.4548H319.823V41.9768L317.874 44.4548Z" fill="#141413"/>
<line x1="68.25" y1="32" x2="68.25" y2="211" stroke="#C4C3BB" stroke-width="0.5"/>
<line x1="352.25" y1="32" x2="352.25" y2="211" stroke="#C4C3BB" stroke-width="0.5"/>
<line x1="281.25" y1="32" x2="281.25" y2="211" stroke="#C4C3BB" stroke-width="0.5"/>
<line x1="210.25" y1="32" x2="210.25" y2="211" stroke="#C4C3BB" stroke-width="0.5"/>
<line x1="139.25" y1="32" x2="139.25" y2="211" stroke="#C4C3BB" stroke-width="0.5"/>
<rect x="74" y="66" width="39" height="23" rx="6" fill="#A09FE2"/>
<rect x="74" y="140" width="244" height="23" rx="6" fill="#678CAB"/>
<rect x="181" y="177" width="148" height="23" rx="6" fill="#CAD872"/>
<rect x="100" y="103" width="81" height="23" rx="6" fill="#74B49B"/>
<rect x="189" y="103" width="101" height="23" rx="6" fill="#74B49B"/>
<rect x="298" y="103" width="47" height="23" rx="6" fill="#74B49B"/>
<rect x="121" y="66" width="78" height="23" rx="6" fill="#A09FE2"/>
</svg>
