<svg width="175" height="120" viewBox="0 0 175 120" fill="none" xmlns="http://www.w3.org/2000/svg">
<rect width="36" height="36" rx="18" fill="#A09FE2" fill-opacity="0.2"/>
<path d="M23.6769 16.4856L18.6769 11.7681C18.6744 11.766 18.6721 11.7637 18.67 11.7612C18.4859 11.5938 18.246 11.5011 17.9972 11.5011C17.7484 11.5011 17.5085 11.5938 17.3244 11.7612L17.3175 11.7681L12.3231 16.4856C12.2212 16.5793 12.1399 16.6931 12.0843 16.8198C12.0287 16.9466 12 17.0835 12 17.2219V23C12 23.2652 12.1054 23.5196 12.2929 23.7071C12.4804 23.8946 12.7348 24 13 24H16C16.2652 24 16.5196 23.8946 16.7071 23.7071C16.8946 23.5196 17 23.2652 17 23V20H19V23C19 23.2652 19.1054 23.5196 19.2929 23.7071C19.4804 23.8946 19.7348 24 20 24H23C23.2652 24 23.5196 23.8946 23.7071 23.7071C23.8946 23.5196 24 23.2652 24 23V17.2219C24 17.0835 23.9713 16.9466 23.9157 16.8198C23.8601 16.6931 23.7788 16.5793 23.6769 16.4856ZM23 23H20V20C20 19.7348 19.8946 19.4804 19.7071 19.2929C19.5196 19.1054 19.2652 19 19 19H17C16.7348 19 16.4804 19.1054 16.2929 19.2929C16.1054 19.4804 16 19.7348 16 20V23H13V17.2219L13.0069 17.2156L18 12.5L22.9937 17.2144L23.0006 17.2206L23 23Z" fill="#A09FE2"/>
<path d="M23.6769 16.4856L18.6769 11.7681C18.6744 11.766 18.6721 11.7637 18.67 11.7612C18.4859 11.5938 18.246 11.5011 17.9972 11.5011C17.7484 11.5011 17.5085 11.5938 17.3244 11.7612L17.3175 11.7681L12.3231 16.4856C12.2212 16.5793 12.1399 16.6931 12.0843 16.8198C12.0287 16.9466 12 17.0835 12 17.2219V23C12 23.2652 12.1054 23.5196 12.2929 23.7071C12.4804 23.8946 12.7348 24 13 24H16C16.2652 24 16.5196 23.8946 16.7071 23.7071C16.8946 23.5196 17 23.2652 17 23V20H19V23C19 23.2652 19.1054 23.5196 19.2929 23.7071C19.4804 23.8946 19.7348 24 20 24H23C23.2652 24 23.5196 23.8946 23.7071 23.7071C23.8946 23.5196 24 23.2652 24 23V17.2219C24 17.0835 23.9713 16.9466 23.9157 16.8198C23.8601 16.6931 23.7788 16.5793 23.6769 16.4856ZM23 23H20V20C20 19.7348 19.8946 19.4804 19.7071 19.2929C19.5196 19.1054 19.2652 19 19 19H17C16.7348 19 16.4804 19.1054 16.2929 19.2929C16.1054 19.4804 16 19.7348 16 20V23H13V17.2219L13.0069 17.2156L18 12.5L22.9937 17.2144L23.0006 17.2206L23 23Z" fill="black" fill-opacity="0.2"/>
<path d="M0.74 54.2V51.8H13.74V54.2H8.58V66H5.9V54.2H0.74ZM18.7111 55.62C21.6111 55.62 23.4911 57.72 23.4911 60.92V61.34H16.4311C16.5111 62.94 17.3911 64.12 18.9111 64.12C20.2911 64.12 20.7911 63.36 20.9511 63.14H23.4311C23.2711 64.18 22.1711 66.26 18.9111 66.26C15.8111 66.26 13.8911 64 13.8911 60.94C13.8911 57.8 15.7711 55.62 18.7111 55.62ZM18.7111 57.58C17.4311 57.58 16.6911 58.38 16.4711 59.66H20.9111C20.6711 58.32 19.9111 57.58 18.7111 57.58ZM32.6331 66V64.52C32.4331 64.98 31.5931 66.22 29.7531 66.22C27.3331 66.22 25.5131 64.24 25.5131 60.94C25.5131 57.64 27.3331 55.66 29.7531 55.66C31.6331 55.66 32.3931 56.92 32.6131 57.34V55.88H35.1531V66H32.6331ZM32.6531 60.94C32.6531 59.16 31.8331 57.9 30.3931 57.9C28.9331 57.9 28.1131 59.16 28.1131 60.94C28.1131 62.76 28.9331 64 30.3931 64C31.8331 64 32.6531 62.76 32.6531 60.94ZM40.9373 60.24V66H38.3973V55.88H40.9373V57.26C41.2573 56.62 42.2173 55.66 43.7973 55.66C45.3773 55.66 46.4973 56.42 47.1173 57.62C47.4773 56.84 48.4773 55.66 50.3973 55.66C52.7973 55.66 54.2773 57.38 54.2773 59.78V66H51.7173V60.24C51.7173 58.86 51.0373 57.94 49.6773 57.94C48.3173 57.94 47.5973 58.88 47.5973 60.24V66H45.0373V60.24C45.0373 58.86 44.3373 57.94 42.9973 57.94C41.6373 57.94 40.9373 58.88 40.9373 60.24ZM62.9366 66V51.8H70.1966C73.0566 51.8 74.5766 53.28 74.5766 55.6C74.5766 57.16 73.4566 58.22 72.3566 58.54C73.7166 58.92 74.9166 60.06 74.9166 61.94C74.9166 64.42 73.2166 66 69.9366 66H62.9366ZM69.8566 54.08H65.5766V57.56H69.8766C71.0766 57.56 71.8166 56.96 71.8166 55.82C71.8166 54.62 71.0766 54.08 69.8566 54.08ZM69.5966 59.82H65.5766V63.72H69.5966C71.3366 63.72 72.1566 63.02 72.1566 61.76C72.1566 60.5 71.3366 59.82 69.5966 59.82ZM82.2928 66.22C79.2128 66.22 77.6728 64.44 77.6728 61.82V55.88H80.2328V61.68C80.2328 62.96 80.9128 63.84 82.2728 63.84C83.6128 63.84 84.3328 62.96 84.3328 61.68V55.88H86.8528V61.82C86.8528 64.3 85.2928 66.22 82.2928 66.22ZM96.7984 66V64.48C96.5984 64.94 95.7184 66.22 93.7984 66.22C91.3784 66.22 89.4584 64.24 89.4584 60.94C89.4584 57.6 91.3784 55.64 93.7984 55.64C95.7384 55.64 96.5584 56.92 96.7784 57.32V51.28H99.3184V66H96.7984ZM96.8184 60.94C96.8184 59.18 95.8984 57.88 94.4184 57.88C92.9184 57.88 92.0584 59.18 92.0584 60.94C92.0584 62.7 92.9184 64 94.4184 64C95.8984 64 96.8184 62.7 96.8184 60.94ZM109.198 65.72V64.42C108.978 64.74 108.138 66.18 106.258 66.18C103.918 66.18 101.978 64.2 101.978 60.92C101.978 57.62 103.918 55.66 106.258 55.66C108.118 55.66 108.958 57.02 109.178 57.4V55.88H111.718V65.7C111.718 68.48 110.158 70.36 106.818 70.36C103.398 70.36 102.238 68.2 102.078 67.4H104.838C104.938 67.56 105.438 68.26 106.818 68.26C108.398 68.26 109.198 67.34 109.198 65.72ZM109.218 60.92C109.218 59.14 108.298 57.88 106.918 57.88C105.478 57.88 104.578 59.14 104.578 60.92C104.578 62.66 105.478 63.94 106.918 63.94C108.278 63.94 109.218 62.66 109.218 60.92ZM119.16 55.62C122.06 55.62 123.94 57.72 123.94 60.92V61.34H116.88C116.96 62.94 117.84 64.12 119.36 64.12C120.74 64.12 121.24 63.36 121.4 63.14H123.88C123.72 64.18 122.62 66.26 119.36 66.26C116.26 66.26 114.34 64 114.34 60.94C114.34 57.8 116.22 55.62 119.16 55.62ZM119.16 57.58C117.88 57.58 117.14 58.38 116.92 59.66H121.36C121.12 58.32 120.36 57.58 119.16 57.58ZM133.687 63.72V66H131.167C128.847 66 127.767 64.9 127.767 62.76V58.06H125.267V55.88H127.767V51.8H130.327V55.88H133.687V58.06H130.327V62C130.327 63.18 130.707 63.72 132.047 63.72H133.687Z" fill="#29261B"/>
<path d="M6.288 82.708C6.288 83.896 5.484 84.832 4.092 84.988V86.476H3.156V85C1.704 84.82 0.9 83.848 0.9 82.516V82.444H2.028V82.492C2.028 83.464 2.676 84.016 3.588 84.016C4.596 84.016 5.148 83.476 5.148 82.708C5.148 81.94 4.68 81.568 3.912 81.34L3.036 81.076C1.704 80.68 1.02 79.996 1.02 78.652C1.02 77.428 1.92 76.6 3.156 76.444V75.052H4.092V76.456C5.388 76.636 6.132 77.488 6.132 78.832V78.868H5.028V78.832C5.028 77.98 4.5 77.428 3.588 77.428C2.724 77.428 2.148 77.884 2.148 78.652C2.148 79.384 2.616 79.78 3.384 80.008L4.26 80.272C5.556 80.656 6.288 81.34 6.288 82.708ZM11.0596 76.444V85H9.89559V77.8L7.78359 79.024V77.92L10.1956 76.444H11.0596ZM19.4153 83.944V85H13.4273V84.28L16.3073 81.436C17.2313 80.512 17.7593 79.888 17.7593 78.964C17.7593 78.016 17.1713 77.392 16.1753 77.392C15.1793 77.392 14.5913 78.088 14.5913 79.06V79.612H13.4513V79.048C13.4513 77.476 14.4833 76.336 16.1753 76.336C17.8673 76.336 18.9233 77.464 18.9233 78.964C18.9233 80.308 18.1073 81.16 17.0633 82.18L15.2633 83.944H19.4153ZM21.6253 87.568H20.7373C21.1693 86.848 21.6133 85.972 21.6493 85H21.0013V83.296H22.3933V84.904C22.3933 85.972 21.9733 86.956 21.6253 87.568ZM24.8172 81.232V76.48H30.0492V77.536H25.9212V80.008C26.2572 79.672 26.8212 79.384 27.6492 79.384C29.1132 79.384 30.3732 80.404 30.3732 82.192V82.324C30.3732 83.98 29.1732 85.144 27.3852 85.144C25.4292 85.144 24.4932 83.944 24.3972 82.648H25.5372C25.6332 83.224 26.0532 84.088 27.3852 84.088C28.4772 84.088 29.2212 83.344 29.2212 82.324V82.204C29.2212 81.112 28.4892 80.44 27.3852 80.44C26.3172 80.44 25.9092 81.04 25.7772 81.232H24.8172ZM38.2496 82.24C38.2496 83.872 37.0976 85.144 35.1776 85.144C33.2336 85.144 32.1296 83.92 32.1296 82.24C32.1296 80.944 32.7536 80.056 33.5096 79.084L35.5016 76.48H36.8816L34.3976 79.636C34.6856 79.48 35.0576 79.384 35.5256 79.384C37.1096 79.384 38.2496 80.476 38.2496 82.24ZM37.0856 82.24C37.0856 81.184 36.4256 80.368 35.1776 80.368C34.0256 80.368 33.2936 81.184 33.2936 82.24C33.2936 83.26 33.9776 84.088 35.1776 84.088C36.4256 84.088 37.0856 83.26 37.0856 82.24ZM45.5685 77.356L41.3445 85H40.0725L44.2485 77.536H39.5925V76.48H45.5685V77.356ZM52.9103 78.928C54.5903 78.928 55.6943 80.272 55.6943 82.036C55.6943 83.8 54.5903 85.144 52.9103 85.144C51.2303 85.144 50.1263 83.8 50.1263 82.036C50.1263 80.272 51.2303 78.928 52.9103 78.928ZM52.9103 84.136C53.9903 84.136 54.5663 83.2 54.5663 82.036C54.5663 80.872 53.9903 79.936 52.9103 79.936C51.8303 79.936 51.2543 80.872 51.2543 82.036C51.2543 83.2 51.8183 84.136 52.9103 84.136ZM61.4075 80.056H59.3675V85H58.2755V80.056H56.7275V79.072H58.2755V78.136C58.2755 76.876 58.9235 76.168 60.3755 76.168H62.3795V77.152H60.4955C59.7155 77.152 59.3675 77.536 59.3675 78.292V79.072H61.4075V80.056ZM71.245 82.708C71.245 83.896 70.441 84.832 69.049 84.988V86.476H68.113V85C66.661 84.82 65.857 83.848 65.857 82.516V82.444H66.985V82.492C66.985 83.464 67.633 84.016 68.545 84.016C69.553 84.016 70.105 83.476 70.105 82.708C70.105 81.94 69.637 81.568 68.869 81.34L67.993 81.076C66.661 80.68 65.977 79.996 65.977 78.652C65.977 77.428 66.877 76.6 68.113 76.444V75.052H69.049V76.456C70.345 76.636 71.089 77.488 71.089 78.832V78.868H69.985V78.832C69.985 77.98 69.457 77.428 68.545 77.428C67.681 77.428 67.105 77.884 67.105 78.652C67.105 79.384 67.573 79.78 68.341 80.008L69.217 80.272C70.513 80.656 71.245 81.34 71.245 82.708ZM79.0286 83.944V85H73.0406V84.28L75.9206 81.436C76.8446 80.512 77.3726 79.888 77.3726 78.964C77.3726 78.016 76.7846 77.392 75.7886 77.392C74.7926 77.392 74.2046 78.088 74.2046 79.06V79.612H73.0646V79.048C73.0646 77.476 74.0966 76.336 75.7886 76.336C77.4806 76.336 78.5366 77.464 78.5366 78.964C78.5366 80.308 77.7206 81.16 76.6766 82.18L74.8766 83.944H79.0286ZM80.9266 81.232V76.48H86.1586V77.536H82.0306V80.008C82.3666 79.672 82.9306 79.384 83.7586 79.384C85.2226 79.384 86.4826 80.404 86.4826 82.192V82.324C86.4826 83.98 85.2826 85.144 83.4946 85.144C81.5386 85.144 80.6026 83.944 80.5066 82.648H81.6466C81.7426 83.224 82.1626 84.088 83.4946 84.088C84.5866 84.088 85.3306 83.344 85.3306 82.324V82.204C85.3306 81.112 84.5986 80.44 83.4946 80.44C82.4266 80.44 82.0186 81.04 81.8866 81.232H80.9266ZM89.055 87.568H88.167C88.599 86.848 89.043 85.972 89.079 85H88.431V83.296H89.823V84.904C89.823 85.972 89.403 86.956 89.055 87.568ZM95.0309 76.336C96.8309 76.336 98.0069 77.488 98.0069 79.444V82.036C98.0069 84.088 96.7949 85.144 95.0309 85.144C93.2669 85.144 92.0549 84.088 92.0549 82.036V79.444C92.0549 77.488 93.2309 76.336 95.0309 76.336ZM95.0309 84.088C96.2429 84.088 96.8549 83.212 96.8549 82.024V79.456C96.8549 78.268 96.2429 77.392 95.0309 77.392C93.8189 77.392 93.2069 78.268 93.2069 79.456V82.024C93.2069 83.212 93.8189 84.088 95.0309 84.088ZM103.34 76.336C105.14 76.336 106.316 77.488 106.316 79.444V82.036C106.316 84.088 105.104 85.144 103.34 85.144C101.576 85.144 100.364 84.088 100.364 82.036V79.444C100.364 77.488 101.54 76.336 103.34 76.336ZM103.34 84.088C104.552 84.088 105.164 83.212 105.164 82.024V79.456C105.164 78.268 104.552 77.392 103.34 77.392C102.128 77.392 101.516 78.268 101.516 79.456V82.024C101.516 83.212 102.128 84.088 103.34 84.088ZM111.648 76.336C113.448 76.336 114.624 77.488 114.624 79.444V82.036C114.624 84.088 113.412 85.144 111.648 85.144C109.884 85.144 108.672 84.088 108.672 82.036V79.444C108.672 77.488 109.848 76.336 111.648 76.336ZM111.648 84.088C112.86 84.088 113.472 83.212 113.472 82.024V79.456C113.472 78.268 112.86 77.392 111.648 77.392C110.436 77.392 109.824 78.268 109.824 79.456V82.024C109.824 83.212 110.436 84.088 111.648 84.088Z" fill="#535146"/>
<rect y="110" width="175" height="10" rx="5" fill="#A09FE2" fill-opacity="0.2"/>
<rect x="1" y="111" width="85" height="8" rx="4" fill="#A09FE2"/>
</svg>
