<svg width="254" height="152" viewBox="0 0 254 152" fill="none" xmlns="http://www.w3.org/2000/svg">
<g clip-path="url(#clip0_662_1879)">
<line x1="27.2699" y1="2.70001" x2="27.2699" y2="126.36" stroke="#F8F8F7" stroke-width="0.54"/>
<line x1="138.47" y1="2.70001" x2="138.47" y2="126.36" stroke="#676675" stroke-width="0.54"/>
<line x1="27.4999" y1="2.97001" x2="23.1799" y2="2.97001" stroke="#F8F8F7" stroke-width="0.54"/>
<line x1="27.4999" y1="33.75" x2="23.1799" y2="33.75" stroke="#F8F8F7" stroke-width="0.54"/>
<line x1="27.4999" y1="64.53" x2="23.1799" y2="64.53" stroke="#F8F8F7" stroke-width="0.54"/>
<line x1="27.4999" y1="95.31" x2="23.1799" y2="95.31" stroke="#F8F8F7" stroke-width="0.54"/>
<line x1="27.4999" y1="126.09" x2="23.1799" y2="126.09" stroke="#F8F8F7" stroke-width="0.54"/>
<line x1="27.2299" y1="125.82" x2="27.2299" y2="130.14" stroke="#F8F8F7" stroke-width="0.54"/>
<line x1="82.85" y1="125.82" x2="82.85" y2="130.14" stroke="#F8F8F7" stroke-width="0.54"/>
<line x1="138.47" y1="125.82" x2="138.47" y2="130.14" stroke="#F8F8F7" stroke-width="0.54"/>
<line x1="249.71" y1="125.82" x2="249.71" y2="130.14" stroke="#F8F8F7" stroke-width="0.54"/>
<line x1="194.09" y1="125.82" x2="194.09" y2="130.14" stroke="#F8F8F7" stroke-width="0.54"/>
<line x1="249.98" y1="64.53" x2="27.5" y2="64.53" stroke="#676675" stroke-width="0.54"/>
<line x1="249.98" y1="33.75" x2="27.5" y2="33.75" stroke="#676675" stroke-width="0.54"/>
<line x1="249.98" y1="2.97001" x2="27.5" y2="2.97001" stroke="#676675" stroke-width="0.54"/>
<line x1="249.98" y1="95.31" x2="27.5" y2="95.31" stroke="#676675" stroke-width="0.54"/>
<line x1="82.85" y1="2.70001" x2="82.85" y2="126.36" stroke="#676675" stroke-width="0.54"/>
<line x1="194.09" y1="2.70001" x2="194.09" y2="126.36" stroke="#676675" stroke-width="0.54"/>
<line x1="249.71" y1="2.70001" x2="249.71" y2="126.36" stroke="#676675" stroke-width="0.54"/>
<line x1="249.98" y1="126.09" x2="26.96" y2="126.09" stroke="#F8F8F7" stroke-width="0.54"/>
<path d="M27.2987 132.081C28.2707 132.081 28.9057 132.704 28.9057 133.76V135.159C28.9057 136.268 28.2512 136.838 27.2987 136.838C26.3461 136.838 25.6916 136.268 25.6916 135.159V133.76C25.6916 132.704 26.3267 132.081 27.2987 132.081ZM27.2987 136.268C27.9532 136.268 28.2836 135.794 28.2836 135.153V133.766C28.2836 133.125 27.9532 132.652 27.2987 132.652C26.6442 132.652 26.3137 133.125 26.3137 133.766V135.153C26.3137 135.794 26.6442 136.268 27.2987 136.268Z" fill="#F8F8F7"/>
<path d="M19.7387 123.981C20.7107 123.981 21.3457 124.603 21.3457 125.66V127.059C21.3457 128.167 20.6912 128.738 19.7387 128.738C18.7861 128.738 18.1316 128.167 18.1316 127.059V125.66C18.1316 124.603 18.7667 123.981 19.7387 123.981ZM19.7387 128.167C20.3932 128.167 20.7236 127.694 20.7236 127.053V125.666C20.7236 125.025 20.3932 124.552 19.7387 124.552C19.0842 124.552 18.7537 125.025 18.7537 125.666V127.053C18.7537 127.694 19.0842 128.167 19.7387 128.167Z" fill="#F8F8F7"/>
<path d="M18.3682 95.3052V92.7392H21.1935V93.3094H18.9644V94.6443C19.1458 94.4628 19.4504 94.3073 19.8975 94.3073C20.6881 94.3073 21.3685 94.8581 21.3685 95.8236V95.8949C21.3685 96.7892 20.7205 97.4177 19.7549 97.4177C18.6987 97.4177 18.1933 96.7697 18.1414 96.0699H18.757C18.8089 96.3809 19.0357 96.8475 19.7549 96.8475C20.3446 96.8475 20.7464 96.4457 20.7464 95.8949V95.8301C20.7464 95.2404 20.3511 94.8776 19.7549 94.8776C19.1782 94.8776 18.9579 95.2016 18.8866 95.3052H18.3682Z" fill="#F8F8F7"/>
<path d="M16.963 62.4797V67.1H16.3345V63.212L15.194 63.8729V63.2768L16.4965 62.4797H16.963ZM19.9653 62.4214C20.9373 62.4214 21.5723 63.0435 21.5723 64.0997V65.4994C21.5723 66.6075 20.9178 67.1777 19.9653 67.1777C19.0127 67.1777 18.3582 66.6075 18.3582 65.4994V64.0997C18.3582 63.0435 18.9933 62.4214 19.9653 62.4214ZM19.9653 66.6075C20.6198 66.6075 20.9502 66.1345 20.9502 65.4929V64.1062C20.9502 63.4647 20.6198 62.9917 19.9653 62.9917C19.3108 62.9917 18.9803 63.4647 18.9803 64.1062V65.4929C18.9803 66.1345 19.3108 66.6075 19.9653 66.6075Z" fill="#F8F8F7"/>
<path d="M17.0959 31.1597V35.78H16.4674V31.892L15.3269 32.5529V31.9568L16.6294 31.1597H17.0959ZM18.5948 33.7452V31.1792H21.4201V31.7494H19.191V33.0843C19.3724 32.9028 19.677 32.7473 20.1241 32.7473C20.9147 32.7473 21.5951 33.2981 21.5951 34.2636V34.3349C21.5951 35.2292 20.9471 35.8577 19.9815 35.8577C18.9253 35.8577 18.4199 35.2097 18.368 34.5099H18.9836C19.0355 34.8209 19.2623 35.2875 19.9815 35.2875C20.5712 35.2875 20.973 34.8857 20.973 34.3349V34.2701C20.973 33.6804 20.5777 33.3176 19.9815 33.3176C19.4048 33.3176 19.1845 33.6416 19.1132 33.7452H18.5948Z" fill="#F8F8F7"/>
<path d="M17.9895 4.42976V5H14.756V4.6112L16.3112 3.07544C16.8102 2.57648 17.0953 2.23952 17.0953 1.74056C17.0953 1.22864 16.7778 0.89168 16.2399 0.89168C15.7021 0.89168 15.3846 1.26752 15.3846 1.7924V2.09048H14.769V1.78592C14.769 0.93704 15.3263 0.32144 16.2399 0.32144C17.1536 0.32144 17.7239 0.93056 17.7239 1.74056C17.7239 2.46632 17.2832 2.9264 16.7195 3.4772L15.7475 4.42976H17.9895ZM20.4854 0.32144C21.4574 0.32144 22.0925 0.94352 22.0925 1.99976V3.39944C22.0925 4.50752 21.438 5.07776 20.4854 5.07776C19.5329 5.07776 18.8784 4.50752 18.8784 3.39944V1.99976C18.8784 0.94352 19.5134 0.32144 20.4854 0.32144ZM20.4854 4.50752C21.1399 4.50752 21.4704 4.03448 21.4704 3.39296V2.00624C21.4704 1.36472 21.1399 0.89168 20.4854 0.89168C19.8309 0.89168 19.5005 1.36472 19.5005 2.00624V3.39296C19.5005 4.03448 19.8309 4.50752 20.4854 4.50752Z" fill="#F8F8F7"/>
<path d="M80.1533 132.081C81.1253 132.081 81.7603 132.704 81.7603 133.76V135.159C81.7603 136.268 81.1058 136.838 80.1533 136.838C79.2007 136.838 78.5462 136.268 78.5462 135.159V133.76C78.5462 132.704 79.1813 132.081 80.1533 132.081ZM80.1533 136.268C80.8077 136.268 81.1382 135.794 81.1382 135.153V133.766C81.1382 133.125 80.8077 132.652 80.1533 132.652C79.4988 132.652 79.1683 133.125 79.1683 133.766V135.153C79.1683 135.794 79.4988 136.268 80.1533 136.268ZM82.5469 136.76V135.84H83.2985V136.76H82.5469ZM87.2707 135.516C87.2707 136.293 86.6681 136.838 85.6896 136.838H85.5146C84.5556 136.838 83.9659 136.293 83.9659 135.516C83.9659 134.868 84.4325 134.492 84.7889 134.388C84.4584 134.285 84.0566 133.974 84.0566 133.352C84.0566 132.626 84.5815 132.081 85.5341 132.081H85.7026C86.6616 132.081 87.18 132.626 87.18 133.352C87.18 133.974 86.7782 134.285 86.4478 134.388C86.8042 134.492 87.2707 134.868 87.2707 135.516ZM85.7026 132.639H85.5341C85.0157 132.639 84.6787 132.93 84.6787 133.377C84.6787 133.825 85.0157 134.116 85.5341 134.116H85.7026C86.221 134.116 86.5579 133.825 86.5579 133.377C86.5579 132.93 86.221 132.639 85.7026 132.639ZM85.7155 134.673H85.5211C84.9768 134.673 84.601 134.984 84.601 135.477C84.601 135.969 84.9768 136.28 85.5211 136.28H85.7155C86.2663 136.28 86.6357 135.969 86.6357 135.477C86.6357 134.984 86.2663 134.673 85.7155 134.673Z" fill="#F8F8F7"/>
<path d="M136.475 132.14V136.76H135.847V132.872L134.706 133.533V132.937L136.009 132.14H136.475ZM137.417 136.76V135.84H138.169V136.76H137.417ZM142.089 135.27C142.089 136.151 141.467 136.838 140.43 136.838C139.38 136.838 138.784 136.177 138.784 135.27C138.784 134.57 139.121 134.09 139.529 133.565L140.605 132.159H141.35L140.009 133.863C140.164 133.779 140.365 133.727 140.618 133.727C141.473 133.727 142.089 134.317 142.089 135.27ZM141.46 135.27C141.46 134.699 141.104 134.259 140.43 134.259C139.808 134.259 139.413 134.699 139.413 135.27C139.413 135.82 139.782 136.268 140.43 136.268C141.104 136.268 141.46 135.82 141.46 135.27Z" fill="#F8F8F7"/>
<path d="M193.051 136.19V136.76H189.818V136.371L191.373 134.835C191.872 134.336 192.157 134 192.157 133.501C192.157 132.989 191.839 132.652 191.301 132.652C190.764 132.652 190.446 133.028 190.446 133.552V133.85H189.83V133.546C189.83 132.697 190.388 132.081 191.301 132.081C192.215 132.081 192.785 132.691 192.785 133.501C192.785 134.226 192.345 134.686 191.781 135.237L190.809 136.19H193.051ZM193.486 136.76V135.84H194.238V136.76H193.486ZM198.599 135.341H197.62V136.76H197.011V135.341H194.679V134.997L196.934 132.159H197.62V134.797H198.599V135.341ZM195.508 134.797H197.011V132.885L195.508 134.797Z" fill="#F8F8F7"/>
<path d="M248.797 135.503C248.797 136.3 248.194 136.838 247.158 136.838C246.069 136.838 245.576 136.17 245.525 135.542H246.153C246.218 135.898 246.529 136.268 247.158 136.268C247.773 136.268 248.162 135.976 248.162 135.464C248.162 134.946 247.819 134.667 247.222 134.667H246.412V134.097H247.242C247.734 134.097 248.026 133.838 248.026 133.371C248.026 132.911 247.663 132.645 247.145 132.645C246.6 132.645 246.341 132.95 246.27 133.339H245.648C245.68 132.749 246.134 132.081 247.138 132.081C248.104 132.081 248.648 132.613 248.648 133.345C248.648 133.915 248.285 134.22 248.006 134.343C248.35 134.447 248.797 134.771 248.797 135.503ZM249.41 136.76V135.84H250.162V136.76H249.41ZM254.03 136.19V136.76H250.797V136.371L252.352 134.835C252.851 134.336 253.136 134 253.136 133.501C253.136 132.989 252.818 132.652 252.281 132.652C251.743 132.652 251.425 133.028 251.425 133.552V133.85H250.81V133.546C250.81 132.697 251.367 132.081 252.281 132.081C253.194 132.081 253.765 132.691 253.765 133.501C253.765 134.226 253.324 134.686 252.76 135.237L251.788 136.19H254.03Z" fill="#F8F8F7"/>
<circle cx="241.07" cy="88.8299" r="1.89" fill="#6BA1D8"/>
<circle cx="227.57" cy="83.43" r="1.89" fill="#6BA1D8"/>
<circle cx="213.53" cy="71.0101" r="1.89" fill="#6BA1D8"/>
<circle cx="185.99" cy="79.1102" r="1.89" fill="#6BA1D8"/>
<circle cx="172.49" cy="58.0502" r="1.89" fill="#6BA1D8"/>
<circle cx="155.75" cy="41.3099" r="1.89" fill="#6BA1D8"/>
<circle cx="137.93" cy="49.41" r="1.89" fill="#6BA1D8"/>
<circle cx="128.21" cy="55.35" r="1.89" fill="#6BA1D8"/>
<circle cx="116.87" cy="27.8099" r="1.89" fill="#6BA1D8"/>
<circle cx="90.9501" cy="14.85" r="1.89" fill="#6BA1D8"/>
<circle cx="62.9501" cy="30.85" r="1.89" transform="rotate(180 62.9501 30.85)" fill="#EDC827"/>
<circle cx="76.4501" cy="36.2499" r="1.89" transform="rotate(180 76.4501 36.2499)" fill="#EDC827"/>
<circle cx="90.4896" cy="48.6698" r="1.89" transform="rotate(180 90.4896 48.6698)" fill="#EDC827"/>
<circle cx="118.03" cy="40.5697" r="1.89" transform="rotate(180 118.03 40.5697)" fill="#EDC827"/>
<circle cx="131.53" cy="61.6298" r="1.89" transform="rotate(180 131.53 61.6298)" fill="#EDC827"/>
<circle cx="148.27" cy="78.37" r="1.89" transform="rotate(180 148.27 78.37)" fill="#EDC827"/>
<circle cx="166.09" cy="70.2699" r="1.89" transform="rotate(180 166.09 70.2699)" fill="#EDC827"/>
<circle cx="175.81" cy="64.33" r="1.89" transform="rotate(180 175.81 64.33)" fill="#EDC827"/>
<circle cx="187.15" cy="91.87" r="1.89" transform="rotate(180 187.15 91.87)" fill="#EDC827"/>
<circle cx="213.07" cy="104.83" r="1.89" transform="rotate(180 213.07 104.83)" fill="#EDC827"/>
<circle cx="1.89" cy="1.89" r="1.89" transform="matrix(1 0 0 -1 236.1 27.4597)" fill="#59B8A5"/>
<circle cx="1.89" cy="1.89" r="1.89" transform="matrix(1 0 0 -1 222.6 48.5198)" fill="#59B8A5"/>
<circle cx="1.89" cy="1.89" r="1.89" transform="matrix(1 0 0 -1 205.86 65.26)" fill="#59B8A5"/>
<circle cx="1.89" cy="1.89" r="1.89" transform="matrix(1 0 0 -1 188.04 57.1599)" fill="#59B8A5"/>
<circle cx="1.89" cy="1.89" r="1.89" transform="matrix(1 0 0 -1 178.32 51.22)" fill="#59B8A5"/>
<circle cx="1.89" cy="1.89" r="1.89" transform="matrix(1 0 0 -1 166.98 78.76)" fill="#59B8A5"/>
<circle cx="1.89" cy="1.89" r="1.89" transform="matrix(1 0 0 -1 141.06 91.72)" fill="#59B8A5"/>
</g>
<path d="M186.726 150V145.314H188.818C189.848 145.314 190.376 145.802 190.376 146.627C190.376 147.426 189.841 147.967 188.818 147.967H187.366V150H186.726ZM188.838 145.908H187.366V147.373H188.838C189.425 147.373 189.716 147.07 189.716 146.641C189.716 146.172 189.425 145.908 188.838 145.908ZM193.296 150V149.465C193.211 149.657 192.96 150.079 192.326 150.079C191.547 150.079 190.947 149.452 190.947 148.376C190.947 147.301 191.547 146.667 192.326 146.667C192.966 146.667 193.204 147.116 193.296 147.281V146.74H193.897V150H193.296ZM193.31 148.376C193.31 147.723 192.993 147.221 192.438 147.221C191.871 147.221 191.567 147.723 191.567 148.376C191.567 149.03 191.871 149.531 192.438 149.531C192.993 149.531 193.31 149.03 193.31 148.376ZM197.3 149.927V149.485C197.234 149.617 196.937 150.086 196.316 150.086C195.551 150.086 194.911 149.452 194.911 148.376C194.911 147.294 195.551 146.66 196.316 146.66C196.943 146.66 197.207 147.116 197.3 147.281V146.74H197.9V149.927C197.9 150.858 197.419 151.492 196.389 151.492C195.313 151.492 194.977 150.805 194.944 150.574H195.577C195.61 150.627 195.802 150.944 196.389 150.944C197.003 150.944 197.3 150.587 197.3 149.927ZM197.313 148.376C197.313 147.716 196.963 147.215 196.429 147.215C195.881 147.215 195.531 147.716 195.531 148.376C195.531 149.03 195.881 149.531 196.429 149.531C196.963 149.531 197.313 149.03 197.313 148.376ZM200.391 146.654C201.276 146.654 201.87 147.327 201.87 148.363V148.456H199.514C199.547 149.063 199.87 149.531 200.451 149.531C201.032 149.531 201.223 149.215 201.276 149.129H201.85C201.777 149.393 201.474 150.079 200.451 150.079C199.5 150.079 198.906 149.327 198.906 148.37C198.906 147.373 199.487 146.654 200.391 146.654ZM200.391 147.169C199.896 147.169 199.619 147.479 199.533 147.98H201.236C201.137 147.459 200.86 147.169 200.391 147.169ZM208.2 149.399V150H204.721V145.314H205.362V149.399H208.2ZM210.376 146.66C211.3 146.66 211.907 147.4 211.907 148.37C211.907 149.34 211.3 150.079 210.376 150.079C209.452 150.079 208.845 149.34 208.845 148.37C208.845 147.4 209.452 146.66 210.376 146.66ZM210.376 149.525C210.97 149.525 211.287 149.01 211.287 148.37C211.287 147.73 210.97 147.215 210.376 147.215C209.782 147.215 209.465 147.73 209.465 148.37C209.465 149.01 209.776 149.525 210.376 149.525ZM215.062 150V149.465C214.976 149.657 214.726 150.079 214.092 150.079C213.313 150.079 212.713 149.452 212.713 148.376C212.713 147.301 213.313 146.667 214.092 146.667C214.732 146.667 214.97 147.116 215.062 147.281V146.74H215.663V150H215.062ZM215.075 148.376C215.075 147.723 214.759 147.221 214.204 147.221C213.637 147.221 213.333 147.723 213.333 148.376C213.333 149.03 213.637 149.531 214.204 149.531C214.759 149.531 215.075 149.03 215.075 148.376ZM219.105 150V149.446C219.019 149.637 218.749 150.079 218.095 150.079C217.31 150.079 216.676 149.446 216.676 148.37C216.676 147.287 217.31 146.654 218.095 146.654C218.742 146.654 219.013 147.109 219.105 147.274V145.142H219.706V150H219.105ZM219.118 148.37C219.118 147.71 218.769 147.208 218.201 147.208C217.64 147.208 217.297 147.71 217.297 148.37C217.297 149.023 217.64 149.531 218.201 149.531C218.769 149.531 219.118 149.023 219.118 148.37ZM222.326 145.908V145.314H226.569V145.908H224.768V150H224.127V145.908H222.326ZM227.432 146.113V145.169H228.059V146.113H227.432ZM227.445 150V146.74H228.045V150H227.445ZM229.869 148.126V150H229.269V146.74H229.869V147.248C229.975 147.01 230.265 146.667 230.807 146.667C231.354 146.667 231.737 146.938 231.929 147.36C232.047 147.083 232.351 146.667 232.978 146.667C233.783 146.667 234.252 147.241 234.252 148.013V150H233.645V148.126C233.645 147.578 233.387 147.221 232.859 147.221C232.338 147.221 232.061 147.598 232.061 148.126V150H231.453V148.126C231.453 147.578 231.183 147.221 230.661 147.221C230.14 147.221 229.869 147.598 229.869 148.126ZM236.711 146.654C237.595 146.654 238.189 147.327 238.189 148.363V148.456H235.833C235.866 149.063 236.189 149.531 236.77 149.531C237.351 149.531 237.542 149.215 237.595 149.129H238.169C238.097 149.393 237.793 150.079 236.77 150.079C235.82 150.079 235.226 149.327 235.226 148.37C235.226 147.373 235.806 146.654 236.711 146.654ZM236.711 147.169C236.216 147.169 235.938 147.479 235.853 147.98H237.555C237.456 147.459 237.179 147.169 236.711 147.169ZM241.694 144.575H242.242C241.925 145.189 241.443 146.152 241.443 147.69C241.443 149.221 241.918 150.211 242.242 150.818H241.694C241.377 150.211 240.909 149.175 240.909 147.69C240.909 146.192 241.377 145.189 241.694 144.575ZM244.66 148.647L244.192 148.594C243.552 148.522 243.103 148.218 243.103 147.617C243.103 147.037 243.618 146.647 244.357 146.647C245.426 146.647 245.703 147.261 245.789 147.525H245.195C245.142 147.459 244.911 147.169 244.357 147.169C243.908 147.169 243.69 147.353 243.69 147.591C243.69 147.835 243.882 147.974 244.271 148.02L244.726 148.073C245.499 148.172 245.842 148.508 245.842 149.096C245.842 149.663 245.393 150.092 244.555 150.092C243.453 150.092 243.063 149.419 243.01 149.122H243.624C243.677 149.208 243.888 149.558 244.555 149.558C245.023 149.558 245.241 149.38 245.241 149.122C245.241 148.838 245.089 148.693 244.66 148.647ZM247.195 150.818H246.647C246.971 150.211 247.446 149.221 247.446 147.69C247.446 146.152 246.964 145.189 246.647 144.575H247.195C247.512 145.189 247.981 146.192 247.981 147.69C247.981 149.175 247.512 150.211 247.195 150.818Z" fill="white"/>
<path d="M1.8222 74.822C1.8222 75.482 2.0994 75.8516 2.5218 75.8516C2.9574 75.8516 3.1422 75.4622 3.2148 74.9606L3.3072 74.3402C3.4326 73.568 3.7098 72.8156 4.6668 72.8156C5.4588 72.8156 6.0858 73.4624 6.0858 74.5514C6.0858 75.8912 5.3466 76.4786 4.6932 76.6568L4.6932 75.977C5.01 75.8516 5.4984 75.4754 5.4984 74.5514C5.4984 73.8914 5.1816 73.4558 4.6998 73.4558C4.1718 73.4558 4.0134 73.8716 3.9276 74.393L3.8352 75.0134C3.7098 75.8582 3.3864 76.4918 2.5218 76.4918C1.7298 76.4918 1.2348 75.7922 1.2348 74.822C1.2348 73.6076 1.8816 73.0664 2.4492 72.9212L2.4492 73.5812C2.172 73.733 1.8222 74.0762 1.8222 74.822ZM2.6538 70.4655C2.6538 69.5811 3.327 68.9871 4.3632 68.9871L4.4556 68.9871L4.4556 71.3433C5.0628 71.3103 5.5314 70.9869 5.5314 70.4061C5.5314 69.8253 5.2146 69.6339 5.1288 69.5811L5.1288 69.0069C5.3928 69.0795 6.0792 69.3831 6.0792 70.4061C6.0792 71.3565 5.3268 71.9505 4.3698 71.9505C3.3732 71.9505 2.6538 71.3697 2.6538 70.4655ZM3.1686 70.4655C3.1686 70.9605 3.4788 71.2377 3.9804 71.3235L3.9804 69.6207C3.459 69.7197 3.1686 69.9969 3.1686 70.4655ZM4.647 66.615L4.5942 67.0836C4.5216 67.7238 4.218 68.1726 3.6174 68.1726C3.0366 68.1726 2.6472 67.6578 2.6472 66.9186C2.6472 65.8494 3.261 65.5722 3.525 65.4864L3.525 66.0804C3.459 66.1332 3.1686 66.3642 3.1686 66.9186C3.1686 67.3674 3.3534 67.5852 3.591 67.5852C3.8352 67.5852 3.9738 67.3938 4.02 67.0044L4.0728 66.549C4.1718 65.7768 4.5084 65.4336 5.0958 65.4336C5.6634 65.4336 6.0924 65.8824 6.0924 66.7206C6.0924 67.8228 5.4192 68.2122 5.1222 68.265L5.1222 67.6512C5.208 67.5984 5.5578 67.3872 5.5578 66.7206C5.5578 66.252 5.3796 66.0342 5.1222 66.0342C4.8384 66.0342 4.6932 66.186 4.647 66.615ZM4.647 63.0894L4.5942 63.558C4.5216 64.1982 4.218 64.647 3.6174 64.647C3.0366 64.647 2.6472 64.1322 2.6472 63.393C2.6472 62.3238 3.261 62.0466 3.525 61.9608L3.525 62.5548C3.459 62.6076 3.1686 62.8386 3.1686 63.393C3.1686 63.8418 3.3534 64.0596 3.591 64.0596C3.8352 64.0596 3.9738 63.8682 4.02 63.4788L4.0728 63.0234C4.1718 62.2512 4.5084 61.908 5.0958 61.908C5.6634 61.908 6.0924 62.3568 6.0924 63.195C6.0924 64.2972 5.4192 64.6866 5.1222 64.7394L5.1222 64.1256C5.208 64.0728 5.5578 63.8616 5.5578 63.195C5.5578 62.7264 5.3796 62.5086 5.1222 62.5086C4.8384 62.5086 4.6932 62.6604 4.647 63.0894ZM2.1126 60.9242L1.1688 60.9242L1.1688 60.2972L2.1126 60.2972L2.1126 60.9242ZM6 60.911L2.7396 60.911L2.7396 60.3104L6 60.3104L6 60.911ZM2.6604 57.7671C2.6604 56.8431 3.3996 56.2359 4.3698 56.2359C5.34 56.2359 6.0792 56.8431 6.0792 57.7671C6.0792 58.6911 5.34 59.2983 4.3698 59.2983C3.3996 59.2983 2.6604 58.6911 2.6604 57.7671ZM5.5248 57.7671C5.5248 57.1731 5.01 56.8563 4.3698 56.8563C3.7296 56.8563 3.2148 57.1731 3.2148 57.7671C3.2148 58.3611 3.7296 58.6779 4.3698 58.6779C5.01 58.6779 5.5248 58.3677 5.5248 57.7671ZM4.1718 54.6322L6 54.6322L6 55.2328L2.7396 55.2328L2.7396 54.6322L3.2874 54.6322C3.0168 54.5068 2.667 54.2032 2.667 53.6554C2.667 52.8964 3.1818 52.4014 4.0596 52.4014L6 52.4014L6 53.0086L4.1718 53.0086C3.5382 53.0086 3.2214 53.3056 3.2214 53.8006C3.2214 54.322 3.558 54.6322 4.1718 54.6322ZM6 49.3455L1.314 49.3455L1.314 47.7813C1.314 46.3227 2.2314 45.3921 3.657 45.3921C5.0562 45.3921 6 46.3029 6 47.7813L6 49.3455ZM1.9014 47.7813L1.9014 48.7053L5.4126 48.7053L5.4126 47.7813C5.4126 46.7055 4.7262 46.0521 3.657 46.0521C2.5482 46.0521 1.9014 46.7055 1.9014 47.7813ZM6.066 42.9481C6.066 43.8721 5.5182 44.3473 4.7064 44.3473L2.7396 44.3473L2.7396 43.7401L4.6734 43.7401C5.1684 43.7401 5.4984 43.4761 5.4984 42.9481C5.4984 42.4399 5.1684 42.1561 4.6734 42.1561L2.7396 42.1561L2.7396 41.5621L4.7064 41.5621C5.4456 41.5621 6.066 42.0505 6.066 42.9481ZM4.1586 39.7758L6 39.7758L6 40.3764L2.7396 40.3764L2.7396 39.7758L3.327 39.7758C3.0828 39.69 2.7132 39.3996 2.7132 38.667L2.7132 38.04L3.3138 38.04L3.3138 38.7198C3.3138 39.4788 3.5844 39.7758 4.1586 39.7758ZM6 35.0988L5.4654 35.0988C5.6568 35.1846 6.0792 35.4354 6.0792 36.069C6.0792 36.8478 5.4522 37.4484 4.3764 37.4484C3.3006 37.4484 2.667 36.8478 2.667 36.069C2.667 35.4288 3.1158 35.1912 3.2808 35.0988L2.7396 35.0988L2.7396 34.4982L6 34.4982L6 35.0988ZM4.3764 35.0856C3.723 35.0856 3.2214 35.4024 3.2214 35.9568C3.2214 36.5244 3.723 36.828 4.3764 36.828C5.0298 36.828 5.5314 36.5244 5.5314 35.9568C5.5314 35.4024 5.0298 35.0856 4.3764 35.0856ZM5.4456 31.0557L6 31.0557L6 31.7553C6 32.4747 5.6436 32.8377 4.9374 32.8377L3.2808 32.8377L3.2808 33.6891L2.7396 33.6891L2.7396 32.8377L1.314 32.8377L1.314 32.2371L2.7396 32.2371L2.7396 31.0557L3.2808 31.0557L3.2808 32.2371L4.812 32.2371C5.2608 32.2371 5.4456 32.0985 5.4456 31.6035L5.4456 31.0557ZM2.1126 30.1221L1.1688 30.1221L1.1688 29.4951L2.1126 29.4951L2.1126 30.1221ZM6 30.1089L2.7396 30.1089L2.7396 29.5083L6 29.5083L6 30.1089ZM2.6604 26.965C2.6604 26.041 3.3996 25.4338 4.3698 25.4338C5.34 25.4338 6.0792 26.041 6.0792 26.965C6.0792 27.889 5.34 28.4962 4.3698 28.4962C3.3996 28.4962 2.6604 27.889 2.6604 26.965ZM5.5248 26.965C5.5248 26.371 5.01 26.0542 4.3698 26.0542C3.7296 26.0542 3.2148 26.371 3.2148 26.965C3.2148 27.559 3.7296 27.8758 4.3698 27.8758C5.01 27.8758 5.5248 27.5656 5.5248 26.965ZM4.1718 23.8301L6 23.8301L6 24.4307L2.7396 24.4307L2.7396 23.8301L3.2874 23.8301C3.0168 23.7047 2.667 23.4011 2.667 22.8533C2.667 22.0943 3.1818 21.5993 4.0596 21.5993L6 21.5993L6 22.2065L4.1718 22.2065C3.5382 22.2065 3.2214 22.5035 3.2214 22.9985C3.2214 23.5199 3.558 23.8301 4.1718 23.8301ZM0.574797 17.8899L0.574797 17.3421C1.1886 17.6589 2.1522 18.1407 3.69 18.1407C5.2212 18.1407 6.2112 17.6655 6.8184 17.3421L6.8184 17.8899C6.2112 18.2067 5.175 18.6753 3.69 18.6753C2.1918 18.6753 1.1886 18.2067 0.574797 17.8899ZM4.1256 15.709L6 15.709L6 16.3096L2.7396 16.3096L2.7396 15.709L3.2478 15.709C3.0102 15.6034 2.667 15.313 2.667 14.7718C2.667 14.224 2.9376 13.8412 3.36 13.6498C3.0828 13.531 2.667 13.2274 2.667 12.6004C2.667 11.7952 3.2412 11.3266 4.0134 11.3266L6 11.3266L6 11.9338L4.1256 11.9338C3.5778 11.9338 3.2214 12.1912 3.2214 12.7192C3.2214 13.2406 3.5976 13.5178 4.1256 13.5178L6 13.5178L6 14.125L4.1256 14.125C3.5778 14.125 3.2214 14.3956 3.2214 14.917C3.2214 15.4384 3.5976 15.709 4.1256 15.709ZM2.1126 10.148L1.1688 10.148L1.1688 9.52103L2.1126 9.52103L2.1126 10.148ZM6 10.1348L2.7396 10.1348L2.7396 9.53423L6 9.53423L6 10.1348ZM4.1718 7.71036L6 7.71036L6 8.31096L2.7396 8.31096L2.7396 7.71036L3.2874 7.71036C3.0168 7.58496 2.667 7.28136 2.667 6.73356C2.667 5.97456 3.1818 5.47956 4.0596 5.47956L6 5.47956L6 6.08676L4.1718 6.08676C3.5382 6.08676 3.2214 6.38376 3.2214 6.87876C3.2214 7.40016 3.558 7.71036 4.1718 7.71036ZM6.8184 3.92609L6.8184 4.47389C6.2112 4.15049 5.2212 3.67529 3.69 3.67529C2.1522 3.67529 1.1886 4.15709 0.574796 4.47389L0.574796 3.92609C1.1886 3.60929 2.1918 3.14069 3.69 3.14069C5.175 3.14069 6.2112 3.60929 6.8184 3.92609Z" fill="white"/>
<defs>
<clipPath id="clip0_662_1879">
<rect width="240" height="137.16" fill="white" transform="translate(14)"/>
</clipPath>
</defs>
</svg>
