<svg width="396" height="286" viewBox="0 0 396 286" fill="none" xmlns="http://www.w3.org/2000/svg">
<g clip-path="url(#clip0_617_2131)">
<g clip-path="url(#clip1_617_2131)">
<rect x="-332.329" width="1658.9" height="165.315" fill="#97CCE9"/>
<rect x="381.293" y="43.3163" width="34.5434" height="12.474" fill="white"/>
<rect x="-332.96" y="165.37" width="1659.4" height="37.0656" fill="#4C8EF9"/>
<rect x="-332.329" y="202.024" width="1658.9" height="83.3428" fill="#D1A83D"/>
<rect x="21.8774" y="73.0554" width="34.5434" height="12.474" fill="white"/>
<rect x="234.621" y="89.7854" width="34.5434" height="12.474" fill="white"/>
<rect x="373.891" y="55.7903" width="51.2668" height="12.474" fill="white"/>
<rect x="41.8906" y="65.7903" width="26.73" height="10.9662" fill="white"/>
<rect x="126.056" y="161.915" width="19.7391" height="7.79694" fill="#F2A580"/>
<rect x="129.312" y="155.895" width="13.2252" height="6.02042" fill="#F2A580"/>
<rect x="132.668" y="152.539" width="6.5139" height="3.35564" fill="#F2A580"/>
<rect x="129.312" y="169.712" width="13.2252" height="2.76347" fill="#F2A580"/>
<rect x="126.056" y="161.915" width="19.7391" height="1.18434" fill="black"/>
<rect x="126.056" y="168.528" width="19.7391" height="1.18434" fill="black"/>
<rect x="341.228" y="159.217" width="19.6409" height="13.0612" fill="#D8BA8C"/>
<rect x="344.469" y="155.878" width="13.0612" height="3.33895" fill="#D8BA8C"/>
<rect x="347.709" y="152.539" width="6.48149" height="3.33895" fill="#D8BA8C"/>
<rect x="341.13" y="165.109" width="19.8373" height="1.27666" fill="black"/>
</g>
<path d="M71.3433 153.138L72.1044 147.178L46.7143 143.936L45.9532 149.895L39.7057 149.097L38.9108 155.322L45.1583 156.119L43.5347 168.833L46.6797 169.234L47.5254 162.613L50.583 163.003L49.7373 169.625L52.9272 170.032L53.7729 163.41L59.9067 164.194L59.061 170.816L62.2316 171.221L63.0773 164.599L66.1349 164.989L65.2892 171.611L68.924 172.075L70.5476 159.362L76.1306 160.075L76.9254 153.851L71.3425 153.138L71.3433 153.138ZM52.3632 150.714L49.1733 150.307L49.5791 147.129L52.7691 147.536L52.3632 150.714ZM67.8253 152.689L64.6354 152.281L65.0413 149.103L68.2312 149.511L67.8253 152.689Z" fill="#EB361C"/>
<rect x="49.4204" y="147.093" width="3.82242" height="3.54939" transform="rotate(7.27798 49.4204 147.093)" fill="black"/>
<rect x="64.5098" y="149.02" width="3.82242" height="3.54939" transform="rotate(7.27798 64.5098 149.02)" fill="black"/>
<g filter="url(#filter0_d_617_2131)">
<path d="M25.4076 25.0053C25.4405 25.1369 25.4569 25.3014 25.4569 25.4988C25.4569 25.688 25.4405 25.8525 25.4076 25.9923C25.4405 26.1239 25.4569 26.2884 25.4569 26.4858C25.4569 26.6749 25.4405 26.8394 25.4076 26.9792H24.9141C24.947 27.1108 24.9635 27.2753 24.9635 27.4727C24.9635 27.6619 24.947 27.8264 24.9141 27.9662H21.9533C21.9204 27.8264 21.9039 27.6619 21.9039 27.4727C21.9039 27.2753 21.9204 27.1108 21.9533 26.9792H21.4598C21.4269 26.8394 21.4104 26.6749 21.4104 26.4858C21.4104 26.2884 21.4269 26.1239 21.4598 25.9923H22.4467C22.4796 26.1239 22.4961 26.2884 22.4961 26.4858C22.4961 26.6749 22.4796 26.8394 22.4467 26.9792H24.4206C24.3877 26.8394 24.3713 26.6749 24.3713 26.4858C24.3713 26.2884 24.3877 26.1239 24.4206 25.9923C24.3877 25.8525 24.3713 25.688 24.3713 25.4988C24.3713 25.3014 24.3877 25.1369 24.4206 25.0053H21.9533C21.9204 24.8655 21.9039 24.701 21.9039 24.5118C21.9039 24.3145 21.9204 24.15 21.9533 24.0184H21.4598C21.4269 23.8786 21.4104 23.7141 21.4104 23.5249C21.4104 23.3275 21.4269 23.163 21.4598 23.0314C21.4269 22.8916 21.4104 22.7271 21.4104 22.5379C21.4104 22.3405 21.4269 22.1761 21.4598 22.0445H21.9533C21.9204 21.9046 21.9039 21.7402 21.9039 21.551C21.9039 21.3536 21.9204 21.1891 21.9533 21.0575H24.9141C24.947 21.1891 24.9635 21.3536 24.9635 21.551C24.9635 21.7402 24.947 21.9046 24.9141 22.0445H25.4076C25.4405 22.1761 25.4569 22.3405 25.4569 22.5379C25.4569 22.7271 25.4405 22.8916 25.4076 23.0314H24.4206C24.3877 22.8916 24.3713 22.7271 24.3713 22.5379C24.3713 22.3405 24.3877 22.1761 24.4206 22.0445H22.4467C22.4796 22.1761 22.4961 22.3405 22.4961 22.5379C22.4961 22.7271 22.4796 22.8916 22.4467 23.0314C22.4796 23.163 22.4961 23.3275 22.4961 23.5249C22.4961 23.7141 22.4796 23.8786 22.4467 24.0184H24.9141C24.947 24.15 24.9635 24.3145 24.9635 24.5118C24.9635 24.701 24.947 24.8655 24.9141 25.0053H25.4076ZM29.9771 25.9923C30.01 26.1239 30.0264 26.2884 30.0264 26.4858C30.0264 26.6749 30.01 26.8394 29.9771 26.9792H29.4836C29.5165 27.1108 29.533 27.2753 29.533 27.4727C29.533 27.6619 29.5165 27.8264 29.4836 27.9662H27.0162C26.9833 27.8264 26.9669 27.6619 26.9669 27.4727C26.9669 27.2753 26.9833 27.1108 27.0162 26.9792H26.5227C26.4898 26.8394 26.4734 26.6749 26.4734 26.4858C26.4734 26.2884 26.4898 26.1239 26.5227 25.9923H26.0293C25.9964 25.8525 25.9799 25.688 25.9799 25.4988C25.9799 25.3014 25.9964 25.1369 26.0293 25.0053C25.9964 24.8655 25.9799 24.701 25.9799 24.5118C25.9799 24.3145 25.9964 24.15 26.0293 24.0184C25.9964 23.8786 25.9799 23.7141 25.9799 23.5249C25.9799 23.3275 25.9964 23.163 26.0293 23.0314H26.5227C26.4898 22.8916 26.4734 22.7271 26.4734 22.5379C26.4734 22.3405 26.4898 22.1761 26.5227 22.0445H27.0162C26.9833 21.9046 26.9669 21.7402 26.9669 21.551C26.9669 21.3536 26.9833 21.1891 27.0162 21.0575H29.4836C29.5165 21.1891 29.533 21.3536 29.533 21.551C29.533 21.7402 29.5165 21.9046 29.4836 22.0445H29.9771C30.01 22.1761 30.0264 22.3405 30.0264 22.5379C30.0264 22.7271 30.01 22.8916 29.9771 23.0314H28.9901C28.9572 22.8916 28.9408 22.7271 28.9408 22.5379C28.9408 22.3405 28.9572 22.1761 28.9901 22.0445H27.5097C27.5426 22.1761 27.559 22.3405 27.559 22.5379C27.559 22.7271 27.5426 22.8916 27.5097 23.0314H27.0162C27.0491 23.163 27.0656 23.3275 27.0656 23.5249C27.0656 23.7141 27.0491 23.8786 27.0162 24.0184C27.0491 24.15 27.0656 24.3145 27.0656 24.5118C27.0656 24.701 27.0491 24.8655 27.0162 25.0053C27.0491 25.1369 27.0656 25.3014 27.0656 25.4988C27.0656 25.688 27.0491 25.8525 27.0162 25.9923H27.5097C27.5426 26.1239 27.559 26.2884 27.559 26.4858C27.559 26.6749 27.5426 26.8394 27.5097 26.9792H28.9901C28.9572 26.8394 28.9408 26.6749 28.9408 26.4858C28.9408 26.2884 28.9572 26.1239 28.9901 25.9923H29.9771ZM34.5466 24.0184C34.5795 24.15 34.5959 24.3145 34.5959 24.5118C34.5959 24.701 34.5795 24.8655 34.5466 25.0053C34.5795 25.1369 34.5959 25.3014 34.5959 25.4988C34.5959 25.688 34.5795 25.8525 34.5466 25.9923H34.1765C34.2094 26.1239 34.2258 26.2884 34.2258 26.4858C34.2258 26.6749 34.2094 26.8394 34.1765 26.9792H33.5596C33.5925 27.1108 33.609 27.2753 33.609 27.4727C33.609 27.6619 33.5925 27.8264 33.5596 27.9662H31.5857C31.5528 27.8264 31.5364 27.6619 31.5364 27.4727C31.5364 27.2753 31.5528 27.1108 31.5857 26.9792H30.9689C30.936 26.8394 30.9195 26.6749 30.9195 26.4858C30.9195 26.2884 30.936 26.1239 30.9689 25.9923H30.5987C30.5659 25.8525 30.5494 25.688 30.5494 25.4988C30.5494 25.3014 30.5659 25.1369 30.5987 25.0053C30.5659 24.8655 30.5494 24.701 30.5494 24.5118C30.5494 24.3145 30.5659 24.15 30.5987 24.0184C30.5659 23.8786 30.5494 23.7141 30.5494 23.5249C30.5494 23.3275 30.5659 23.163 30.5987 23.0314H30.9689C30.936 22.8916 30.9195 22.7271 30.9195 22.5379C30.9195 22.3405 30.936 22.1761 30.9689 22.0445H31.5857C31.5528 21.9046 31.5364 21.7402 31.5364 21.551C31.5364 21.3536 31.5528 21.1891 31.5857 21.0575H33.5596C33.5925 21.1891 33.609 21.3536 33.609 21.551C33.609 21.7402 33.5925 21.9046 33.5596 22.0445H34.1765C34.2094 22.1761 34.2258 22.3405 34.2258 22.5379C34.2258 22.7271 34.2094 22.8916 34.1765 23.0314H34.5466C34.5795 23.163 34.5959 23.3275 34.5959 23.5249C34.5959 23.7141 34.5795 23.8786 34.5466 24.0184ZM33.5596 25.9923C33.5267 25.8525 33.5103 25.688 33.5103 25.4988C33.5103 25.3014 33.5267 25.1369 33.5596 25.0053C33.5267 24.8655 33.5103 24.701 33.5103 24.5118C33.5103 24.3145 33.5267 24.15 33.5596 24.0184C33.5267 23.8786 33.5103 23.7141 33.5103 23.5249C33.5103 23.3275 33.5267 23.163 33.5596 23.0314H33.1895C33.1566 22.8916 33.1402 22.7271 33.1402 22.5379C33.1402 22.3405 33.1566 22.1761 33.1895 22.0445H31.9558C31.9887 22.1761 32.0052 22.3405 32.0052 22.5379C32.0052 22.7271 31.9887 22.8916 31.9558 23.0314H31.5857C31.6186 23.163 31.6351 23.3275 31.6351 23.5249C31.6351 23.7141 31.6186 23.8786 31.5857 24.0184C31.6186 24.15 31.6351 24.3145 31.6351 24.5118C31.6351 24.701 31.6186 24.8655 31.5857 25.0053C31.6186 25.1369 31.6351 25.3014 31.6351 25.4988C31.6351 25.688 31.6186 25.8525 31.5857 25.9923H31.9558C31.9887 26.1239 32.0052 26.2884 32.0052 26.4858C32.0052 26.6749 31.9887 26.8394 31.9558 26.9792H33.1895C33.1566 26.8394 33.1402 26.6749 33.1402 26.4858C33.1402 26.2884 33.1566 26.1239 33.1895 25.9923H33.5596ZM39.116 26.9792C39.1489 27.1108 39.1654 27.2753 39.1654 27.4727C39.1654 27.6619 39.1489 27.8264 39.116 27.9662H38.1291C38.0962 27.8264 38.0797 27.6619 38.0797 27.4727C38.0797 27.2753 38.0962 27.1108 38.1291 26.9792H37.759C37.7261 26.8394 37.7096 26.6749 37.7096 26.4858C37.7096 26.2884 37.7261 26.1239 37.759 25.9923H37.3889C37.356 25.8525 37.3395 25.688 37.3395 25.4988C37.3395 25.3014 37.356 25.1369 37.3889 25.0053H36.1552C36.1881 25.1369 36.2045 25.3014 36.2045 25.4988C36.2045 25.688 36.1881 25.8525 36.1552 25.9923C36.1881 26.1239 36.2045 26.2884 36.2045 26.4858C36.2045 26.6749 36.1881 26.8394 36.1552 26.9792C36.1881 27.1108 36.2045 27.2753 36.2045 27.4727C36.2045 27.6619 36.1881 27.8264 36.1552 27.9662H35.1682C35.1353 27.8264 35.1189 27.6619 35.1189 27.4727C35.1189 27.2753 35.1353 27.1108 35.1682 26.9792C35.1353 26.8394 35.1189 26.6749 35.1189 26.4858C35.1189 26.2884 35.1353 26.1239 35.1682 25.9923C35.1353 25.8525 35.1189 25.688 35.1189 25.4988C35.1189 25.3014 35.1353 25.1369 35.1682 25.0053C35.1353 24.8655 35.1189 24.701 35.1189 24.5118C35.1189 24.3145 35.1353 24.15 35.1682 24.0184C35.1353 23.8786 35.1189 23.7141 35.1189 23.5249C35.1189 23.3275 35.1353 23.163 35.1682 23.0314C35.1353 22.8916 35.1189 22.7271 35.1189 22.5379C35.1189 22.3405 35.1353 22.1761 35.1682 22.0445C35.1353 21.9046 35.1189 21.7402 35.1189 21.551C35.1189 21.3536 35.1353 21.1891 35.1682 21.0575H38.6226C38.6555 21.1891 38.6719 21.3536 38.6719 21.551C38.6719 21.7402 38.6555 21.9046 38.6226 22.0445H39.116C39.1489 22.1761 39.1654 22.3405 39.1654 22.5379C39.1654 22.7271 39.1489 22.8916 39.116 23.0314H38.8693C38.9022 23.163 38.9187 23.3275 38.9187 23.5249C38.9187 23.7141 38.9022 23.8786 38.8693 24.0184H38.1291C38.162 24.15 38.1784 24.3145 38.1784 24.5118C38.1784 24.701 38.162 24.8655 38.1291 25.0053H38.3758C38.4087 25.1369 38.4252 25.3014 38.4252 25.4988C38.4252 25.688 38.4087 25.8525 38.3758 25.9923H38.7459C38.7788 26.1239 38.7953 26.2884 38.7953 26.4858C38.7953 26.6749 38.7788 26.8394 38.7459 26.9792H39.116ZM37.8824 24.0184C37.8495 23.8786 37.833 23.7141 37.833 23.5249C37.833 23.3275 37.8495 23.163 37.8824 23.0314C37.8495 22.8916 37.833 22.7271 37.833 22.5379C37.833 22.3405 37.8495 22.1761 37.8824 22.0445H36.1552C36.1881 22.1761 36.2045 22.3405 36.2045 22.5379C36.2045 22.7271 36.1881 22.8916 36.1552 23.0314C36.1881 23.163 36.2045 23.3275 36.2045 23.5249C36.2045 23.7141 36.1881 23.8786 36.1552 24.0184H37.8824ZM41.2181 25.0053C41.251 25.1369 41.2675 25.3014 41.2675 25.4988C41.2675 25.688 41.251 25.8525 41.2181 25.9923C41.251 26.1239 41.2675 26.2884 41.2675 26.4858C41.2675 26.6749 41.251 26.8394 41.2181 26.9792H43.1921C43.225 27.1108 43.2414 27.2753 43.2414 27.4727C43.2414 27.6619 43.225 27.8264 43.1921 27.9662H40.2312C40.1983 27.8264 40.1818 27.6619 40.1818 27.4727C40.1818 27.2753 40.1983 27.1108 40.2312 26.9792C40.1983 26.8394 40.1818 26.6749 40.1818 26.4858C40.1818 26.2884 40.1983 26.1239 40.2312 25.9923C40.1983 25.8525 40.1818 25.688 40.1818 25.4988C40.1818 25.3014 40.1983 25.1369 40.2312 25.0053C40.1983 24.8655 40.1818 24.701 40.1818 24.5118C40.1818 24.3145 40.1983 24.15 40.2312 24.0184C40.1983 23.8786 40.1818 23.7141 40.1818 23.5249C40.1818 23.3275 40.1983 23.163 40.2312 23.0314C40.1983 22.8916 40.1818 22.7271 40.1818 22.5379C40.1818 22.3405 40.1983 22.1761 40.2312 22.0445C40.1983 21.9046 40.1818 21.7402 40.1818 21.551C40.1818 21.3536 40.1983 21.1891 40.2312 21.0575H43.1921C43.225 21.1891 43.2414 21.3536 43.2414 21.551C43.2414 21.7402 43.225 21.9046 43.1921 22.0445H41.2181C41.251 22.1761 41.2675 22.3405 41.2675 22.5379C41.2675 22.7271 41.251 22.8916 41.2181 23.0314C41.251 23.163 41.2675 23.3275 41.2675 23.5249C41.2675 23.7141 41.251 23.8786 41.2181 24.0184H43.1921C43.225 24.15 43.2414 24.3145 43.2414 24.5118C43.2414 24.701 43.225 24.8655 43.1921 25.0053H41.2181ZM46.9473 22.5379C46.9473 22.7271 46.9308 22.8916 46.8979 23.0314C46.9308 23.163 46.9473 23.3275 46.9473 23.5249C46.9473 23.7141 46.9308 23.8786 46.8979 24.0184H45.6643C45.6314 23.8786 45.6149 23.7141 45.6149 23.5249C45.6149 23.3275 45.6314 23.163 45.6643 23.0314C45.6314 22.8916 45.6149 22.7271 45.6149 22.5379C45.6149 22.3405 45.6314 22.1761 45.6643 22.0445H46.8979C46.9308 22.1761 46.9473 22.3405 46.9473 22.5379ZM46.8979 25.9923C46.9308 26.1239 46.9473 26.2884 46.9473 26.4858C46.9473 26.6749 46.9308 26.8394 46.8979 26.9792C46.9308 27.1108 46.9473 27.2753 46.9473 27.4727C46.9473 27.6619 46.9308 27.8264 46.8979 27.9662H45.6643C45.6314 27.8264 45.6149 27.6619 45.6149 27.4727C45.6149 27.2753 45.6314 27.1108 45.6643 26.9792C45.6314 26.8394 45.6149 26.6749 45.6149 26.4858C45.6149 26.2884 45.6314 26.1239 45.6643 25.9923H46.8979ZM57.4433 25.4988C57.4433 25.688 57.4269 25.8525 57.394 25.9923H56.9005C56.9334 26.1239 56.9498 26.2884 56.9498 26.4858C56.9498 26.6749 56.9334 26.8394 56.9005 26.9792C56.9334 27.1108 56.9498 27.2753 56.9498 27.4727C56.9498 27.6619 56.9334 27.8264 56.9005 27.9662H55.9135C55.8806 27.8264 55.8642 27.6619 55.8642 27.4727C55.8642 27.2753 55.8806 27.1108 55.9135 26.9792C55.8806 26.8394 55.8642 26.6749 55.8642 26.4858C55.8642 26.2884 55.8806 26.1239 55.9135 25.9923H53.4462C53.4133 25.8525 53.3968 25.688 53.3968 25.4988C53.3968 25.3014 53.4133 25.1369 53.4462 25.0053H53.8163C53.7834 24.8655 53.7669 24.701 53.7669 24.5118C53.7669 24.3145 53.7834 24.15 53.8163 24.0184H54.1864C54.1535 23.8786 54.137 23.7141 54.137 23.5249C54.137 23.3275 54.1535 23.163 54.1864 23.0314H54.5565C54.5236 22.8916 54.5071 22.7271 54.5071 22.5379C54.5071 22.3405 54.5236 22.1761 54.5565 22.0445H55.1733C55.2062 22.1761 55.2227 22.3405 55.2227 22.5379C55.2227 22.7271 55.2062 22.8916 55.1733 23.0314H54.8032C54.8361 23.163 54.8526 23.3275 54.8526 23.5249C54.8526 23.7141 54.8361 23.8786 54.8032 24.0184H54.4331C54.466 24.15 54.4825 24.3145 54.4825 24.5118C54.4825 24.701 54.466 24.8655 54.4331 25.0053H55.9135C55.8806 24.8655 55.8642 24.701 55.8642 24.5118C55.8642 24.3145 55.8806 24.15 55.9135 24.0184C55.8806 23.8786 55.8642 23.7141 55.8642 23.5249C55.8642 23.3275 55.8806 23.163 55.9135 23.0314C55.8806 22.8916 55.8642 22.7271 55.8642 22.5379C55.8642 22.3405 55.8806 22.1761 55.9135 22.0445H55.1733C55.1404 21.9046 55.124 21.7402 55.124 21.551C55.124 21.3536 55.1404 21.1891 55.1733 21.0575H56.9005C56.9334 21.1891 56.9498 21.3536 56.9498 21.551C56.9498 21.7402 56.9334 21.9046 56.9005 22.0445C56.9334 22.1761 56.9498 22.3405 56.9498 22.5379C56.9498 22.7271 56.9334 22.8916 56.9005 23.0314C56.9334 23.163 56.9498 23.3275 56.9498 23.5249C56.9498 23.7141 56.9334 23.8786 56.9005 24.0184C56.9334 24.15 56.9498 24.3145 56.9498 24.5118C56.9498 24.701 56.9334 24.8655 56.9005 25.0053H57.394C57.4269 25.1369 57.4433 25.3014 57.4433 25.4988Z" fill="white"/>
</g>
<g filter="url(#filter1_d_617_2131)">
<path d="M25.4076 41.0711C25.4405 41.2027 25.4569 41.3672 25.4569 41.5646C25.4569 41.7538 25.4405 41.9183 25.4076 42.0581H24.9141C24.947 42.1897 24.9635 42.3542 24.9635 42.5516C24.9635 42.7407 24.947 42.9052 24.9141 43.045H22.4467C22.4138 42.9052 22.3974 42.7407 22.3974 42.5516C22.3974 42.3542 22.4138 42.1897 22.4467 42.0581H21.9533C21.9204 41.9183 21.9039 41.7538 21.9039 41.5646C21.9039 41.3672 21.9204 41.2027 21.9533 41.0711H21.4598C21.4269 40.9313 21.4104 40.7668 21.4104 40.5777C21.4104 40.3803 21.4269 40.2158 21.4598 40.0842C21.4269 39.9444 21.4104 39.7799 21.4104 39.5907C21.4104 39.3933 21.4269 39.2288 21.4598 39.0972C21.4269 38.9574 21.4104 38.7929 21.4104 38.6038C21.4104 38.4064 21.4269 38.2419 21.4598 38.1103H21.9533C21.9204 37.9705 21.9039 37.806 21.9039 37.6168C21.9039 37.4194 21.9204 37.2549 21.9533 37.1233H22.4467C22.4138 36.9835 22.3974 36.819 22.3974 36.6298C22.3974 36.4325 22.4138 36.268 22.4467 36.1364H24.9141C24.947 36.268 24.9635 36.4325 24.9635 36.6298C24.9635 36.819 24.947 36.9835 24.9141 37.1233H25.4076C25.4405 37.2549 25.4569 37.4194 25.4569 37.6168C25.4569 37.806 25.4405 37.9705 25.4076 38.1103H24.4206C24.3877 37.9705 24.3713 37.806 24.3713 37.6168C24.3713 37.4194 24.3877 37.2549 24.4206 37.1233H22.9402C22.9731 37.2549 22.9896 37.4194 22.9896 37.6168C22.9896 37.806 22.9731 37.9705 22.9402 38.1103H22.4467C22.4796 38.2419 22.4961 38.4064 22.4961 38.6038C22.4961 38.7929 22.4796 38.9574 22.4467 39.0972C22.4796 39.2288 22.4961 39.3933 22.4961 39.5907C22.4961 39.7799 22.4796 39.9444 22.4467 40.0842C22.4796 40.2158 22.4961 40.3803 22.4961 40.5777C22.4961 40.7668 22.4796 40.9313 22.4467 41.0711H22.9402C22.9731 41.2027 22.9896 41.3672 22.9896 41.5646C22.9896 41.7538 22.9731 41.9183 22.9402 42.0581H24.4206C24.3877 41.9183 24.3713 41.7538 24.3713 41.5646C24.3713 41.3672 24.3877 41.2027 24.4206 41.0711H25.4076ZM29.9771 42.0581C30.01 42.1897 30.0264 42.3542 30.0264 42.5516C30.0264 42.7407 30.01 42.9052 29.9771 43.045H26.5227C26.4898 42.9052 26.4734 42.7407 26.4734 42.5516C26.4734 42.3542 26.4898 42.1897 26.5227 42.0581C26.4898 41.9183 26.4734 41.7538 26.4734 41.5646C26.4734 41.3672 26.4898 41.2027 26.5227 41.0711C26.4898 40.9313 26.4734 40.7668 26.4734 40.5777C26.4734 40.3803 26.4898 40.2158 26.5227 40.0842C26.4898 39.9444 26.4734 39.7799 26.4734 39.5907C26.4734 39.3933 26.4898 39.2288 26.5227 39.0972C26.4898 38.9574 26.4734 38.7929 26.4734 38.6038C26.4734 38.4064 26.4898 38.2419 26.5227 38.1103C26.4898 37.9705 26.4734 37.806 26.4734 37.6168C26.4734 37.4194 26.4898 37.2549 26.5227 37.1233C26.4898 36.9835 26.4734 36.819 26.4734 36.6298C26.4734 36.4325 26.4898 36.268 26.5227 36.1364H27.5097C27.5426 36.268 27.559 36.4325 27.559 36.6298C27.559 36.819 27.5426 36.9835 27.5097 37.1233C27.5426 37.2549 27.559 37.4194 27.559 37.6168C27.559 37.806 27.5426 37.9705 27.5097 38.1103C27.5426 38.2419 27.559 38.4064 27.559 38.6038C27.559 38.7929 27.5426 38.9574 27.5097 39.0972C27.5426 39.2288 27.559 39.3933 27.559 39.5907C27.559 39.7799 27.5426 39.9444 27.5097 40.0842C27.5426 40.2158 27.559 40.3803 27.559 40.5777C27.559 40.7668 27.5426 40.9313 27.5097 41.0711C27.5426 41.2027 27.559 41.3672 27.559 41.5646C27.559 41.7538 27.5426 41.9183 27.5097 42.0581H29.9771ZM34.5959 41.5646C34.5959 41.7538 34.5795 41.9183 34.5466 42.0581C34.5795 42.1897 34.5959 42.3542 34.5959 42.5516C34.5959 42.7407 34.5795 42.9052 34.5466 43.045H33.5596C33.5267 42.9052 33.5103 42.7407 33.5103 42.5516C33.5103 42.3542 33.5267 42.1897 33.5596 42.0581C33.5267 41.9183 33.5103 41.7538 33.5103 41.5646C33.5103 41.3672 33.5267 41.2027 33.5596 41.0711H31.5857C31.6186 41.2027 31.6351 41.3672 31.6351 41.5646C31.6351 41.7538 31.6186 41.9183 31.5857 42.0581C31.6186 42.1897 31.6351 42.3542 31.6351 42.5516C31.6351 42.7407 31.6186 42.9052 31.5857 43.045H30.5987C30.5659 42.9052 30.5494 42.7407 30.5494 42.5516C30.5494 42.3542 30.5659 42.1897 30.5987 42.0581C30.5659 41.9183 30.5494 41.7538 30.5494 41.5646C30.5494 41.3672 30.5659 41.2027 30.5987 41.0711H30.9689C30.936 40.9313 30.9195 40.7668 30.9195 40.5777C30.9195 40.3803 30.936 40.2158 30.9689 40.0842C30.936 39.9444 30.9195 39.7799 30.9195 39.5907C30.9195 39.3933 30.936 39.2288 30.9689 39.0972H31.2156C31.1827 38.9574 31.1662 38.7929 31.1662 38.6038C31.1662 38.4064 31.1827 38.2419 31.2156 38.1103H31.5857C31.5528 37.9705 31.5364 37.806 31.5364 37.6168C31.5364 37.4194 31.5528 37.2549 31.5857 37.1233H31.8324C31.7995 36.9835 31.7831 36.819 31.7831 36.6298C31.7831 36.4325 31.7995 36.268 31.8324 36.1364H33.3129C33.3458 36.268 33.3622 36.4325 33.3622 36.6298C33.3622 36.819 33.3458 36.9835 33.3129 37.1233H33.5596C33.5925 37.2549 33.609 37.4194 33.609 37.6168C33.609 37.806 33.5925 37.9705 33.5596 38.1103H33.9297C33.9626 38.2419 33.9791 38.4064 33.9791 38.6038C33.9791 38.7929 33.9626 38.9574 33.9297 39.0972H34.1765C34.2094 39.2288 34.2258 39.3933 34.2258 39.5907C34.2258 39.7799 34.2094 39.9444 34.1765 40.0842C34.2094 40.2158 34.2258 40.3803 34.2258 40.5777C34.2258 40.7668 34.2094 40.9313 34.1765 41.0711H34.5466C34.5795 41.2027 34.5959 41.3672 34.5959 41.5646ZM33.1895 40.0842C33.1566 39.9444 33.1402 39.7799 33.1402 39.5907C33.1402 39.3933 33.1566 39.2288 33.1895 39.0972H32.9428C32.9099 38.9574 32.8934 38.7929 32.8934 38.6038C32.8934 38.4064 32.9099 38.2419 32.9428 38.1103H32.2025C32.2354 38.2419 32.2519 38.4064 32.2519 38.6038C32.2519 38.7929 32.2354 38.9574 32.2025 39.0972H31.9558C31.9887 39.2288 32.0052 39.3933 32.0052 39.5907C32.0052 39.7799 31.9887 39.9444 31.9558 40.0842H33.1895ZM39.116 37.1233C39.1489 37.2549 39.1654 37.4194 39.1654 37.6168C39.1654 37.806 39.1489 37.9705 39.116 38.1103C39.1489 38.2419 39.1654 38.4064 39.1654 38.6038C39.1654 38.7929 39.1489 38.9574 39.116 39.0972C39.1489 39.2288 39.1654 39.3933 39.1654 39.5907C39.1654 39.7799 39.1489 39.9444 39.116 40.0842H38.7459C38.7788 40.2158 38.7953 40.3803 38.7953 40.5777C38.7953 40.7668 38.7788 40.9313 38.7459 41.0711C38.7788 41.2027 38.7953 41.3672 38.7953 41.5646C38.7953 41.7538 38.7788 41.9183 38.7459 42.0581H38.4992C38.5321 42.1897 38.5485 42.3542 38.5485 42.5516C38.5485 42.7407 38.5321 42.9052 38.4992 43.045H37.759C37.7261 42.9052 37.7096 42.7407 37.7096 42.5516C37.7096 42.3542 37.7261 42.1897 37.759 42.0581H37.5122C37.4793 41.9183 37.4629 41.7538 37.4629 41.5646C37.4629 41.3672 37.4793 41.2027 37.5122 41.0711H36.772C36.8049 41.2027 36.8214 41.3672 36.8214 41.5646C36.8214 41.7538 36.8049 41.9183 36.772 42.0581H36.5253C36.5582 42.1897 36.5746 42.3542 36.5746 42.5516C36.5746 42.7407 36.5582 42.9052 36.5253 43.045H35.7851C35.7522 42.9052 35.7357 42.7407 35.7357 42.5516C35.7357 42.3542 35.7522 42.1897 35.7851 42.0581H35.5383C35.5054 41.9183 35.489 41.7538 35.489 41.5646C35.489 41.3672 35.5054 41.2027 35.5383 41.0711C35.5054 40.9313 35.489 40.7668 35.489 40.5777C35.489 40.3803 35.5054 40.2158 35.5383 40.0842H35.1682C35.1353 39.9444 35.1189 39.7799 35.1189 39.5907C35.1189 39.3933 35.1353 39.2288 35.1682 39.0972C35.1353 38.9574 35.1189 38.7929 35.1189 38.6038C35.1189 38.4064 35.1353 38.2419 35.1682 38.1103C35.1353 37.9705 35.1189 37.806 35.1189 37.6168C35.1189 37.4194 35.1353 37.2549 35.1682 37.1233C35.1353 36.9835 35.1189 36.819 35.1189 36.6298C35.1189 36.4325 35.1353 36.268 35.1682 36.1364H36.1552C36.1881 36.268 36.2045 36.4325 36.2045 36.6298C36.2045 36.819 36.1881 36.9835 36.1552 37.1233C36.1881 37.2549 36.2045 37.4194 36.2045 37.6168C36.2045 37.806 36.1881 37.9705 36.1552 38.1103C36.1881 38.2419 36.2045 38.4064 36.2045 38.6038C36.2045 38.7929 36.1881 38.9574 36.1552 39.0972C36.1881 39.2288 36.2045 39.3933 36.2045 39.5907C36.2045 39.7799 36.1881 39.9444 36.1552 40.0842C36.1881 40.2158 36.2045 40.3803 36.2045 40.5777C36.2045 40.7668 36.1881 40.9313 36.1552 41.0711H36.5253C36.4924 40.9313 36.4759 40.7668 36.4759 40.5777C36.4759 40.3803 36.4924 40.2158 36.5253 40.0842H36.772C36.7391 39.9444 36.7227 39.7799 36.7227 39.5907C36.7227 39.3933 36.7391 39.2288 36.772 39.0972C36.7391 38.9574 36.7227 38.7929 36.7227 38.6038C36.7227 38.4064 36.7391 38.2419 36.772 38.1103C36.7391 37.9705 36.7227 37.806 36.7227 37.6168C36.7227 37.4194 36.7391 37.2549 36.772 37.1233C36.7391 36.9835 36.7227 36.819 36.7227 36.6298C36.7227 36.4325 36.7391 36.268 36.772 36.1364H37.5122C37.5451 36.268 37.5616 36.4325 37.5616 36.6298C37.5616 36.819 37.5451 36.9835 37.5122 37.1233C37.5451 37.2549 37.5616 37.4194 37.5616 37.6168C37.5616 37.806 37.5451 37.9705 37.5122 38.1103C37.5451 38.2419 37.5616 38.4064 37.5616 38.6038C37.5616 38.7929 37.5451 38.9574 37.5122 39.0972C37.5451 39.2288 37.5616 39.3933 37.5616 39.5907C37.5616 39.7799 37.5451 39.9444 37.5122 40.0842H37.759C37.7919 40.2158 37.8083 40.3803 37.8083 40.5777C37.8083 40.7668 37.7919 40.9313 37.759 41.0711H38.1291C38.0962 40.9313 38.0797 40.7668 38.0797 40.5777C38.0797 40.3803 38.0962 40.2158 38.1291 40.0842C38.0962 39.9444 38.0797 39.7799 38.0797 39.5907C38.0797 39.3933 38.0962 39.2288 38.1291 39.0972C38.0962 38.9574 38.0797 38.7929 38.0797 38.6038C38.0797 38.4064 38.0962 38.2419 38.1291 38.1103C38.0962 37.9705 38.0797 37.806 38.0797 37.6168C38.0797 37.4194 38.0962 37.2549 38.1291 37.1233C38.0962 36.9835 38.0797 36.819 38.0797 36.6298C38.0797 36.4325 38.0962 36.268 38.1291 36.1364H39.116C39.1489 36.268 39.1654 36.4325 39.1654 36.6298C39.1654 36.819 39.1489 36.9835 39.116 37.1233ZM42.2544 35.6429C42.2544 35.8321 42.238 35.9965 42.2051 36.1364C42.238 36.268 42.2544 36.4325 42.2544 36.6298C42.2544 36.819 42.238 36.9835 42.2051 37.1233H41.2181C41.1852 36.9835 41.1688 36.819 41.1688 36.6298C41.1688 36.4325 41.1852 36.268 41.2181 36.1364C41.1852 35.9965 41.1688 35.8321 41.1688 35.6429C41.1688 35.4455 41.1852 35.281 41.2181 35.1494H42.2051C42.238 35.281 42.2544 35.4455 42.2544 35.6429ZM48.255 39.0972C48.2879 39.2288 48.3044 39.3933 48.3044 39.5907C48.3044 39.7799 48.2879 39.9444 48.255 40.0842C48.2879 40.2158 48.3044 40.3803 48.3044 40.5777C48.3044 40.7668 48.2879 40.9313 48.255 41.0711H47.7615C47.7944 41.2027 47.8109 41.3672 47.8109 41.5646C47.8109 41.7538 47.7944 41.9183 47.7615 42.0581H47.2681C47.301 42.1897 47.3174 42.3542 47.3174 42.5516C47.3174 42.7407 47.301 42.9052 47.2681 43.045H44.3072C44.2743 42.9052 44.2578 42.7407 44.2578 42.5516C44.2578 42.3542 44.2743 42.1897 44.3072 42.0581C44.2743 41.9183 44.2578 41.7538 44.2578 41.5646C44.2578 41.3672 44.2743 41.2027 44.3072 41.0711C44.2743 40.9313 44.2578 40.7668 44.2578 40.5777C44.2578 40.3803 44.2743 40.2158 44.3072 40.0842C44.2743 39.9444 44.2578 39.7799 44.2578 39.5907C44.2578 39.3933 44.2743 39.2288 44.3072 39.0972C44.2743 38.9574 44.2578 38.7929 44.2578 38.6038C44.2578 38.4064 44.2743 38.2419 44.3072 38.1103C44.2743 37.9705 44.2578 37.806 44.2578 37.6168C44.2578 37.4194 44.2743 37.2549 44.3072 37.1233C44.2743 36.9835 44.2578 36.819 44.2578 36.6298C44.2578 36.4325 44.2743 36.268 44.3072 36.1364H47.2681C47.301 36.268 47.3174 36.4325 47.3174 36.6298C47.3174 36.819 47.301 36.9835 47.2681 37.1233H47.7615C47.7944 37.2549 47.8109 37.4194 47.8109 37.6168C47.8109 37.806 47.7944 37.9705 47.7615 38.1103H48.255C48.2879 38.2419 48.3044 38.4064 48.3044 38.6038C48.3044 38.7929 48.2879 38.9574 48.255 39.0972ZM47.2681 41.0711C47.2352 40.9313 47.2187 40.7668 47.2187 40.5777C47.2187 40.3803 47.2352 40.2158 47.2681 40.0842C47.2352 39.9444 47.2187 39.7799 47.2187 39.5907C47.2187 39.3933 47.2352 39.2288 47.2681 39.0972C47.2352 38.9574 47.2187 38.7929 47.2187 38.6038C47.2187 38.4064 47.2352 38.2419 47.2681 38.1103H46.7746C46.7417 37.9705 46.7252 37.806 46.7252 37.6168C46.7252 37.4194 46.7417 37.2549 46.7746 37.1233H45.2941C45.327 37.2549 45.3435 37.4194 45.3435 37.6168C45.3435 37.806 45.327 37.9705 45.2941 38.1103C45.327 38.2419 45.3435 38.4064 45.3435 38.6038C45.3435 38.7929 45.327 38.9574 45.2941 39.0972C45.327 39.2288 45.3435 39.3933 45.3435 39.5907C45.3435 39.7799 45.327 39.9444 45.2941 40.0842C45.327 40.2158 45.3435 40.3803 45.3435 40.5777C45.3435 40.7668 45.327 40.9313 45.2941 41.0711C45.327 41.2027 45.3435 41.3672 45.3435 41.5646C45.3435 41.7538 45.327 41.9183 45.2941 42.0581H46.7746C46.7417 41.9183 46.7252 41.7538 46.7252 41.5646C46.7252 41.3672 46.7417 41.2027 46.7746 41.0711H47.2681ZM51.3934 35.6429C51.3934 35.8321 51.377 35.9965 51.3441 36.1364C51.377 36.268 51.3934 36.4325 51.3934 36.6298C51.3934 36.819 51.377 36.9835 51.3441 37.1233H50.3571C50.3242 36.9835 50.3078 36.819 50.3078 36.6298C50.3078 36.4325 50.3242 36.268 50.3571 36.1364C50.3242 35.9965 50.3078 35.8321 50.3078 35.6429C50.3078 35.4455 50.3242 35.281 50.3571 35.1494H51.3441C51.377 35.281 51.3934 35.4455 51.3934 35.6429ZM57.394 40.0842C57.4269 40.2158 57.4433 40.3803 57.4433 40.5777C57.4433 40.7668 57.4269 40.9313 57.394 41.0711C57.4269 41.2027 57.4433 41.3672 57.4433 41.5646C57.4433 41.7538 57.4269 41.9183 57.394 42.0581H56.9005C56.9334 42.1897 56.9498 42.3542 56.9498 42.5516C56.9498 42.7407 56.9334 42.9052 56.9005 43.045H53.9396C53.9067 42.9052 53.8903 42.7407 53.8903 42.5516C53.8903 42.3542 53.9067 42.1897 53.9396 42.0581H53.4462C53.4133 41.9183 53.3968 41.7538 53.3968 41.5646C53.3968 41.3672 53.4133 41.2027 53.4462 41.0711H54.4331C54.466 41.2027 54.4825 41.3672 54.4825 41.5646C54.4825 41.7538 54.466 41.9183 54.4331 42.0581H56.407C56.3741 41.9183 56.3577 41.7538 56.3577 41.5646C56.3577 41.3672 56.3741 41.2027 56.407 41.0711C56.3741 40.9313 56.3577 40.7668 56.3577 40.5777C56.3577 40.3803 56.3741 40.2158 56.407 40.0842H53.9396C53.9067 39.9444 53.8903 39.7799 53.8903 39.5907C53.8903 39.3933 53.9067 39.2288 53.9396 39.0972H53.4462C53.4133 38.9574 53.3968 38.7929 53.3968 38.6038C53.3968 38.4064 53.4133 38.2419 53.4462 38.1103C53.4133 37.9705 53.3968 37.806 53.3968 37.6168C53.3968 37.4194 53.4133 37.2549 53.4462 37.1233H53.9396C53.9067 36.9835 53.8903 36.819 53.8903 36.6298C53.8903 36.4325 53.9067 36.268 53.9396 36.1364H56.9005C56.9334 36.268 56.9498 36.4325 56.9498 36.6298C56.9498 36.819 56.9334 36.9835 56.9005 37.1233H57.394C57.4269 37.2549 57.4433 37.4194 57.4433 37.6168C57.4433 37.806 57.4269 37.9705 57.394 38.1103H56.407C56.3741 37.9705 56.3577 37.806 56.3577 37.6168C56.3577 37.4194 56.3741 37.2549 56.407 37.1233H54.4331C54.466 37.2549 54.4825 37.4194 54.4825 37.6168C54.4825 37.806 54.466 37.9705 54.4331 38.1103C54.466 38.2419 54.4825 38.4064 54.4825 38.6038C54.4825 38.7929 54.466 38.9574 54.4331 39.0972H56.9005C56.9334 39.2288 56.9498 39.3933 56.9498 39.5907C56.9498 39.7799 56.9334 39.9444 56.9005 40.0842H57.394ZM66.5329 42.0581C66.5658 42.1897 66.5823 42.3542 66.5823 42.5516C66.5823 42.7407 66.5658 42.9052 66.5329 43.045H65.546C65.5131 42.9052 65.4966 42.7407 65.4966 42.5516C65.4966 42.3542 65.5131 42.1897 65.546 42.0581H65.1759C65.143 41.9183 65.1265 41.7538 65.1265 41.5646C65.1265 41.3672 65.143 41.2027 65.1759 41.0711H64.8058C64.7729 40.9313 64.7564 40.7668 64.7564 40.5777C64.7564 40.3803 64.7729 40.2158 64.8058 40.0842H63.5721C63.605 40.2158 63.6214 40.3803 63.6214 40.5777C63.6214 40.7668 63.605 40.9313 63.5721 41.0711C63.605 41.2027 63.6214 41.3672 63.6214 41.5646C63.6214 41.7538 63.605 41.9183 63.5721 42.0581C63.605 42.1897 63.6214 42.3542 63.6214 42.5516C63.6214 42.7407 63.605 42.9052 63.5721 43.045H62.5851C62.5522 42.9052 62.5358 42.7407 62.5358 42.5516C62.5358 42.3542 62.5522 42.1897 62.5851 42.0581C62.5522 41.9183 62.5358 41.7538 62.5358 41.5646C62.5358 41.3672 62.5522 41.2027 62.5851 41.0711C62.5522 40.9313 62.5358 40.7668 62.5358 40.5777C62.5358 40.3803 62.5522 40.2158 62.5851 40.0842C62.5522 39.9444 62.5358 39.7799 62.5358 39.5907C62.5358 39.3933 62.5522 39.2288 62.5851 39.0972C62.5522 38.9574 62.5358 38.7929 62.5358 38.6038C62.5358 38.4064 62.5522 38.2419 62.5851 38.1103C62.5522 37.9705 62.5358 37.806 62.5358 37.6168C62.5358 37.4194 62.5522 37.2549 62.5851 37.1233C62.5522 36.9835 62.5358 36.819 62.5358 36.6298C62.5358 36.4325 62.5522 36.268 62.5851 36.1364H66.0395C66.0724 36.268 66.0888 36.4325 66.0888 36.6298C66.0888 36.819 66.0724 36.9835 66.0395 37.1233H66.5329C66.5658 37.2549 66.5823 37.4194 66.5823 37.6168C66.5823 37.806 66.5658 37.9705 66.5329 38.1103H66.2862C66.3191 38.2419 66.3355 38.4064 66.3355 38.6038C66.3355 38.7929 66.3191 38.9574 66.2862 39.0972H65.546C65.5789 39.2288 65.5953 39.3933 65.5953 39.5907C65.5953 39.7799 65.5789 39.9444 65.546 40.0842H65.7927C65.8256 40.2158 65.8421 40.3803 65.8421 40.5777C65.8421 40.7668 65.8256 40.9313 65.7927 41.0711H66.1628C66.1957 41.2027 66.2122 41.3672 66.2122 41.5646C66.2122 41.7538 66.1957 41.9183 66.1628 42.0581H66.5329ZM65.2992 39.0972C65.2663 38.9574 65.2499 38.7929 65.2499 38.6038C65.2499 38.4064 65.2663 38.2419 65.2992 38.1103C65.2663 37.9705 65.2499 37.806 65.2499 37.6168C65.2499 37.4194 65.2663 37.2549 65.2992 37.1233H63.5721C63.605 37.2549 63.6214 37.4194 63.6214 37.6168C63.6214 37.806 63.605 37.9705 63.5721 38.1103C63.605 38.2419 63.6214 38.4064 63.6214 38.6038C63.6214 38.7929 63.605 38.9574 63.5721 39.0972H65.2992ZM68.635 40.0842C68.6679 40.2158 68.6844 40.3803 68.6844 40.5777C68.6844 40.7668 68.6679 40.9313 68.635 41.0711C68.6679 41.2027 68.6844 41.3672 68.6844 41.5646C68.6844 41.7538 68.6679 41.9183 68.635 42.0581H70.6089C70.6418 42.1897 70.6583 42.3542 70.6583 42.5516C70.6583 42.7407 70.6418 42.9052 70.6089 43.045H67.6481C67.6152 42.9052 67.5987 42.7407 67.5987 42.5516C67.5987 42.3542 67.6152 42.1897 67.6481 42.0581C67.6152 41.9183 67.5987 41.7538 67.5987 41.5646C67.5987 41.3672 67.6152 41.2027 67.6481 41.0711C67.6152 40.9313 67.5987 40.7668 67.5987 40.5777C67.5987 40.3803 67.6152 40.2158 67.6481 40.0842C67.6152 39.9444 67.5987 39.7799 67.5987 39.5907C67.5987 39.3933 67.6152 39.2288 67.6481 39.0972C67.6152 38.9574 67.5987 38.7929 67.5987 38.6038C67.5987 38.4064 67.6152 38.2419 67.6481 38.1103C67.6152 37.9705 67.5987 37.806 67.5987 37.6168C67.5987 37.4194 67.6152 37.2549 67.6481 37.1233C67.6152 36.9835 67.5987 36.819 67.5987 36.6298C67.5987 36.4325 67.6152 36.268 67.6481 36.1364H70.6089C70.6418 36.268 70.6583 36.4325 70.6583 36.6298C70.6583 36.819 70.6418 36.9835 70.6089 37.1233H68.635C68.6679 37.2549 68.6844 37.4194 68.6844 37.6168C68.6844 37.806 68.6679 37.9705 68.635 38.1103C68.6679 38.2419 68.6844 38.4064 68.6844 38.6038C68.6844 38.7929 68.6679 38.9574 68.635 39.0972H70.6089C70.6418 39.2288 70.6583 39.3933 70.6583 39.5907C70.6583 39.7799 70.6418 39.9444 70.6089 40.0842H68.635ZM75.7212 36.6298C75.7212 36.819 75.7048 36.9835 75.6719 37.1233H74.1915C74.2244 37.2549 74.2408 37.4194 74.2408 37.6168C74.2408 37.806 74.2244 37.9705 74.1915 38.1103C74.2244 38.2419 74.2408 38.4064 74.2408 38.6038C74.2408 38.7929 74.2244 38.9574 74.1915 39.0972C74.2244 39.2288 74.2408 39.3933 74.2408 39.5907C74.2408 39.7799 74.2244 39.9444 74.1915 40.0842C74.2244 40.2158 74.2408 40.3803 74.2408 40.5777C74.2408 40.7668 74.2244 40.9313 74.1915 41.0711C74.2244 41.2027 74.2408 41.3672 74.2408 41.5646C74.2408 41.7538 74.2244 41.9183 74.1915 42.0581C74.2244 42.1897 74.2408 42.3542 74.2408 42.5516C74.2408 42.7407 74.2244 42.9052 74.1915 43.045H73.2045C73.1716 42.9052 73.1552 42.7407 73.1552 42.5516C73.1552 42.3542 73.1716 42.1897 73.2045 42.0581C73.1716 41.9183 73.1552 41.7538 73.1552 41.5646C73.1552 41.3672 73.1716 41.2027 73.2045 41.0711C73.1716 40.9313 73.1552 40.7668 73.1552 40.5777C73.1552 40.3803 73.1716 40.2158 73.2045 40.0842C73.1716 39.9444 73.1552 39.7799 73.1552 39.5907C73.1552 39.3933 73.1716 39.2288 73.2045 39.0972C73.1716 38.9574 73.1552 38.7929 73.1552 38.6038C73.1552 38.4064 73.1716 38.2419 73.2045 38.1103C73.1716 37.9705 73.1552 37.806 73.1552 37.6168C73.1552 37.4194 73.1716 37.2549 73.2045 37.1233H71.7241C71.6912 36.9835 71.6747 36.819 71.6747 36.6298C71.6747 36.4325 71.6912 36.268 71.7241 36.1364H75.6719C75.7048 36.268 75.7212 36.4325 75.7212 36.6298ZM80.2414 42.0581C80.2743 42.1897 80.2907 42.3542 80.2907 42.5516C80.2907 42.7407 80.2743 42.9052 80.2414 43.045H79.2544C79.2215 42.9052 79.2051 42.7407 79.2051 42.5516C79.2051 42.3542 79.2215 42.1897 79.2544 42.0581H78.8843C78.8514 41.9183 78.835 41.7538 78.835 41.5646C78.835 41.3672 78.8514 41.2027 78.8843 41.0711H78.5142C78.4813 40.9313 78.4649 40.7668 78.4649 40.5777C78.4649 40.3803 78.4813 40.2158 78.5142 40.0842H77.2805C77.3134 40.2158 77.3299 40.3803 77.3299 40.5777C77.3299 40.7668 77.3134 40.9313 77.2805 41.0711C77.3134 41.2027 77.3299 41.3672 77.3299 41.5646C77.3299 41.7538 77.3134 41.9183 77.2805 42.0581C77.3134 42.1897 77.3299 42.3542 77.3299 42.5516C77.3299 42.7407 77.3134 42.9052 77.2805 43.045H76.2936C76.2607 42.9052 76.2442 42.7407 76.2442 42.5516C76.2442 42.3542 76.2607 42.1897 76.2936 42.0581C76.2607 41.9183 76.2442 41.7538 76.2442 41.5646C76.2442 41.3672 76.2607 41.2027 76.2936 41.0711C76.2607 40.9313 76.2442 40.7668 76.2442 40.5777C76.2442 40.3803 76.2607 40.2158 76.2936 40.0842C76.2607 39.9444 76.2442 39.7799 76.2442 39.5907C76.2442 39.3933 76.2607 39.2288 76.2936 39.0972C76.2607 38.9574 76.2442 38.7929 76.2442 38.6038C76.2442 38.4064 76.2607 38.2419 76.2936 38.1103C76.2607 37.9705 76.2442 37.806 76.2442 37.6168C76.2442 37.4194 76.2607 37.2549 76.2936 37.1233C76.2607 36.9835 76.2442 36.819 76.2442 36.6298C76.2442 36.4325 76.2607 36.268 76.2936 36.1364H79.7479C79.7808 36.268 79.7973 36.4325 79.7973 36.6298C79.7973 36.819 79.7808 36.9835 79.7479 37.1233H80.2414C80.2743 37.2549 80.2907 37.4194 80.2907 37.6168C80.2907 37.806 80.2743 37.9705 80.2414 38.1103H79.9946C80.0275 38.2419 80.044 38.4064 80.044 38.6038C80.044 38.7929 80.0275 38.9574 79.9946 39.0972H79.2544C79.2873 39.2288 79.3038 39.3933 79.3038 39.5907C79.3038 39.7799 79.2873 39.9444 79.2544 40.0842H79.5012C79.5341 40.2158 79.5505 40.3803 79.5505 40.5777C79.5505 40.7668 79.5341 40.9313 79.5012 41.0711H79.8713C79.9042 41.2027 79.9206 41.3672 79.9206 41.5646C79.9206 41.7538 79.9042 41.9183 79.8713 42.0581H80.2414ZM79.0077 39.0972C78.9748 38.9574 78.9583 38.7929 78.9583 38.6038C78.9583 38.4064 78.9748 38.2419 79.0077 38.1103C78.9748 37.9705 78.9583 37.806 78.9583 37.6168C78.9583 37.4194 78.9748 37.2549 79.0077 37.1233H77.2805C77.3134 37.2549 77.3299 37.4194 77.3299 37.6168C77.3299 37.806 77.3134 37.9705 77.2805 38.1103C77.3134 38.2419 77.3299 38.4064 77.3299 38.6038C77.3299 38.7929 77.3134 38.9574 77.2805 39.0972H79.0077ZM84.8109 39.0972C84.8438 39.2288 84.8602 39.3933 84.8602 39.5907C84.8602 39.7799 84.8438 39.9444 84.8109 40.0842C84.8438 40.2158 84.8602 40.3803 84.8602 40.5777C84.8602 40.7668 84.8438 40.9313 84.8109 41.0711H84.4408C84.4737 41.2027 84.4901 41.3672 84.4901 41.5646C84.4901 41.7538 84.4737 41.9183 84.4408 42.0581H83.8239C83.8568 42.1897 83.8733 42.3542 83.8733 42.5516C83.8733 42.7407 83.8568 42.9052 83.8239 43.045H81.85C81.8171 42.9052 81.8007 42.7407 81.8007 42.5516C81.8007 42.3542 81.8171 42.1897 81.85 42.0581H81.2332C81.2003 41.9183 81.1838 41.7538 81.1838 41.5646C81.1838 41.3672 81.2003 41.2027 81.2332 41.0711H80.863C80.8302 40.9313 80.8137 40.7668 80.8137 40.5777C80.8137 40.3803 80.8302 40.2158 80.863 40.0842C80.8302 39.9444 80.8137 39.7799 80.8137 39.5907C80.8137 39.3933 80.8302 39.2288 80.863 39.0972C80.8302 38.9574 80.8137 38.7929 80.8137 38.6038C80.8137 38.4064 80.8302 38.2419 80.863 38.1103H81.2332C81.2003 37.9705 81.1838 37.806 81.1838 37.6168C81.1838 37.4194 81.2003 37.2549 81.2332 37.1233H81.85C81.8171 36.9835 81.8007 36.819 81.8007 36.6298C81.8007 36.4325 81.8171 36.268 81.85 36.1364H83.8239C83.8568 36.268 83.8733 36.4325 83.8733 36.6298C83.8733 36.819 83.8568 36.9835 83.8239 37.1233H84.4408C84.4737 37.2549 84.4901 37.4194 84.4901 37.6168C84.4901 37.806 84.4737 37.9705 84.4408 38.1103H84.8109C84.8438 38.2419 84.8602 38.4064 84.8602 38.6038C84.8602 38.7929 84.8438 38.9574 84.8109 39.0972ZM83.8239 41.0711C83.791 40.9313 83.7746 40.7668 83.7746 40.5777C83.7746 40.3803 83.791 40.2158 83.8239 40.0842C83.791 39.9444 83.7746 39.7799 83.7746 39.5907C83.7746 39.3933 83.791 39.2288 83.8239 39.0972C83.791 38.9574 83.7746 38.7929 83.7746 38.6038C83.7746 38.4064 83.791 38.2419 83.8239 38.1103H83.4538C83.4209 37.9705 83.4045 37.806 83.4045 37.6168C83.4045 37.4194 83.4209 37.2549 83.4538 37.1233H82.2201C82.253 37.2549 82.2695 37.4194 82.2695 37.6168C82.2695 37.806 82.253 37.9705 82.2201 38.1103H81.85C81.8829 38.2419 81.8994 38.4064 81.8994 38.6038C81.8994 38.7929 81.8829 38.9574 81.85 39.0972C81.8829 39.2288 81.8994 39.3933 81.8994 39.5907C81.8994 39.7799 81.8829 39.9444 81.85 40.0842C81.8829 40.2158 81.8994 40.3803 81.8994 40.5777C81.8994 40.7668 81.8829 40.9313 81.85 41.0711H82.2201C82.253 41.2027 82.2695 41.3672 82.2695 41.5646C82.2695 41.7538 82.253 41.9183 82.2201 42.0581H83.4538C83.4209 41.9183 83.4045 41.7538 83.4045 41.5646C83.4045 41.3672 83.4209 41.2027 83.4538 41.0711H83.8239ZM93.9992 38.6038C93.9992 38.7929 93.9827 38.9574 93.9498 39.0972H93.4564C93.4893 39.2288 93.5057 39.3933 93.5057 39.5907C93.5057 39.7799 93.4893 39.9444 93.4564 40.0842H93.9498C93.9827 40.2158 93.9992 40.3803 93.9992 40.5777C93.9992 40.7668 93.9827 40.9313 93.9498 41.0711C93.9827 41.2027 93.9992 41.3672 93.9992 41.5646C93.9992 41.7538 93.9827 41.9183 93.9498 42.0581H93.4564C93.4893 42.1897 93.5057 42.3542 93.5057 42.5516C93.5057 42.7407 93.4893 42.9052 93.4564 43.045H90.002C89.9691 42.9052 89.9527 42.7407 89.9527 42.5516C89.9527 42.3542 89.9691 42.1897 90.002 42.0581C89.9691 41.9183 89.9527 41.7538 89.9527 41.5646C89.9527 41.3672 89.9691 41.2027 90.002 41.0711C89.9691 40.9313 89.9527 40.7668 89.9527 40.5777C89.9527 40.3803 89.9691 40.2158 90.002 40.0842C89.9691 39.9444 89.9527 39.7799 89.9527 39.5907C89.9527 39.3933 89.9691 39.2288 90.002 39.0972C89.9691 38.9574 89.9527 38.7929 89.9527 38.6038C89.9527 38.4064 89.9691 38.2419 90.002 38.1103C89.9691 37.9705 89.9527 37.806 89.9527 37.6168C89.9527 37.4194 89.9691 37.2549 90.002 37.1233C89.9691 36.9835 89.9527 36.819 89.9527 36.6298C89.9527 36.4325 89.9691 36.268 90.002 36.1364H93.4564C93.4893 36.268 93.5057 36.4325 93.5057 36.6298C93.5057 36.819 93.4893 36.9835 93.4564 37.1233H93.9498C93.9827 37.2549 93.9992 37.4194 93.9992 37.6168C93.9992 37.806 93.9827 37.9705 93.9498 38.1103C93.9827 38.2419 93.9992 38.4064 93.9992 38.6038ZM92.9629 39.0972C92.93 38.9574 92.9135 38.7929 92.9135 38.6038C92.9135 38.4064 92.93 38.2419 92.9629 38.1103C92.93 37.9705 92.9135 37.806 92.9135 37.6168C92.9135 37.4194 92.93 37.2549 92.9629 37.1233H90.989C91.0219 37.2549 91.0383 37.4194 91.0383 37.6168C91.0383 37.806 91.0219 37.9705 90.989 38.1103C91.0219 38.2419 91.0383 38.4064 91.0383 38.6038C91.0383 38.7929 91.0219 38.9574 90.989 39.0972H92.9629ZM92.9629 41.0711C92.93 40.9313 92.9135 40.7668 92.9135 40.5777C92.9135 40.3803 92.93 40.2158 92.9629 40.0842H90.989C91.0219 40.2158 91.0383 40.3803 91.0383 40.5777C91.0383 40.7668 91.0219 40.9313 90.989 41.0711C91.0219 41.2027 91.0383 41.3672 91.0383 41.5646C91.0383 41.7538 91.0219 41.9183 90.989 42.0581H92.9629C92.93 41.9183 92.9135 41.7538 92.9135 41.5646C92.9135 41.3672 92.93 41.2027 92.9629 41.0711ZM96.0519 40.0842C96.0848 40.2158 96.1013 40.3803 96.1013 40.5777C96.1013 40.7668 96.0848 40.9313 96.0519 41.0711C96.0848 41.2027 96.1013 41.3672 96.1013 41.5646C96.1013 41.7538 96.0848 41.9183 96.0519 42.0581H98.0258C98.0587 42.1897 98.0752 42.3542 98.0752 42.5516C98.0752 42.7407 98.0587 42.9052 98.0258 43.045H95.065C95.0321 42.9052 95.0156 42.7407 95.0156 42.5516C95.0156 42.3542 95.0321 42.1897 95.065 42.0581C95.0321 41.9183 95.0156 41.7538 95.0156 41.5646C95.0156 41.3672 95.0321 41.2027 95.065 41.0711C95.0321 40.9313 95.0156 40.7668 95.0156 40.5777C95.0156 40.3803 95.0321 40.2158 95.065 40.0842C95.0321 39.9444 95.0156 39.7799 95.0156 39.5907C95.0156 39.3933 95.0321 39.2288 95.065 39.0972C95.0321 38.9574 95.0156 38.7929 95.0156 38.6038C95.0156 38.4064 95.0321 38.2419 95.065 38.1103C95.0321 37.9705 95.0156 37.806 95.0156 37.6168C95.0156 37.4194 95.0321 37.2549 95.065 37.1233C95.0321 36.9835 95.0156 36.819 95.0156 36.6298C95.0156 36.4325 95.0321 36.268 95.065 36.1364H98.0258C98.0587 36.268 98.0752 36.4325 98.0752 36.6298C98.0752 36.819 98.0587 36.9835 98.0258 37.1233H96.0519C96.0848 37.2549 96.1013 37.4194 96.1013 37.6168C96.1013 37.806 96.0848 37.9705 96.0519 38.1103C96.0848 38.2419 96.1013 38.4064 96.1013 38.6038C96.1013 38.7929 96.0848 38.9574 96.0519 39.0972H98.0258C98.0587 39.2288 98.0752 39.3933 98.0752 39.5907C98.0752 39.7799 98.0587 39.9444 98.0258 40.0842H96.0519ZM103.138 41.5646C103.138 41.7538 103.122 41.9183 103.089 42.0581C103.122 42.1897 103.138 42.3542 103.138 42.5516C103.138 42.7407 103.122 42.9052 103.089 43.045H102.102C102.069 42.9052 102.052 42.7407 102.052 42.5516C102.052 42.3542 102.069 42.1897 102.102 42.0581C102.069 41.9183 102.052 41.7538 102.052 41.5646C102.052 41.3672 102.069 41.2027 102.102 41.0711H100.128C100.161 41.2027 100.177 41.3672 100.177 41.5646C100.177 41.7538 100.161 41.9183 100.128 42.0581C100.161 42.1897 100.177 42.3542 100.177 42.5516C100.177 42.7407 100.161 42.9052 100.128 43.045H99.141C99.1081 42.9052 99.0916 42.7407 99.0916 42.5516C99.0916 42.3542 99.1081 42.1897 99.141 42.0581C99.1081 41.9183 99.0916 41.7538 99.0916 41.5646C99.0916 41.3672 99.1081 41.2027 99.141 41.0711H99.5111C99.4782 40.9313 99.4617 40.7668 99.4617 40.5777C99.4617 40.3803 99.4782 40.2158 99.5111 40.0842C99.4782 39.9444 99.4617 39.7799 99.4617 39.5907C99.4617 39.3933 99.4782 39.2288 99.5111 39.0972H99.7578C99.7249 38.9574 99.7085 38.7929 99.7085 38.6038C99.7085 38.4064 99.7249 38.2419 99.7578 38.1103H100.128C100.095 37.9705 100.079 37.806 100.079 37.6168C100.079 37.4194 100.095 37.2549 100.128 37.1233H100.375C100.342 36.9835 100.325 36.819 100.325 36.6298C100.325 36.4325 100.342 36.268 100.375 36.1364H101.855C101.888 36.268 101.904 36.4325 101.904 36.6298C101.904 36.819 101.888 36.9835 101.855 37.1233H102.102C102.135 37.2549 102.151 37.4194 102.151 37.6168C102.151 37.806 102.135 37.9705 102.102 38.1103H102.472C102.505 38.2419 102.521 38.4064 102.521 38.6038C102.521 38.7929 102.505 38.9574 102.472 39.0972H102.719C102.752 39.2288 102.768 39.3933 102.768 39.5907C102.768 39.7799 102.752 39.9444 102.719 40.0842C102.752 40.2158 102.768 40.3803 102.768 40.5777C102.768 40.7668 102.752 40.9313 102.719 41.0711H103.089C103.122 41.2027 103.138 41.3672 103.138 41.5646ZM101.732 40.0842C101.699 39.9444 101.682 39.7799 101.682 39.5907C101.682 39.3933 101.699 39.2288 101.732 39.0972H101.485C101.452 38.9574 101.436 38.7929 101.436 38.6038C101.436 38.4064 101.452 38.2419 101.485 38.1103H100.745C100.778 38.2419 100.794 38.4064 100.794 38.6038C100.794 38.7929 100.778 38.9574 100.745 39.0972H100.498C100.531 39.2288 100.547 39.3933 100.547 39.5907C100.547 39.7799 100.531 39.9444 100.498 40.0842H101.732ZM107.658 41.0711C107.691 41.2027 107.708 41.3672 107.708 41.5646C107.708 41.7538 107.691 41.9183 107.658 42.0581H107.165C107.198 42.1897 107.214 42.3542 107.214 42.5516C107.214 42.7407 107.198 42.9052 107.165 43.045H104.697C104.665 42.9052 104.648 42.7407 104.648 42.5516C104.648 42.3542 104.665 42.1897 104.697 42.0581H104.204C104.171 41.9183 104.155 41.7538 104.155 41.5646C104.155 41.3672 104.171 41.2027 104.204 41.0711H103.71C103.678 40.9313 103.661 40.7668 103.661 40.5777C103.661 40.3803 103.678 40.2158 103.71 40.0842C103.678 39.9444 103.661 39.7799 103.661 39.5907C103.661 39.3933 103.678 39.2288 103.71 39.0972C103.678 38.9574 103.661 38.7929 103.661 38.6038C103.661 38.4064 103.678 38.2419 103.71 38.1103H104.204C104.171 37.9705 104.155 37.806 104.155 37.6168C104.155 37.4194 104.171 37.2549 104.204 37.1233H104.697C104.665 36.9835 104.648 36.819 104.648 36.6298C104.648 36.4325 104.665 36.268 104.697 36.1364H107.165C107.198 36.268 107.214 36.4325 107.214 36.6298C107.214 36.819 107.198 36.9835 107.165 37.1233H107.658C107.691 37.2549 107.708 37.4194 107.708 37.6168C107.708 37.806 107.691 37.9705 107.658 38.1103H106.671C106.638 37.9705 106.622 37.806 106.622 37.6168C106.622 37.4194 106.638 37.2549 106.671 37.1233H105.191C105.224 37.2549 105.24 37.4194 105.24 37.6168C105.24 37.806 105.224 37.9705 105.191 38.1103H104.697C104.73 38.2419 104.747 38.4064 104.747 38.6038C104.747 38.7929 104.73 38.9574 104.697 39.0972C104.73 39.2288 104.747 39.3933 104.747 39.5907C104.747 39.7799 104.73 39.9444 104.697 40.0842C104.73 40.2158 104.747 40.3803 104.747 40.5777C104.747 40.7668 104.73 40.9313 104.697 41.0711H105.191C105.224 41.2027 105.24 41.3672 105.24 41.5646C105.24 41.7538 105.224 41.9183 105.191 42.0581H106.671C106.638 41.9183 106.622 41.7538 106.622 41.5646C106.622 41.3672 106.638 41.2027 106.671 41.0711H107.658ZM112.228 37.1233C112.261 37.2549 112.277 37.4194 112.277 37.6168C112.277 37.806 112.261 37.9705 112.228 38.1103C112.261 38.2419 112.277 38.4064 112.277 38.6038C112.277 38.7929 112.261 38.9574 112.228 39.0972C112.261 39.2288 112.277 39.3933 112.277 39.5907C112.277 39.7799 112.261 39.9444 112.228 40.0842C112.261 40.2158 112.277 40.3803 112.277 40.5777C112.277 40.7668 112.261 40.9313 112.228 41.0711C112.261 41.2027 112.277 41.3672 112.277 41.5646C112.277 41.7538 112.261 41.9183 112.228 42.0581C112.261 42.1897 112.277 42.3542 112.277 42.5516C112.277 42.7407 112.261 42.9052 112.228 43.045H111.241C111.208 42.9052 111.191 42.7407 111.191 42.5516C111.191 42.3542 111.208 42.1897 111.241 42.0581C111.208 41.9183 111.191 41.7538 111.191 41.5646C111.191 41.3672 111.208 41.2027 111.241 41.0711C111.208 40.9313 111.191 40.7668 111.191 40.5777C111.191 40.3803 111.208 40.2158 111.241 40.0842H109.267C109.3 40.2158 109.316 40.3803 109.316 40.5777C109.316 40.7668 109.3 40.9313 109.267 41.0711C109.3 41.2027 109.316 41.3672 109.316 41.5646C109.316 41.7538 109.3 41.9183 109.267 42.0581C109.3 42.1897 109.316 42.3542 109.316 42.5516C109.316 42.7407 109.3 42.9052 109.267 43.045H108.28C108.247 42.9052 108.231 42.7407 108.231 42.5516C108.231 42.3542 108.247 42.1897 108.28 42.0581C108.247 41.9183 108.231 41.7538 108.231 41.5646C108.231 41.3672 108.247 41.2027 108.28 41.0711C108.247 40.9313 108.231 40.7668 108.231 40.5777C108.231 40.3803 108.247 40.2158 108.28 40.0842C108.247 39.9444 108.231 39.7799 108.231 39.5907C108.231 39.3933 108.247 39.2288 108.28 39.0972C108.247 38.9574 108.231 38.7929 108.231 38.6038C108.231 38.4064 108.247 38.2419 108.28 38.1103C108.247 37.9705 108.231 37.806 108.231 37.6168C108.231 37.4194 108.247 37.2549 108.28 37.1233C108.247 36.9835 108.231 36.819 108.231 36.6298C108.231 36.4325 108.247 36.268 108.28 36.1364H109.267C109.3 36.268 109.316 36.4325 109.316 36.6298C109.316 36.819 109.3 36.9835 109.267 37.1233C109.3 37.2549 109.316 37.4194 109.316 37.6168C109.316 37.806 109.3 37.9705 109.267 38.1103C109.3 38.2419 109.316 38.4064 109.316 38.6038C109.316 38.7929 109.3 38.9574 109.267 39.0972H111.241C111.208 38.9574 111.191 38.7929 111.191 38.6038C111.191 38.4064 111.208 38.2419 111.241 38.1103C111.208 37.9705 111.191 37.806 111.191 37.6168C111.191 37.4194 111.208 37.2549 111.241 37.1233C111.208 36.9835 111.191 36.819 111.191 36.6298C111.191 36.4325 111.208 36.268 111.241 36.1364H112.228C112.261 36.268 112.277 36.4325 112.277 36.6298C112.277 36.819 112.261 36.9835 112.228 37.1233ZM121.416 41.5646C121.416 41.7538 121.4 41.9183 121.367 42.0581C121.4 42.1897 121.416 42.3542 121.416 42.5516C121.416 42.7407 121.4 42.9052 121.367 43.045H120.38C120.347 42.9052 120.33 42.7407 120.33 42.5516C120.33 42.3542 120.347 42.1897 120.38 42.0581C120.347 41.9183 120.33 41.7538 120.33 41.5646C120.33 41.3672 120.347 41.2027 120.38 41.0711H118.406C118.439 41.2027 118.455 41.3672 118.455 41.5646C118.455 41.7538 118.439 41.9183 118.406 42.0581C118.439 42.1897 118.455 42.3542 118.455 42.5516C118.455 42.7407 118.439 42.9052 118.406 43.045H117.419C117.386 42.9052 117.37 42.7407 117.37 42.5516C117.37 42.3542 117.386 42.1897 117.419 42.0581C117.386 41.9183 117.37 41.7538 117.37 41.5646C117.37 41.3672 117.386 41.2027 117.419 41.0711H117.789C117.756 40.9313 117.74 40.7668 117.74 40.5777C117.74 40.3803 117.756 40.2158 117.789 40.0842C117.756 39.9444 117.74 39.7799 117.74 39.5907C117.74 39.3933 117.756 39.2288 117.789 39.0972H118.036C118.003 38.9574 117.986 38.7929 117.986 38.6038C117.986 38.4064 118.003 38.2419 118.036 38.1103H118.406C118.373 37.9705 118.357 37.806 118.357 37.6168C118.357 37.4194 118.373 37.2549 118.406 37.1233H118.653C118.62 36.9835 118.603 36.819 118.603 36.6298C118.603 36.4325 118.62 36.268 118.653 36.1364H120.133C120.166 36.268 120.182 36.4325 120.182 36.6298C120.182 36.819 120.166 36.9835 120.133 37.1233H120.38C120.413 37.2549 120.429 37.4194 120.429 37.6168C120.429 37.806 120.413 37.9705 120.38 38.1103H120.75C120.783 38.2419 120.799 38.4064 120.799 38.6038C120.799 38.7929 120.783 38.9574 120.75 39.0972H120.997C121.03 39.2288 121.046 39.3933 121.046 39.5907C121.046 39.7799 121.03 39.9444 120.997 40.0842C121.03 40.2158 121.046 40.3803 121.046 40.5777C121.046 40.7668 121.03 40.9313 120.997 41.0711H121.367C121.4 41.2027 121.416 41.3672 121.416 41.5646ZM120.01 40.0842C119.977 39.9444 119.96 39.7799 119.96 39.5907C119.96 39.3933 119.977 39.2288 120.01 39.0972H119.763C119.73 38.9574 119.714 38.7929 119.714 38.6038C119.714 38.4064 119.73 38.2419 119.763 38.1103H119.023C119.056 38.2419 119.072 38.4064 119.072 38.6038C119.072 38.7929 119.056 38.9574 119.023 39.0972H118.776C118.809 39.2288 118.825 39.3933 118.825 39.5907C118.825 39.7799 118.809 39.9444 118.776 40.0842H120.01ZM125.936 42.0581C125.969 42.1897 125.986 42.3542 125.986 42.5516C125.986 42.7407 125.969 42.9052 125.936 43.045H124.949C124.916 42.9052 124.9 42.7407 124.9 42.5516C124.9 42.3542 124.916 42.1897 124.949 42.0581H124.579C124.546 41.9183 124.53 41.7538 124.53 41.5646C124.53 41.3672 124.546 41.2027 124.579 41.0711H124.209C124.176 40.9313 124.16 40.7668 124.16 40.5777C124.16 40.3803 124.176 40.2158 124.209 40.0842H122.975C123.008 40.2158 123.025 40.3803 123.025 40.5777C123.025 40.7668 123.008 40.9313 122.975 41.0711C123.008 41.2027 123.025 41.3672 123.025 41.5646C123.025 41.7538 123.008 41.9183 122.975 42.0581C123.008 42.1897 123.025 42.3542 123.025 42.5516C123.025 42.7407 123.008 42.9052 122.975 43.045H121.988C121.955 42.9052 121.939 42.7407 121.939 42.5516C121.939 42.3542 121.955 42.1897 121.988 42.0581C121.955 41.9183 121.939 41.7538 121.939 41.5646C121.939 41.3672 121.955 41.2027 121.988 41.0711C121.955 40.9313 121.939 40.7668 121.939 40.5777C121.939 40.3803 121.955 40.2158 121.988 40.0842C121.955 39.9444 121.939 39.7799 121.939 39.5907C121.939 39.3933 121.955 39.2288 121.988 39.0972C121.955 38.9574 121.939 38.7929 121.939 38.6038C121.939 38.4064 121.955 38.2419 121.988 38.1103C121.955 37.9705 121.939 37.806 121.939 37.6168C121.939 37.4194 121.955 37.2549 121.988 37.1233C121.955 36.9835 121.939 36.819 121.939 36.6298C121.939 36.4325 121.955 36.268 121.988 36.1364H125.443C125.476 36.268 125.492 36.4325 125.492 36.6298C125.492 36.819 125.476 36.9835 125.443 37.1233H125.936C125.969 37.2549 125.986 37.4194 125.986 37.6168C125.986 37.806 125.969 37.9705 125.936 38.1103H125.689C125.722 38.2419 125.739 38.4064 125.739 38.6038C125.739 38.7929 125.722 38.9574 125.689 39.0972H124.949C124.982 39.2288 124.999 39.3933 124.999 39.5907C124.999 39.7799 124.982 39.9444 124.949 40.0842H125.196C125.229 40.2158 125.245 40.3803 125.245 40.5777C125.245 40.7668 125.229 40.9313 125.196 41.0711H125.566C125.599 41.2027 125.615 41.3672 125.615 41.5646C125.615 41.7538 125.599 41.9183 125.566 42.0581H125.936ZM124.703 39.0972C124.67 38.9574 124.653 38.7929 124.653 38.6038C124.653 38.4064 124.67 38.2419 124.703 38.1103C124.67 37.9705 124.653 37.806 124.653 37.6168C124.653 37.4194 124.67 37.2549 124.703 37.1233H122.975C123.008 37.2549 123.025 37.4194 123.025 37.6168C123.025 37.806 123.008 37.9705 122.975 38.1103C123.008 38.2419 123.025 38.4064 123.025 38.6038C123.025 38.7929 123.008 38.9574 122.975 39.0972H124.703ZM130.506 41.0711C130.539 41.2027 130.555 41.3672 130.555 41.5646C130.555 41.7538 130.539 41.9183 130.506 42.0581H130.012C130.045 42.1897 130.062 42.3542 130.062 42.5516C130.062 42.7407 130.045 42.9052 130.012 43.045H127.545C127.512 42.9052 127.495 42.7407 127.495 42.5516C127.495 42.3542 127.512 42.1897 127.545 42.0581H127.051C127.018 41.9183 127.002 41.7538 127.002 41.5646C127.002 41.3672 127.018 41.2027 127.051 41.0711H126.558C126.525 40.9313 126.509 40.7668 126.509 40.5777C126.509 40.3803 126.525 40.2158 126.558 40.0842C126.525 39.9444 126.509 39.7799 126.509 39.5907C126.509 39.3933 126.525 39.2288 126.558 39.0972C126.525 38.9574 126.509 38.7929 126.509 38.6038C126.509 38.4064 126.525 38.2419 126.558 38.1103H127.051C127.018 37.9705 127.002 37.806 127.002 37.6168C127.002 37.4194 127.018 37.2549 127.051 37.1233H127.545C127.512 36.9835 127.495 36.819 127.495 36.6298C127.495 36.4325 127.512 36.268 127.545 36.1364H130.012C130.045 36.268 130.062 36.4325 130.062 36.6298C130.062 36.819 130.045 36.9835 130.012 37.1233H130.506C130.539 37.2549 130.555 37.4194 130.555 37.6168C130.555 37.806 130.539 37.9705 130.506 38.1103H129.519C129.486 37.9705 129.469 37.806 129.469 37.6168C129.469 37.4194 129.486 37.2549 129.519 37.1233H128.038C128.071 37.2549 128.088 37.4194 128.088 37.6168C128.088 37.806 128.071 37.9705 128.038 38.1103H127.545C127.578 38.2419 127.594 38.4064 127.594 38.6038C127.594 38.7929 127.578 38.9574 127.545 39.0972C127.578 39.2288 127.594 39.3933 127.594 39.5907C127.594 39.7799 127.578 39.9444 127.545 40.0842C127.578 40.2158 127.594 40.3803 127.594 40.5777C127.594 40.7668 127.578 40.9313 127.545 41.0711H128.038C128.071 41.2027 128.088 41.3672 128.088 41.5646C128.088 41.7538 128.071 41.9183 128.038 42.0581H129.519C129.486 41.9183 129.469 41.7538 129.469 41.5646C129.469 41.3672 129.486 41.2027 129.519 41.0711H130.506ZM135.125 41.5646C135.125 41.7538 135.108 41.9183 135.075 42.0581C135.108 42.1897 135.125 42.3542 135.125 42.5516C135.125 42.7407 135.108 42.9052 135.075 43.045H134.088C134.055 42.9052 134.039 42.7407 134.039 42.5516C134.039 42.3542 134.055 42.1897 134.088 42.0581C134.055 41.9183 134.039 41.7538 134.039 41.5646C134.039 41.3672 134.055 41.2027 134.088 41.0711H132.114C132.147 41.2027 132.164 41.3672 132.164 41.5646C132.164 41.7538 132.147 41.9183 132.114 42.0581C132.147 42.1897 132.164 42.3542 132.164 42.5516C132.164 42.7407 132.147 42.9052 132.114 43.045H131.127C131.094 42.9052 131.078 42.7407 131.078 42.5516C131.078 42.3542 131.094 42.1897 131.127 42.0581C131.094 41.9183 131.078 41.7538 131.078 41.5646C131.078 41.3672 131.094 41.2027 131.127 41.0711H131.497C131.465 40.9313 131.448 40.7668 131.448 40.5777C131.448 40.3803 131.465 40.2158 131.497 40.0842C131.465 39.9444 131.448 39.7799 131.448 39.5907C131.448 39.3933 131.465 39.2288 131.497 39.0972H131.744C131.711 38.9574 131.695 38.7929 131.695 38.6038C131.695 38.4064 131.711 38.2419 131.744 38.1103H132.114C132.081 37.9705 132.065 37.806 132.065 37.6168C132.065 37.4194 132.081 37.2549 132.114 37.1233H132.361C132.328 36.9835 132.312 36.819 132.312 36.6298C132.312 36.4325 132.328 36.268 132.361 36.1364H133.841C133.874 36.268 133.891 36.4325 133.891 36.6298C133.891 36.819 133.874 36.9835 133.841 37.1233H134.088C134.121 37.2549 134.138 37.4194 134.138 37.6168C134.138 37.806 134.121 37.9705 134.088 38.1103H134.458C134.491 38.2419 134.508 38.4064 134.508 38.6038C134.508 38.7929 134.491 38.9574 134.458 39.0972H134.705C134.738 39.2288 134.754 39.3933 134.754 39.5907C134.754 39.7799 134.738 39.9444 134.705 40.0842C134.738 40.2158 134.754 40.3803 134.754 40.5777C134.754 40.7668 134.738 40.9313 134.705 41.0711H135.075C135.108 41.2027 135.125 41.3672 135.125 41.5646ZM133.718 40.0842C133.685 39.9444 133.669 39.7799 133.669 39.5907C133.669 39.3933 133.685 39.2288 133.718 39.0972H133.471C133.438 38.9574 133.422 38.7929 133.422 38.6038C133.422 38.4064 133.438 38.2419 133.471 38.1103H132.731C132.764 38.2419 132.78 38.4064 132.78 38.6038C132.78 38.7929 132.764 38.9574 132.731 39.0972H132.484C132.517 39.2288 132.534 39.3933 132.534 39.5907C132.534 39.7799 132.517 39.9444 132.484 40.0842H133.718ZM139.645 39.0972C139.678 39.2288 139.694 39.3933 139.694 39.5907C139.694 39.7799 139.678 39.9444 139.645 40.0842C139.678 40.2158 139.694 40.3803 139.694 40.5777C139.694 40.7668 139.678 40.9313 139.645 41.0711H139.151C139.184 41.2027 139.201 41.3672 139.201 41.5646C139.201 41.7538 139.184 41.9183 139.151 42.0581H138.658C138.691 42.1897 138.707 42.3542 138.707 42.5516C138.707 42.7407 138.691 42.9052 138.658 43.045H135.697C135.664 42.9052 135.647 42.7407 135.647 42.5516C135.647 42.3542 135.664 42.1897 135.697 42.0581C135.664 41.9183 135.647 41.7538 135.647 41.5646C135.647 41.3672 135.664 41.2027 135.697 41.0711C135.664 40.9313 135.647 40.7668 135.647 40.5777C135.647 40.3803 135.664 40.2158 135.697 40.0842C135.664 39.9444 135.647 39.7799 135.647 39.5907C135.647 39.3933 135.664 39.2288 135.697 39.0972C135.664 38.9574 135.647 38.7929 135.647 38.6038C135.647 38.4064 135.664 38.2419 135.697 38.1103C135.664 37.9705 135.647 37.806 135.647 37.6168C135.647 37.4194 135.664 37.2549 135.697 37.1233C135.664 36.9835 135.647 36.819 135.647 36.6298C135.647 36.4325 135.664 36.268 135.697 36.1364H138.658C138.691 36.268 138.707 36.4325 138.707 36.6298C138.707 36.819 138.691 36.9835 138.658 37.1233H139.151C139.184 37.2549 139.201 37.4194 139.201 37.6168C139.201 37.806 139.184 37.9705 139.151 38.1103H139.645C139.678 38.2419 139.694 38.4064 139.694 38.6038C139.694 38.7929 139.678 38.9574 139.645 39.0972ZM138.658 41.0711C138.625 40.9313 138.608 40.7668 138.608 40.5777C138.608 40.3803 138.625 40.2158 138.658 40.0842C138.625 39.9444 138.608 39.7799 138.608 39.5907C138.608 39.3933 138.625 39.2288 138.658 39.0972C138.625 38.9574 138.608 38.7929 138.608 38.6038C138.608 38.4064 138.625 38.2419 138.658 38.1103H138.164C138.131 37.9705 138.115 37.806 138.115 37.6168C138.115 37.4194 138.131 37.2549 138.164 37.1233H136.684C136.717 37.2549 136.733 37.4194 136.733 37.6168C136.733 37.806 136.717 37.9705 136.684 38.1103C136.717 38.2419 136.733 38.4064 136.733 38.6038C136.733 38.7929 136.717 38.9574 136.684 39.0972C136.717 39.2288 136.733 39.3933 136.733 39.5907C136.733 39.7799 136.717 39.9444 136.684 40.0842C136.717 40.2158 136.733 40.3803 136.733 40.5777C136.733 40.7668 136.717 40.9313 136.684 41.0711C136.717 41.2027 136.733 41.3672 136.733 41.5646C136.733 41.7538 136.717 41.9183 136.684 42.0581H138.164C138.131 41.9183 138.115 41.7538 138.115 41.5646C138.115 41.3672 138.131 41.2027 138.164 41.0711H138.658ZM141.747 40.0842C141.78 40.2158 141.796 40.3803 141.796 40.5777C141.796 40.7668 141.78 40.9313 141.747 41.0711C141.78 41.2027 141.796 41.3672 141.796 41.5646C141.796 41.7538 141.78 41.9183 141.747 42.0581H143.721C143.754 42.1897 143.77 42.3542 143.77 42.5516C143.77 42.7407 143.754 42.9052 143.721 43.045H140.76C140.727 42.9052 140.71 42.7407 140.71 42.5516C140.71 42.3542 140.727 42.1897 140.76 42.0581C140.727 41.9183 140.71 41.7538 140.71 41.5646C140.71 41.3672 140.727 41.2027 140.76 41.0711C140.727 40.9313 140.71 40.7668 140.71 40.5777C140.71 40.3803 140.727 40.2158 140.76 40.0842C140.727 39.9444 140.71 39.7799 140.71 39.5907C140.71 39.3933 140.727 39.2288 140.76 39.0972C140.727 38.9574 140.71 38.7929 140.71 38.6038C140.71 38.4064 140.727 38.2419 140.76 38.1103C140.727 37.9705 140.71 37.806 140.71 37.6168C140.71 37.4194 140.727 37.2549 140.76 37.1233C140.727 36.9835 140.71 36.819 140.71 36.6298C140.71 36.4325 140.727 36.268 140.76 36.1364H143.721C143.754 36.268 143.77 36.4325 143.77 36.6298C143.77 36.819 143.754 36.9835 143.721 37.1233H141.747C141.78 37.2549 141.796 37.4194 141.796 37.6168C141.796 37.806 141.78 37.9705 141.747 38.1103C141.78 38.2419 141.796 38.4064 141.796 38.6038C141.796 38.7929 141.78 38.9574 141.747 39.0972H143.721C143.754 39.2288 143.77 39.3933 143.77 39.5907C143.77 39.7799 143.754 39.9444 143.721 40.0842H141.747ZM153.353 39.0972C153.386 39.2288 153.402 39.3933 153.402 39.5907C153.402 39.7799 153.386 39.9444 153.353 40.0842C153.386 40.2158 153.402 40.3803 153.402 40.5777C153.402 40.7668 153.386 40.9313 153.353 41.0711C153.386 41.2027 153.402 41.3672 153.402 41.5646C153.402 41.7538 153.386 41.9183 153.353 42.0581H152.86C152.893 42.1897 152.909 42.3542 152.909 42.5516C152.909 42.7407 152.893 42.9052 152.86 43.045H150.392C150.359 42.9052 150.343 42.7407 150.343 42.5516C150.343 42.3542 150.359 42.1897 150.392 42.0581H149.899C149.866 41.9183 149.849 41.7538 149.849 41.5646C149.849 41.3672 149.866 41.2027 149.899 41.0711H149.405C149.372 40.9313 149.356 40.7668 149.356 40.5777C149.356 40.3803 149.372 40.2158 149.405 40.0842C149.372 39.9444 149.356 39.7799 149.356 39.5907C149.356 39.3933 149.372 39.2288 149.405 39.0972C149.372 38.9574 149.356 38.7929 149.356 38.6038C149.356 38.4064 149.372 38.2419 149.405 38.1103H149.899C149.866 37.9705 149.849 37.806 149.849 37.6168C149.849 37.4194 149.866 37.2549 149.899 37.1233H150.392C150.359 36.9835 150.343 36.819 150.343 36.6298C150.343 36.4325 150.359 36.268 150.392 36.1364H152.86C152.893 36.268 152.909 36.4325 152.909 36.6298C152.909 36.819 152.893 36.9835 152.86 37.1233H153.353C153.386 37.2549 153.402 37.4194 153.402 37.6168C153.402 37.806 153.386 37.9705 153.353 38.1103H152.366C152.333 37.9705 152.317 37.806 152.317 37.6168C152.317 37.4194 152.333 37.2549 152.366 37.1233H150.886C150.919 37.2549 150.935 37.4194 150.935 37.6168C150.935 37.806 150.919 37.9705 150.886 38.1103H150.392C150.425 38.2419 150.442 38.4064 150.442 38.6038C150.442 38.7929 150.425 38.9574 150.392 39.0972C150.425 39.2288 150.442 39.3933 150.442 39.5907C150.442 39.7799 150.425 39.9444 150.392 40.0842C150.425 40.2158 150.442 40.3803 150.442 40.5777C150.442 40.7668 150.425 40.9313 150.392 41.0711H150.886C150.919 41.2027 150.935 41.3672 150.935 41.5646C150.935 41.7538 150.919 41.9183 150.886 42.0581H152.366C152.333 41.9183 152.317 41.7538 152.317 41.5646C152.317 41.3672 152.333 41.2027 152.366 41.0711C152.333 40.9313 152.317 40.7668 152.317 40.5777C152.317 40.3803 152.333 40.2158 152.366 40.0842H151.626C151.593 39.9444 151.577 39.7799 151.577 39.5907C151.577 39.3933 151.593 39.2288 151.626 39.0972H153.353ZM157.972 41.5646C157.972 41.7538 157.955 41.9183 157.923 42.0581C157.955 42.1897 157.972 42.3542 157.972 42.5516C157.972 42.7407 157.955 42.9052 157.923 43.045H156.936C156.903 42.9052 156.886 42.7407 156.886 42.5516C156.886 42.3542 156.903 42.1897 156.936 42.0581C156.903 41.9183 156.886 41.7538 156.886 41.5646C156.886 41.3672 156.903 41.2027 156.936 41.0711H154.962C154.995 41.2027 155.011 41.3672 155.011 41.5646C155.011 41.7538 154.995 41.9183 154.962 42.0581C154.995 42.1897 155.011 42.3542 155.011 42.5516C155.011 42.7407 154.995 42.9052 154.962 43.045H153.975C153.942 42.9052 153.925 42.7407 153.925 42.5516C153.925 42.3542 153.942 42.1897 153.975 42.0581C153.942 41.9183 153.925 41.7538 153.925 41.5646C153.925 41.3672 153.942 41.2027 153.975 41.0711H154.345C154.312 40.9313 154.296 40.7668 154.296 40.5777C154.296 40.3803 154.312 40.2158 154.345 40.0842C154.312 39.9444 154.296 39.7799 154.296 39.5907C154.296 39.3933 154.312 39.2288 154.345 39.0972H154.592C154.559 38.9574 154.542 38.7929 154.542 38.6038C154.542 38.4064 154.559 38.2419 154.592 38.1103H154.962C154.929 37.9705 154.912 37.806 154.912 37.6168C154.912 37.4194 154.929 37.2549 154.962 37.1233H155.208C155.176 36.9835 155.159 36.819 155.159 36.6298C155.159 36.4325 155.176 36.268 155.208 36.1364H156.689C156.722 36.268 156.738 36.4325 156.738 36.6298C156.738 36.819 156.722 36.9835 156.689 37.1233H156.936C156.969 37.2549 156.985 37.4194 156.985 37.6168C156.985 37.806 156.969 37.9705 156.936 38.1103H157.306C157.339 38.2419 157.355 38.4064 157.355 38.6038C157.355 38.7929 157.339 38.9574 157.306 39.0972H157.552C157.585 39.2288 157.602 39.3933 157.602 39.5907C157.602 39.7799 157.585 39.9444 157.552 40.0842C157.585 40.2158 157.602 40.3803 157.602 40.5777C157.602 40.7668 157.585 40.9313 157.552 41.0711H157.923C157.955 41.2027 157.972 41.3672 157.972 41.5646ZM156.566 40.0842C156.533 39.9444 156.516 39.7799 156.516 39.5907C156.516 39.3933 156.533 39.2288 156.566 39.0972H156.319C156.286 38.9574 156.269 38.7929 156.269 38.6038C156.269 38.4064 156.286 38.2419 156.319 38.1103H155.579C155.611 38.2419 155.628 38.4064 155.628 38.6038C155.628 38.7929 155.611 38.9574 155.579 39.0972H155.332C155.365 39.2288 155.381 39.3933 155.381 39.5907C155.381 39.7799 155.365 39.9444 155.332 40.0842H156.566ZM162.492 37.1233C162.525 37.2549 162.541 37.4194 162.541 37.6168C162.541 37.806 162.525 37.9705 162.492 38.1103C162.525 38.2419 162.541 38.4064 162.541 38.6038C162.541 38.7929 162.525 38.9574 162.492 39.0972C162.525 39.2288 162.541 39.3933 162.541 39.5907C162.541 39.7799 162.525 39.9444 162.492 40.0842C162.525 40.2158 162.541 40.3803 162.541 40.5777C162.541 40.7668 162.525 40.9313 162.492 41.0711C162.525 41.2027 162.541 41.3672 162.541 41.5646C162.541 41.7538 162.525 41.9183 162.492 42.0581C162.525 42.1897 162.541 42.3542 162.541 42.5516C162.541 42.7407 162.525 42.9052 162.492 43.045H161.505C161.472 42.9052 161.456 42.7407 161.456 42.5516C161.456 42.3542 161.472 42.1897 161.505 42.0581C161.472 41.9183 161.456 41.7538 161.456 41.5646C161.456 41.3672 161.472 41.2027 161.505 41.0711C161.472 40.9313 161.456 40.7668 161.456 40.5777C161.456 40.3803 161.472 40.2158 161.505 40.0842C161.472 39.9444 161.456 39.7799 161.456 39.5907C161.456 39.3933 161.472 39.2288 161.505 39.0972C161.472 38.9574 161.456 38.7929 161.456 38.6038C161.456 38.4064 161.472 38.2419 161.505 38.1103H161.135C161.168 38.2419 161.184 38.4064 161.184 38.6038C161.184 38.7929 161.168 38.9574 161.135 39.0972C161.168 39.2288 161.184 39.3933 161.184 39.5907C161.184 39.7799 161.168 39.9444 161.135 40.0842H160.888C160.921 40.2158 160.938 40.3803 160.938 40.5777C160.938 40.7668 160.921 40.9313 160.888 41.0711C160.921 41.2027 160.938 41.3672 160.938 41.5646C160.938 41.7538 160.921 41.9183 160.888 42.0581H160.148C160.115 41.9183 160.099 41.7538 160.099 41.5646C160.099 41.3672 160.115 41.2027 160.148 41.0711C160.115 40.9313 160.099 40.7668 160.099 40.5777C160.099 40.3803 160.115 40.2158 160.148 40.0842H159.901C159.868 39.9444 159.852 39.7799 159.852 39.5907C159.852 39.3933 159.868 39.2288 159.901 39.0972C159.868 38.9574 159.852 38.7929 159.852 38.6038C159.852 38.4064 159.868 38.2419 159.901 38.1103H159.531C159.564 38.2419 159.581 38.4064 159.581 38.6038C159.581 38.7929 159.564 38.9574 159.531 39.0972C159.564 39.2288 159.581 39.3933 159.581 39.5907C159.581 39.7799 159.564 39.9444 159.531 40.0842C159.564 40.2158 159.581 40.3803 159.581 40.5777C159.581 40.7668 159.564 40.9313 159.531 41.0711C159.564 41.2027 159.581 41.3672 159.581 41.5646C159.581 41.7538 159.564 41.9183 159.531 42.0581C159.564 42.1897 159.581 42.3542 159.581 42.5516C159.581 42.7407 159.564 42.9052 159.531 43.045H158.544C158.511 42.9052 158.495 42.7407 158.495 42.5516C158.495 42.3542 158.511 42.1897 158.544 42.0581C158.511 41.9183 158.495 41.7538 158.495 41.5646C158.495 41.3672 158.511 41.2027 158.544 41.0711C158.511 40.9313 158.495 40.7668 158.495 40.5777C158.495 40.3803 158.511 40.2158 158.544 40.0842C158.511 39.9444 158.495 39.7799 158.495 39.5907C158.495 39.3933 158.511 39.2288 158.544 39.0972C158.511 38.9574 158.495 38.7929 158.495 38.6038C158.495 38.4064 158.511 38.2419 158.544 38.1103C158.511 37.9705 158.495 37.806 158.495 37.6168C158.495 37.4194 158.511 37.2549 158.544 37.1233C158.511 36.9835 158.495 36.819 158.495 36.6298C158.495 36.4325 158.511 36.268 158.544 36.1364H159.778C159.811 36.268 159.827 36.4325 159.827 36.6298C159.827 36.819 159.811 36.9835 159.778 37.1233H160.148C160.181 37.2549 160.197 37.4194 160.197 37.6168C160.197 37.806 160.181 37.9705 160.148 38.1103H160.333C160.366 38.2419 160.382 38.4064 160.382 38.6038C160.382 38.7929 160.366 38.9574 160.333 39.0972H160.703C160.67 38.9574 160.654 38.7929 160.654 38.6038C160.654 38.4064 160.67 38.2419 160.703 38.1103H160.888C160.855 37.9705 160.839 37.806 160.839 37.6168C160.839 37.4194 160.855 37.2549 160.888 37.1233H161.258C161.225 36.9835 161.209 36.819 161.209 36.6298C161.209 36.4325 161.225 36.268 161.258 36.1364H162.492C162.525 36.268 162.541 36.4325 162.541 36.6298C162.541 36.819 162.525 36.9835 162.492 37.1233ZM164.594 40.0842C164.627 40.2158 164.643 40.3803 164.643 40.5777C164.643 40.7668 164.627 40.9313 164.594 41.0711C164.627 41.2027 164.643 41.3672 164.643 41.5646C164.643 41.7538 164.627 41.9183 164.594 42.0581H166.568C166.601 42.1897 166.617 42.3542 166.617 42.5516C166.617 42.7407 166.601 42.9052 166.568 43.045H163.607C163.574 42.9052 163.558 42.7407 163.558 42.5516C163.558 42.3542 163.574 42.1897 163.607 42.0581C163.574 41.9183 163.558 41.7538 163.558 41.5646C163.558 41.3672 163.574 41.2027 163.607 41.0711C163.574 40.9313 163.558 40.7668 163.558 40.5777C163.558 40.3803 163.574 40.2158 163.607 40.0842C163.574 39.9444 163.558 39.7799 163.558 39.5907C163.558 39.3933 163.574 39.2288 163.607 39.0972C163.574 38.9574 163.558 38.7929 163.558 38.6038C163.558 38.4064 163.574 38.2419 163.607 38.1103C163.574 37.9705 163.558 37.806 163.558 37.6168C163.558 37.4194 163.574 37.2549 163.607 37.1233C163.574 36.9835 163.558 36.819 163.558 36.6298C163.558 36.4325 163.574 36.268 163.607 36.1364H166.568C166.601 36.268 166.617 36.4325 166.617 36.6298C166.617 36.819 166.601 36.9835 166.568 37.1233H164.594C164.627 37.2549 164.643 37.4194 164.643 37.6168C164.643 37.806 164.627 37.9705 164.594 38.1103C164.627 38.2419 164.643 38.4064 164.643 38.6038C164.643 38.7929 164.627 38.9574 164.594 39.0972H166.568C166.601 39.2288 166.617 39.3933 166.617 39.5907C166.617 39.7799 166.601 39.9444 166.568 40.0842H164.594Z" fill="white"/>
</g>
</g>
<defs>
<filter id="filter0_d_617_2131" x="21.4106" y="21.0575" width="36.581" height="8.00531" filterUnits="userSpaceOnUse" color-interpolation-filters="sRGB">
<feFlood flood-opacity="0" result="BackgroundImageFix"/>
<feColorMatrix in="SourceAlpha" type="matrix" values="0 0 0 0 0 0 0 0 0 0 0 0 0 0 0 0 0 0 127 0" result="hardAlpha"/>
<feOffset dx="0.548308" dy="1.09662"/>
<feComposite in2="hardAlpha" operator="out"/>
<feColorMatrix type="matrix" values="0 0 0 0 0 0 0 0 0 0 0 0 0 0 0 0 0 0 1 0"/>
<feBlend mode="normal" in2="BackgroundImageFix" result="effect1_dropShadow_617_2131"/>
<feBlend mode="normal" in="SourceGraphic" in2="effect1_dropShadow_617_2131" result="shape"/>
</filter>
<filter id="filter1_d_617_2131" x="21.4106" y="35.1494" width="145.755" height="8.99225" filterUnits="userSpaceOnUse" color-interpolation-filters="sRGB">
<feFlood flood-opacity="0" result="BackgroundImageFix"/>
<feColorMatrix in="SourceAlpha" type="matrix" values="0 0 0 0 0 0 0 0 0 0 0 0 0 0 0 0 0 0 127 0" result="hardAlpha"/>
<feOffset dx="0.548308" dy="1.09662"/>
<feComposite in2="hardAlpha" operator="out"/>
<feColorMatrix type="matrix" values="0 0 0 0 0 0 0 0 0 0 0 0 0 0 0 0 0 0 1 0"/>
<feBlend mode="normal" in2="BackgroundImageFix" result="effect1_dropShadow_617_2131"/>
<feBlend mode="normal" in="SourceGraphic" in2="effect1_dropShadow_617_2131" result="shape"/>
</filter>
<clipPath id="clip0_617_2131">
<rect width="395.28" height="285.12" fill="white"/>
</clipPath>
<clipPath id="clip1_617_2131">
<rect width="1658.9" height="285.367" fill="white" transform="translate(-332.96)"/>
</clipPath>
</defs>
</svg>
